<?xml version="1.0" standalone="no"?>
<!DOCTYPE svg PUBLIC "-//W3C//DTD SVG 1.1//EN" "http://www.w3.org/Graphics/SVG/1.1/DTD/svg11.dtd" >
<svg>
<metadata>
Created by FontForge 20090914 at Thu Jul 17 15:10:42 2014
 By www-data
Copyright (c) 2002, 2005 Parachute&#194;&#168;, www.parachute.gr.  All rights reserved.
</metadata>
<defs>
<font id="PFDinTextCompPro-Light" horiz-adv-x="1818" >
  <font-face 
    font-family="PF Din Text Comp Pro Light"
    font-weight="300"
    font-stretch="normal"
    units-per-em="1000"
    panose-1="2 0 0 0 0 0 0 0 0 0"
    ascent="750"
    descent="-250"
    x-height="491"
    cap-height="696"
    bbox="-128 -226.003 1760 913.002"
    underline-thickness="50"
    underline-position="-50"
    unicode-range="U+0020-U+FB05"
  />
<missing-glyph horiz-adv-x="436" 
d="M0 700h436v-700h-436v700zM368 659h-300l150 -272zM396 72v557l-153 -279zM368 41l-150 272l-150 -272h300zM40 73l153 277l-153 277v-554z" />
    <glyph glyph-name="fj" unicode="fj" horiz-adv-x="370" 
d="M125 443l-0.00390625 -443h-62v443h-52v48h52v109c0 40.667 11.833 72.334 35.5 95.001s55.167 34 94.5 34c24.667 0 47.334 -3.5 68.001 -10.5s38.667 -18.5 54 -34.5l-36 -43c-11.333 11.333 -24.666 19.166 -39.999 23.499s-29.666 6.5 -42.999 6.5
c-25.333 0 -43.5 -6.33301 -54.5 -19s-16.5 -28.667 -16.5 -48v-113h194v-573c0 -34.667 -8 -63 -24 -85s-44 -33 -84 -33h-21v57h11c24.667 0 40.334 5.83301 47.001 17.5s10 28.167 10 49.5v519h-133z" />
    <glyph glyph-name="ffj" unicode="ffj" horiz-adv-x="562" 
d="M193 727c16.667 0 32.8369 -1.66309 48.5039 -4.99609s30.167 -9.33301 43.5 -18c12 13.333 26.5 23.166 43.5 29.499s36.167 9.5 57.5 9.5c25.333 0 48.166 -3.33301 68.499 -10s38.166 -18.334 53.499 -35.001l-37 -43c-12.667 11.333 -26.334 19.166 -41.001 23.499
s-28.334 6.5 -41.001 6.5c-24 0 -41.833 -6.33301 -53.5 -19s-17.5 -28.667 -17.5 -48v-126h193v-574c0 -34.667 -8 -63 -24 -85s-44 -33 -84 -33h-21v57h10c24.667 0 40.5 6.5 47.5 19.5s10.5 33.167 10.5 60.5v506h-132v-443h-62v443h-131v-443h-62v443h-52v49h52v109
c0 39.333 12.333 70.166 37 92.499s55.667 33.5 93 33.5zM256.003 492.004v126.999c0 5.33301 0.166992 10.833 0.5 16.5s1.83301 11.5 4.5 17.5c-11.333 6 -23 10.167 -35 12.5s-22 3.5 -30 3.5c-24.667 0 -42.667 -6.66699 -54 -20s-17 -29.666 -17 -48.999v-108h131z" />
    <glyph glyph-name="ff" unicode="ff" horiz-adv-x="413" 
d="M194 728c14.667 0 29.001 -1.33496 43.001 -4.00195s27.667 -7.66699 41 -15c9.33301 12.667 21.333 21.834 36 27.501s31 8.5 49 8.5h35v-57h-25c-20.667 0 -35.334 -5.66699 -44.001 -17s-13 -25.666 -13 -42.999v-137h80v-48h-80v-443h-61v443h-129v-443h-63v443h-52
v48h52v113c0 20 3.33301 37.667 10 53s16 28.333 28 39s26 18.667 42 24s33 8 51 8zM255.001 490.998l0.000976562 128.001c0 4.66699 0.166992 10.167 0.5 16.5s1.16602 13.166 2.49902 20.499c-11.333 6 -22.5 9.83301 -33.5 11.5s-20.167 2.5 -27.5 2.5
c-25.333 0 -43.5 -6.33301 -54.5 -19s-16.5 -28.667 -16.5 -48v-112h129z" />
    <glyph glyph-name="fi" unicode="fi" horiz-adv-x="370" 
d="M258 0l-0.00195312 443h-132v-443h-63v443h-52v48h52v114c0 40 12.333 70.833 37 92.5s55.667 32.5 93 32.5c51.333 0 92 -15.333 122 -46l-36 -43c-11.333 12 -24.666 20 -39.999 24s-29.666 6 -42.999 6c-25.333 0 -43.333 -6.33301 -54 -19s-16 -28.667 -16 -48v-113
h193v-491h-61z" />
    <glyph glyph-name="fl" unicode="fl" horiz-adv-x="399" 
d="M258 669c-14 3.33301 -26 5.5 -36 6.5s-19 1.5 -27 1.5c-26 0 -44 -7.16699 -54 -21.5s-15 -34.166 -15 -59.499v-105h84v-48h-84v-443h-63v443h-52v48h52v112c0 42 11.5 74.833 34.5 98.5s54.5 35.5 94.5 35.5c12 0 28.5 -0.833008 49.5 -2.5
s47.167 -6.83398 78.5 -15.501v-596c0 -24 3.33301 -42.333 10 -55s21.334 -19 44.001 -19h12v-56h-15c-18.667 0 -35 1.83301 -49 5.5s-25.833 10 -35.5 19s-16.834 21 -21.501 36s-7 34.167 -7 57.5v558z" />
    <glyph glyph-name="ffi" unicode="ffi" horiz-adv-x="562" 
d="M194 728c16 0 31.8311 -1.83105 47.498 -5.49805s30.5 -9.83398 44.5 -18.501c24 26.667 57.333 40 100 40c27.333 0 50.833 -3.5 70.5 -10.5s37.5 -18.833 53.5 -35.5l-38 -43c-11.333 11.333 -24.666 19.166 -39.999 23.499s-29.666 6.5 -42.999 6.5
c-24 0 -41.833 -6.33301 -53.5 -19s-17.5 -28.667 -17.5 -48v-126h193v-492h-61v443h-132v-443h-62v443h-130v-443h-63v443h-52v49h52v109c0 40.667 12.333 72 37 94s56 33 94 33zM255.998 492.002v126.999c0 5.33301 0.333008 10.5 1 15.5s1.66699 10.167 3 15.5
c-11.333 7.33301 -22.833 12.333 -34.5 15s-21.167 4 -28.5 4c-26 0 -44.333 -6.66699 -55 -20s-16 -29.666 -16 -48.999v-108h130z" />
    <glyph glyph-name="ffl" unicode="ffl" horiz-adv-x="591" 
d="M194 726c13.333 0 28.6689 -1.66504 46.002 -4.99805s33.333 -9.33301 48 -18c11.333 13.333 25.166 23.166 41.499 29.499s34.5 9.5 54.5 9.5c12 0 28.833 -1 50.5 -3s47.5 -7.33301 77.5 -16v-600c0 -24 3.5 -42.333 10.5 -55s21.833 -19 44.5 -19h12v-56h-16
c-18.667 0 -35 1.83301 -49 5.5s-25.833 10 -35.5 19s-16.834 21 -21.501 36s-7 34.167 -7 57.5v564c-14 3.33301 -26 5.66602 -36 6.99902s-19 2 -27 2c-25.333 0 -43.333 -7.5 -54 -22.5s-16 -35.167 -16 -60.5v-110h87v-48h-87v-443h-61v443h-130v-443h-63v443h-52v48h52
v110c0 40.667 12.667 71.667 38 93s56.333 32 93 32zM256.003 608.002c0 7.33301 0.333008 14.5 1 21.5s2 13.833 4 20.5c-12 7.33301 -23.833 12 -35.5 14s-21.167 3 -28.5 3c-25.333 0 -43.5 -6.33301 -54.5 -19s-16.5 -28.667 -16.5 -48v-109h130v117z" />
    <glyph glyph-name="ft" unicode="ft" horiz-adv-x="414" 
d="M319 491l69 -0.000976562v-48h-69v-318c0 -24.667 5.16699 -42.167 15.5 -52.5s25.5 -15.5 45.5 -15.5h10v-58h-23c-38 0 -65.667 10.833 -83 32.5s-26 47.5 -26 77.5v334h-132v-443h-63v443h-52v48h52v123c0 38.667 10.167 67 30.5 85s46.5 27 78.5 27h36v-57h-26
c-20 0 -34.333 -5.66699 -43 -17s-13 -25.666 -13 -42.999v-118h132v134h61v-134z" />
    <glyph glyph-name=".notdef" horiz-adv-x="436" 
d="M0 700h436v-700h-436v700zM368 659h-300l150 -272zM396 72v557l-153 -279zM368 41l-150 272l-150 -272h300zM40 73l153 277l-153 277v-554z" />
    <glyph glyph-name="space" unicode=" " horiz-adv-x="184" 
 />
    <glyph glyph-name="exclam" unicode="!" horiz-adv-x="214" 
d="M81 168l-6 528h63l-6 -528h-51zM74 0v64h65v-64h-65z" />
    <glyph glyph-name="quotedbl" unicode="&#x22;" horiz-adv-x="220" 
d="M135 514v182h47v-182h-47zM38 514v182h49v-182h-49z" />
    <glyph glyph-name="numbersign" unicode="#" horiz-adv-x="367" 
d="M208 224h-101l-41 -224h-43l42 224h-60v41h68l31 172h-58v42h66l43 222h43l-43 -222h101l42 222h43l-42 -222h60v-42h-68l-32 -172h58v-41h-66l-42 -224h-43zM115 265h101l32 172h-101z" />
    <glyph glyph-name="dollar" unicode="$" horiz-adv-x="367" 
d="M341 186c0 -27.333 -2.50293 -52.501 -7.50293 -75.501s-13 -42.833 -24 -59.5s-25.5 -29.834 -43.5 -39.501s-40.333 -15.5 -67 -17.5v-93h-33v93c-25.333 1.33301 -47.166 6.16602 -65.499 14.499s-33.333 19.166 -45 32.499s-20.334 29 -26.001 47
s-8.5 37.667 -8.5 59l61 13c0 -13.333 1.5 -26.166 4.5 -38.499s7.66699 -23.333 14 -33s14.833 -17.667 25.5 -24s24 -10.5 40 -12.5v286c-30.667 14 -55.167 27.833 -73.5 41.5s-32.5 27.834 -42.5 42.501s-16.5 30.167 -19.5 46.5s-4.5 34.5 -4.5 54.5
c0 49.333 11.333 90.166 34 122.499s58 50.833 106 55.5v84h33v-84c27.333 -1.33301 50 -6.66602 68 -15.999s32.5 -21.166 43.5 -35.499s18.833 -30 23.5 -47s7 -33.5 7 -49.5l-61 -15c0 28.667 -6.16699 52.5 -18.5 71.5s-33.166 30.167 -62.499 33.5v-253
c0.666992 0 2.33398 -0.5 5.00098 -1.5s4.33398 -1.83301 5.00098 -2.5c30 -12 53.667 -24.5 71 -37.5s30.5 -27.333 39.5 -43s14.833 -33.167 17.5 -52.5s4 -41.666 4 -66.999zM278.997 184.999c0 20 -0.833008 36.668 -2.5 50.001s-5.16699 25.166 -10.5 35.499
s-13.333 19.5 -24 27.5s-25 16.333 -43 25v-271c18 2 32.333 7 43 15s18.667 18 24 30s8.83301 25.5 10.5 40.5s2.5 30.833 2.5 47.5zM86.9971 524c0 -13.333 1.00195 -25.332 3.00195 -35.999s5.66699 -20.5 11 -29.5s13.166 -17.833 23.499 -26.5
s24.166 -17.334 41.499 -26.001v236c-16.667 -2 -30.167 -7 -40.5 -15s-18.333 -17.5 -24 -28.5s-9.5 -23.167 -11.5 -36.5s-3 -26 -3 -38z" />
    <glyph glyph-name="percent" unicode="%" horiz-adv-x="580" 
d="M538 81c0 -26.667 -9.16699 -47.5 -27.5 -62.5s-39.833 -22.5 -64.5 -22.5c-28 0 -50.5 7.5 -67.5 22.5s-25.5 35.833 -25.5 62.5v251c0 26.667 9 47.834 27 63.501s40 23.5 66 23.5c24.667 0 46.167 -7.33301 64.5 -22s27.5 -35.334 27.5 -62.001v-254zM487 333
c0 10.667 -3.5 19.833 -10.5 27.5s-17.167 11.5 -30.5 11.5c-15.333 0 -26.333 -4.16699 -33 -12.5s-10 -17.833 -10 -28.5v-248c0 -11.333 3.66699 -20.5 11 -27.5s18 -10.5 32 -10.5c13.333 0 23.5 4 30.5 12s10.5 17.667 10.5 29v247zM228 359.999
c0 -26.667 -9.16699 -47.5 -27.5 -62.5s-39.833 -22.5 -64.5 -22.5c-28 0 -50.5 7.5 -67.5 22.5s-25.5 35.833 -25.5 62.5v251c0 26.667 9 47.834 27 63.501s40 23.5 66 23.5c24.667 0 46.167 -7.33301 64.5 -22s27.5 -35.334 27.5 -62.001v-254zM177 611.999
c0 10.667 -3.5 19.833 -10.5 27.5s-17.167 11.5 -30.5 11.5c-15.333 0 -26.333 -4.16699 -33 -12.5s-10 -17.833 -10 -28.5v-248c0 -11.333 3.66699 -20.5 11 -27.5s18 -10.5 32 -10.5c13.333 0 23.5 4 30.5 12s10.5 17.667 10.5 29v247zM152 -17.002h-42l314 731h42z" />
    <glyph glyph-name="ampersand" unicode="&#x26;" horiz-adv-x="458" 
d="M212 701c32.667 0 59.3281 -5.16602 79.9951 -15.499s37 -27.166 49 -50.499l-55 -29c-7.33301 14 -17.166 24 -29.499 30s-26.5 9 -42.5 9c-12 0 -22.5 -2.66699 -31.5 -8s-16.167 -12.333 -21.5 -21s-9.33301 -18.334 -12 -29.001s-4 -21 -4 -31
c0 -35.333 13.667 -78 41 -128l147 -254c7.33301 18.667 12.833 37.667 16.5 57s6.16699 38.666 7.5 57.999h57c-1.33301 -26.667 -5.66602 -55.667 -12.999 -87s-17.333 -60 -30 -86l68 -116h-72l-37 63c-24 -29.333 -48.167 -48.166 -72.5 -56.499
s-48.833 -12.5 -73.5 -12.5c-19.333 0 -37.666 3.83301 -54.999 11.5s-32.5 18.834 -45.5 33.501s-23.333 32.667 -31 54s-11.5 45.666 -11.5 72.999c0 40.667 9.16699 77.667 27.5 111s44.5 66 78.5 98c-3.33301 7.33301 -7.66602 15.166 -12.999 23.499
s-9.66602 15.833 -12.999 22.5c-11.333 20.667 -20.333 43 -27 67s-10 47 -10 69c0 20 3 38.667 9 56s14.5 32.5 25.5 45.5s24.5 23.333 40.5 31s33.667 11.5 53 11.5zM176.994 325.001c-26.667 -27.333 -46 -53.666 -58 -78.999s-18 -51 -18 -77
c0 -16.667 2.16699 -32.167 6.5 -46.5s10.5 -27 18.5 -38s18.167 -19.667 30.5 -26s26.5 -9.5 42.5 -9.5c17.333 0 35.333 5.16699 54 15.5s35 25.166 49 44.499z" />
    <glyph glyph-name="quotesingle" unicode="'" horiz-adv-x="156" 
d="M55 514v182h48v-182h-48z" />
    <glyph glyph-name="parenleft" unicode="(" horiz-adv-x="213" 
d="M172 -112c-17.333 26 -33.8311 54.5 -49.498 85.5s-29.334 64 -41.001 99s-20.834 71.667 -27.501 110s-10 78.166 -10 119.499c0 80.667 12 156.334 36 227.001s54 133 90 187l30 -14c-15.333 -28 -29.166 -58 -41.499 -90s-22.833 -65 -31.5 -99
s-15.334 -68.5 -20.001 -103.5s-7 -69.5 -7 -103.5c0 -73.333 9 -144.833 27 -214.5s42 -132.167 72 -187.5l-27 -16v0z" />
    <glyph glyph-name="parenright" unicode=")" horiz-adv-x="213" 
d="M71 -112c-0.666992 0.666992 -2.16406 1.66602 -4.49707 2.99902s-5 3 -8 5s-5.83301 3.66699 -8.5 5s-4.33398 2.33301 -5.00098 3c30 55.333 54 117.833 72 187.5s27 141.167 27 214.5c0 34 -2.33301 68.333 -7 103s-11.334 69 -20.001 103s-19.167 67.167 -31.5 99.5
s-26.166 62.5 -41.499 90.5c2 0.666992 7 2.83398 15 6.50098s12.667 6.16699 14 7.5c36 -54 66.167 -116.333 90.5 -187s36.5 -146.667 36.5 -228c0 -40.667 -3.33301 -80.167 -10 -118.5s-15.834 -75 -27.501 -110s-25.334 -68 -41.001 -99s-32.5 -59.5 -50.5 -85.5z" />
    <glyph glyph-name="asterisk" unicode="*" horiz-adv-x="340" 
d="M270 443l-43 -28l-62 104l-62 -105l-42 29l75 96l-112 32l17 48l106 -45l-8 121h51l-8 -121l107 45l17 -48l-113 -32z" />
    <glyph glyph-name="plus" unicode="+" horiz-adv-x="367" 
d="M207 269v-161h-47v161h-148v49h148v160h47v-160h147v-49h-147z" />
    <glyph glyph-name="comma" unicode="," horiz-adv-x="164" 
d="M78 -107h-35l21 102h-17v76h70v-75z" />
    <glyph glyph-name="hyphen" unicode="-" horiz-adv-x="334" 
d="M49 259v55h247v-55h-247z" />
    <glyph glyph-name="period" unicode="." horiz-adv-x="164" 
d="M47 0v73h70v-73h-70z" />
    <glyph glyph-name="slash" unicode="/" horiz-adv-x="244" 
d="M54 -42h-48l186 767h48z" />
    <glyph glyph-name="zero" unicode="0" horiz-adv-x="367" 
d="M319 121c0 -21.333 -3.66895 -40.001 -11.002 -56.001s-17.166 -29.333 -29.499 -40s-26.666 -18.667 -42.999 -24s-33.5 -8 -51.5 -8s-35.167 2.66699 -51.5 8s-30.666 13.333 -42.999 24s-22.166 24 -29.499 40s-11 34.667 -11 56v452c0 20.667 3.66699 39.167 11 55.5
s17.166 29.833 29.499 40.5s26.666 18.834 42.999 24.501s33.5 8.5 51.5 8.5c38 0 70 -11 96 -33s39 -54 39 -96v-452zM256.998 574.999c0 21.333 -6.83301 38.166 -20.5 50.499s-31.167 18.5 -52.5 18.5c-22 0 -40 -6.16699 -54 -18.5s-21 -29.166 -21 -50.499v-456
c0 -21.333 7 -38.166 21 -50.499s32 -18.5 54 -18.5c21.333 0 38.833 6.16699 52.5 18.5s20.5 29.166 20.5 50.499v456z" />
    <glyph glyph-name="one" unicode="1" horiz-adv-x="367" 
d="M198 0v631l-104 -79v66l102 78h63v-696h-61z" />
    <glyph glyph-name="two" unicode="2" horiz-adv-x="367" 
d="M185 644c-23.333 0 -41.834 -9.16504 -55.501 -27.498s-20.5 -47.833 -20.5 -88.5l-60 11c0 52 11.333 92 34 120s57.334 42.333 104.001 43c48.667 0 83.5 -13.833 104.5 -41.5s31.5 -64.167 31.5 -109.5c0 -29.333 -2.83301 -56.5 -8.5 -81.5
s-15.167 -50.167 -28.5 -75.5l-168 -337h200v-57h-268v55l186 373c9.33301 19.333 15.5 39.166 18.5 59.499s4.5 41.5 4.5 63.5c0 11.333 -0.833008 22.666 -2.5 33.999s-5.16699 21.333 -10.5 30s-12.833 15.667 -22.5 21s-22.5 8 -38.5 8z" />
    <glyph glyph-name="three" unicode="3" horiz-adv-x="367" 
d="M317 135c0 -48 -12.501 -83.6699 -37.501 -107.003s-58.167 -35 -99.5 -35c-46 0 -80 12.833 -102 38.5s-32.333 62.5 -31 110.5l61 12c-1.33301 -32 3.5 -57.333 14.5 -76s30.833 -28 59.5 -28c21.333 0 39.166 6.33301 53.499 19s21.5 34 21.5 64v111
c0 32 -6.5 54.833 -19.5 68.5s-32.167 20.5 -57.5 20.5h-29v55h31c24 0 42.5 6.33301 55.5 19s19.5 34.334 19.5 65.001v94c0 10.667 -1.16699 20.667 -3.5 30s-6.33301 17.5 -12 24.5s-13 12.667 -22 17s-20.167 6.5 -33.5 6.5c-27.333 0 -47.166 -9.5 -59.499 -28.5
s-18.5 -43.5 -18.5 -73.5c-2 0.666992 -5.83301 1.33398 -11.5 2.00098s-12 1.5 -19 2.5s-13.333 2 -19 3s-9.5 1.5 -11.5 1.5c0.666992 22 4 42.167 10 60.5s15 34.166 27 47.499s26.833 23.833 44.5 31.5s38.167 11.5 61.5 11.5c24 0 44.167 -3.5 60.5 -10.5
s29.5 -16.667 39.5 -29s17.167 -26.833 21.5 -43.5s6.5 -34.667 6.5 -54v-81c0 -12.667 -0.666992 -25 -2 -37s-4.16602 -23.167 -8.49902 -33.5s-10.5 -19.833 -18.5 -28.5s-18.667 -16 -32 -22v-2c14 -5.33301 25 -12.166 33 -20.499s14.167 -18 18.5 -29
s7 -23.167 8 -36.5s1.5 -27.666 1.5 -42.999z" />
    <glyph glyph-name="four" unicode="4" horiz-adv-x="367" 
d="M291 115v-115h-62v115h-205v56l146 525h61l-147 -525h145v194h62v-194h53v-56h-53z" />
    <glyph glyph-name="five" unicode="5" horiz-adv-x="367" 
d="M183 -7c-46.667 0 -80.8301 13.333 -102.497 40s-33.167 64 -34.5 112l61 9c0 -31.333 5 -56.5 15 -75.5s30.667 -28.5 62 -28.5c21.333 0 38.666 6.33301 51.999 19s20.333 34.334 21 65.001l2 186c0 25.333 -6.5 43.666 -19.5 54.999s-30.5 17 -52.5 17
c-16.667 0 -31.334 -3.66699 -44.001 -11s-22 -17.333 -28 -30h-54v345h258v-55h-204v-228h4c10 10 22.667 17.667 38 23s31.666 8 48.999 8c38 0 66.5 -10.667 85.5 -32s28.5 -48.333 28.5 -81l-2 -195c-0.666992 -48 -13.167 -83.833 -37.5 -107.5
s-56.833 -35.5 -97.5 -35.5z" />
    <glyph glyph-name="six" unicode="6" horiz-adv-x="367" 
d="M257 276c0 20.667 -6.83398 36.833 -20.501 48.5s-31.167 17.5 -52.5 17.5c-13.333 0 -24.666 -2.5 -33.999 -7.5s-17 -11.5 -23 -19.5s-10.5 -17 -13.5 -27s-4.5 -20 -4.5 -30v-141c0 -21.333 7 -37.833 21 -49.5s32 -17.5 54 -17.5c21.333 0 38.833 5.83301 52.5 17.5
s20.5 28.167 20.5 49.5v159zM143.999 377.999c7.33301 6 16.3281 11 26.9951 15s21.334 6 32.001 6c40 0 69.333 -12 88 -36s28 -54 28 -90v-152c0 -21.333 -3.66699 -40 -11 -56s-17.166 -29.333 -29.499 -40s-26.666 -18.667 -42.999 -24s-33.5 -8 -51.5 -8
s-35.167 2.66699 -51.5 8s-30.666 13.333 -42.999 24s-22.166 24 -29.499 40s-11 34.667 -11 56v122c0 26.667 1.83301 49 5.5 67s8.16699 34 13.5 48l131 338h62l-40.5 -106l-37.5 -98.5l-28.5 -75c-7.66699 -20.333 -12.167 -32.5 -13.5 -36.5z" />
    <glyph glyph-name="seven" unicode="7" horiz-adv-x="367" 
d="M139 0h-60l181 641h-162v-84h-53v139h277v-51z" />
    <glyph glyph-name="eight" unicode="8" horiz-adv-x="367" 
d="M319 471c0 -26 -5.33301 -47.832 -16 -65.499s-24.334 -31.834 -41.001 -42.501c16.667 -10.667 30.334 -25 41.001 -43s16 -39.667 16 -65v-134c0 -21.333 -3.66699 -40 -11 -56s-17.166 -29.333 -29.499 -40s-26.666 -18.667 -42.999 -24s-33.5 -8 -51.5 -8
s-35.167 2.66699 -51.5 8s-30.666 13.333 -42.999 24s-22.166 24 -29.499 40s-11 34.667 -11 56v134c0 25.333 5 47 15 65s23.667 32.333 41 43c-17.333 10 -31 24 -41 42s-15 40 -15 66v102c0 20.667 3.66699 39.167 11 55.5s17.166 29.833 29.499 40.5
s26.666 18.834 42.999 24.501s33.5 8.5 51.5 8.5s35.167 -2.83301 51.5 -8.5s30.666 -13.834 42.999 -24.501s22.166 -24.167 29.499 -40.5s11 -34.833 11 -55.5v-102zM257 268.001c0 20.667 -6.83301 37.332 -20.5 49.999s-31.167 19.334 -52.5 20.001
c-22 0 -40 -6.5 -54 -19.5s-21 -29.833 -21 -50.5v-151c0 -21.333 7 -37.833 21 -49.5s32 -17.5 54 -17.5c21.333 0 38.833 5.83301 52.5 17.5s20.5 28.167 20.5 49.5v151zM257 576.999c0 21.333 -6.83301 38 -20.5 50s-31.167 18 -52.5 18c-22 0 -40 -6 -54 -18
s-21 -28.667 -21 -50v-118c0 -20.667 7 -37.167 21 -49.5s32 -18.5 54 -18.5c21.333 0 38.833 6.16699 52.5 18.5s20.5 28.833 20.5 49.5v118z" />
    <glyph glyph-name="nine" unicode="9" horiz-adv-x="367" 
d="M109 420c0 -20.667 6.99902 -37 20.999 -49s31.667 -18 53 -18c12.667 0 23.667 2.5 33 7.5s17 11.5 23 19.5s10.5 17.167 13.5 27.5s4.5 20.5 4.5 30.5v141c0 21.333 -6.83301 37.833 -20.5 49.5s-31.167 17.5 -52.5 17.5s-39.166 -5.83301 -53.499 -17.5
s-21.5 -28.167 -21.5 -49.5v-159zM221.999 318c-6.66699 -6 -15.332 -11 -25.999 -15s-21.667 -6 -33 -6c-40 0 -69 12 -87 36s-27 54 -27 90v152c0 21.333 3.66699 40 11 56s17.166 29.333 29.499 40s26.666 18.667 42.999 24s33.5 8 51.5 8
c40.667 0 73.334 -10.667 98.001 -32s37 -53.333 37 -96v-122c0 -26.667 -1.83301 -49 -5.5 -67s-8.16699 -34 -13.5 -48l-132 -338h-63l40.5 106l37.5 98.5l28.5 75c7.66699 20.333 12.167 32.5 13.5 36.5z" />
    <glyph glyph-name="colon" unicode=":" horiz-adv-x="164" 
d="M47 303v74h70v-74h-70zM47 0v73h70v-73h-70z" />
    <glyph glyph-name="semicolon" unicode=";" horiz-adv-x="164" 
d="M78 -107h-35l21 102h-17v76h70v-75zM47 303v73h70v-73h-70z" />
    <glyph glyph-name="less" unicode="&#x3c;" horiz-adv-x="367" 
d="M13 272v44l339 180v-53l-290 -149l290 -149v-53z" />
    <glyph glyph-name="equal" unicode="=" horiz-adv-x="367" 
d="M12 342v50h342v-50h-342zM12 193v51h342v-51h-342z" />
    <glyph glyph-name="greater" unicode="&#x3e;" horiz-adv-x="367" 
d="M14 92v53l291 149l-291 149v53l339 -180v-44z" />
    <glyph glyph-name="question" unicode="?" horiz-adv-x="357" 
d="M181 702c28 0 51.834 -3.83203 71.501 -11.499s35.5 -18.667 47.5 -33s20.833 -31.666 26.5 -51.999s8.5 -42.833 8.5 -67.5c0 -36 -5.83301 -68.667 -17.5 -98s-24.334 -56 -38.001 -80l-38 -65.5c-11.667 -19.667 -17.5 -38.167 -17.5 -55.5v-71h-60v80
c0 12.667 2 26.167 6 40.5s9.66699 27.166 17 38.499l39 65c10.667 17.333 19.5 33.333 26.5 48s12 29.167 15 43.5s4.5 31.166 4.5 50.499c0 32.667 -6.5 59.167 -19.5 79.5s-36.833 30.5 -71.5 30.5c-23.333 0 -43.666 -8.16699 -60.999 -24.5s-26.333 -42.5 -27 -78.5
l-62 8c1.33301 50 16.166 88 44.499 114s63.5 39 105.5 39zM162.001 0.000976562v64h63v-64h-63z" />
    <glyph glyph-name="at" unicode="@" horiz-adv-x="746" 
d="M477 260c0 -22 5.49512 -38.8311 16.4951 -50.498s23.833 -17.5 38.5 -17.5c13.333 0 26.333 2.5 39 7.5s23.834 14.333 33.501 28s17.334 33 23.001 58s8.5 57.5 8.5 97.5c0 42.667 -6.16699 81 -18.5 115s-29.5 62.5 -51.5 85.5s-48.167 40.667 -78.5 53
s-63.5 18.5 -99.5 18.5c-48 0 -89.667 -8.33301 -125 -25s-64.333 -39.334 -87 -68.001s-39.5 -62.5 -50.5 -101.5s-16.5 -80.833 -16.5 -125.5c0 -49.333 5.83301 -93.833 17.5 -133.5s29.334 -73.834 53.001 -102.501s53 -50.667 88 -66s75.833 -23 122.5 -23
c30.667 0 59.5 2.66699 86.5 8s54.5 16.333 82.5 33l19 -45c-28 -13.333 -57.5 -24 -88.5 -32s-62.5 -12 -94.5 -12c-52.667 0 -99.834 7.83301 -141.501 23.5s-77 39.167 -106 70.5s-51.167 70.333 -66.5 117s-23 100.667 -23 162c0 54.667 7.16699 104.667 21.5 150
s35.333 84.166 63 116.499s61.834 57.333 102.501 75s87.334 26.5 140.001 26.5c49.333 0 93 -8 131 -24s69.833 -38.167 95.5 -66.5s45 -62.166 58 -101.499s19.5 -82 19.5 -128s-4.5 -84.333 -13.5 -115s-20.833 -55.167 -35.5 -73.5s-31.5 -31.333 -50.5 -39
s-38.833 -11.5 -59.5 -11.5c-5.33301 0 -12.166 1 -20.499 3s-17 5.5 -26 10.5s-17.333 11.333 -25 19s-13.167 17.5 -16.5 29.5h-1c-10 -18.667 -24.833 -32.167 -44.5 -40.5s-38.834 -12.5 -57.501 -12.5c-17.333 0 -31.833 3.16699 -43.5 9.5
s-21.167 14.666 -28.5 24.999s-12.5 22.166 -15.5 35.499s-4.5 27 -4.5 41s1.83301 28.333 5.5 43s9.83398 28 18.501 40s20 21.833 34 29.5s31.333 11.5 52 11.5h67v52c0 17.333 -4.5 31.5 -13.5 42.5s-24.5 16.5 -46.5 16.5c-14 0 -26.5 -3.5 -37.5 -10.5
s-18.167 -17.167 -21.5 -30.5c-1.33301 0 -4.5 0.666992 -9.5 2s-10.167 2.83301 -15.5 4.5s-10.5 3.16699 -15.5 4.5s-8.16699 2.33301 -9.5 3c7.33301 22.667 20.833 40.834 40.5 54.501s43.167 20.5 70.5 20.5c16 0 30.667 -1.83301 44 -5.5s25 -9.66699 35 -18
s17.833 -19.166 23.5 -32.499s8.5 -30 8.5 -50v-181zM423.995 344.002h-55c-19.333 0 -36.166 -5.83301 -50.499 -17.5s-21.5 -32.167 -21.5 -61.5c0 -16.667 5.33301 -31.5 16 -44.5s26.667 -19.5 48 -19.5c19.333 0 34.666 6.33301 45.999 19s17 29 17 49v75z" />
    <glyph glyph-name="A" unicode="A" horiz-adv-x="386" 
d="M316 0l-37 168h-173l-36 -168h-58l150 696h62l153 -696h-61zM191 594l-33 -168l-42 -200h152l-42 202l-32 166h-3z" />
    <glyph glyph-name="B" unicode="B" horiz-adv-x="412" 
d="M289 365c30.667 -9.33301 51.833 -28.5 63.5 -57.5s17.5 -63.5 17.5 -103.5c0 -72.667 -15 -124.834 -45 -156.501s-74.333 -47.5 -133 -47.5h-139v696h146c30 0 55.5 -4 76.5 -12s38 -19.667 51 -35s22.333 -34.166 28 -56.499s8.5 -47.5 8.5 -75.5
c0 -36 -5.33301 -66 -16 -90s-30 -43.333 -58 -58v-4zM309.999 209c0 42 -8.16699 74.332 -24.5 96.999s-44.5 34 -84.5 34h-87v-284h82c24 0 43.5 4 58.5 12s26.5 19 34.5 33s13.5 30.333 16.5 49s4.5 38.334 4.5 59.001zM302.999 517.999c0 39.333 -8.66699 69.5 -26 90.5
s-47 31.5 -89 31.5h-74v-246h82c39.333 0 67 10.667 83 32s24 52 24 92z" />
    <glyph glyph-name="C" unicode="C" horiz-adv-x="384" 
d="M202 702c48.667 0 86.332 -13.5 112.999 -40.5s40 -64.833 40 -113.5l-62 -12c0.666992 36 -7 63.167 -23 81.5s-39 27.5 -69 27.5c-17.333 0 -31.833 -3.33301 -43.5 -10s-21.167 -15.5 -28.5 -26.5s-12.666 -23.5 -15.999 -37.5s-5 -28.333 -5 -43v-371
c0 -13.333 1.66699 -26.5 5 -39.5s8.66602 -24.5 15.999 -34.5s16.833 -18 28.5 -24s26.167 -9 43.5 -9c27.333 0 49.333 8.5 66 25.5s25.334 44.833 26.001 83.5l63 -11c-1.33301 -51.333 -15.833 -90 -43.5 -116s-64.5 -39 -110.5 -39
c-50.667 0 -89.167 13.833 -115.5 41.5s-39.5 67.5 -39.5 119.5v367c0 24.667 2.66699 48 8 70s14 41.167 26 57.5s27.833 29.333 47.5 39s44.167 14.5 73.5 14.5z" />
    <glyph glyph-name="D" unicode="D" horiz-adv-x="414" 
d="M209 696c42 0 74.833 -7.16602 98.5 -21.499s40.167 -38.5 49.5 -72.5c7.33301 -27.333 11 -61.833 11 -103.5v-149.5v-148.5c0 -41.667 -4 -75.167 -12 -100.5c-6 -20 -14.333 -36.333 -25 -49s-22.667 -22.834 -36 -30.501s-28 -13 -44 -16s-33 -4.5 -51 -4.5h-147v696
h156zM305 520.001c0 18 -1.66699 34.333 -5 49s-9 27.167 -17 37.5s-18.667 18.5 -32 24.5s-30 9 -50 9h-87v-584h88c36 0 62.167 10 78.5 30s24.5 50 24.5 90v344z" />
    <glyph glyph-name="E" unicode="E" horiz-adv-x="361" 
d="M53 0v696h291v-57h-230v-255h201v-57h-201v-271h230v-56h-291z" />
    <glyph glyph-name="F" unicode="F" horiz-adv-x="360" 
d="M53 0v696h291v-57h-230v-255h201v-57h-201v-327h-61z" />
    <glyph glyph-name="G" unicode="G" horiz-adv-x="405" 
d="M203 -7c-50 0 -88.334 13.6641 -115.001 40.9971s-40 67 -40 119v363c0 26.667 2.5 51.334 7.5 74.001s13.5 42.334 25.5 59.001s28 29.667 48 39s44.667 14 74 14c48.667 0 86 -12.833 112 -38.5s39.667 -63.167 41 -112.5l-61 -15v1
c0 36.667 -8.16699 63.834 -24.5 81.501s-39.166 26.5 -68.499 26.5c-17.333 0 -31.833 -3.33301 -43.5 -10s-21.167 -15.5 -28.5 -26.5s-12.666 -23.5 -15.999 -37.5s-5 -28.333 -5 -43v-372c0 -13.333 1.66699 -26.5 5 -39.5s8.66602 -24.5 15.999 -34.5
s16.833 -18 28.5 -24s26.167 -9 43.5 -9h1c28 0 51.333 8.16699 70 24.5s28 38.833 28 67.5v173h-84v54h145v-221c0 -25.333 -4.16699 -47.5 -12.5 -66.5s-19.833 -35 -34.5 -48s-31.5 -22.833 -50.5 -29.5s-39.5 -10 -61.5 -10z" />
    <glyph glyph-name="H" unicode="H" horiz-adv-x="420" 
d="M305 0v329h-191v-329h-61v696h61v-313h191v313h62v-696h-62z" />
    <glyph glyph-name="I" unicode="I" horiz-adv-x="183" 
d="M60 0v696h63v-696h-63z" />
    <glyph glyph-name="J" unicode="J" horiz-adv-x="338" 
d="M270 696l-0.000976562 -532.001c0 -55.333 -13.167 -97.666 -39.5 -126.999s-66.166 -44 -119.499 -44c-22.667 0 -44.5 4 -65.5 12s-37.833 20.667 -50.5 38l42 40c8.66699 -9.33301 20 -17.333 34 -24s27.667 -10 41 -10c27.333 0 50.333 8.66699 69 26s28 45 28 83
v538h61z" />
    <glyph glyph-name="K" unicode="K" horiz-adv-x="406" 
d="M335 0l-139 354l-83 -155v-199h-60v696h60v-382h2l194 382h63l-140 -275l167 -421h-64z" />
    <glyph glyph-name="L" unicode="L" horiz-adv-x="337" 
d="M53 0v696h61v-640h216v-56h-277z" />
    <glyph glyph-name="M" unicode="M" horiz-adv-x="548" 
d="M431 526c-3.33301 -8 -8 -19.833 -14 -35.5l-18.5 -49.5c-6.33301 -17.333 -12.666 -33.833 -18.999 -49.5s-10.833 -27.5 -13.5 -35.5c-0.666992 -2 -2.83398 -7.83301 -6.50098 -17.5l-13.5 -34.5l-17.5 -43l-17.5 -43l-14 -34.5c-4 -9.66699 -6.33301 -15.5 -7 -17.5
h-34l-15.5 39l-22 55l-22 55l-15.5 39l-64 170h-4v-524h-61v696h62l18 -46l25 -65.5l25 -65.5c8 -20.667 13.667 -36 17 -46l73 -194h3l15 41l21.5 57l22 57.5l15.5 41.5c0.666992 2 3.16699 8.66699 7.5 20l15.5 40l19.5 50l19 50l15 39.5
c4.33301 11 6.83301 17.833 7.5 20.5h63v-696h-61v526h-4z" />
    <glyph glyph-name="N" unicode="N" horiz-adv-x="441" 
d="M111 526l-0.000976562 -526h-61v696h58l17.5 -43l26 -62.5l30 -72l30 -72l26 -62.5c7.66699 -18.667 13.834 -33 18.501 -43l70 -174h4v529h61v-696h-58l-17.5 42.5l-26 62l-30 72l-30 71.5l-26.5 61.5c-8 18.333 -14 32.5 -18 42.5l-71 174h-3z" />
    <glyph glyph-name="O" unicode="O" horiz-adv-x="409" 
d="M363 172c0 -58.667 -13.165 -103.164 -39.498 -133.497s-66.166 -45.5 -119.499 -45.5s-92.833 14.333 -118.5 43s-38.5 68.667 -38.5 120v366c0 24.667 2.66699 48 8 70s14.166 41.167 26.499 57.5s28.666 29.166 48.999 38.499s45.166 14 74.499 14
c30 0 55.167 -4.16699 75.5 -12.5s36.5 -20.333 48.5 -36s20.667 -34.334 26 -56.001s8 -45.834 8 -72.501v-353zM301.002 534.003c0 14.667 -1.66895 28.6689 -5.00195 42.002s-8.66602 25.166 -15.999 35.499s-17.166 18.666 -29.499 24.999s-27.5 9.5 -45.5 9.5
c-19.333 0 -35.333 -4.16699 -48 -12.5s-22.667 -18.833 -30 -31.5s-12.5 -26.5 -15.5 -41.5s-4.5 -29.167 -4.5 -42.5v-363c0 -13.333 1.83301 -26.333 5.5 -39s9.33398 -24 17.001 -34s17.667 -18 30 -24s27.166 -9 44.499 -9c35.333 0 60.333 11.333 75 34s22 50 22 82
v369z" />
    <glyph glyph-name="P" unicode="P" horiz-adv-x="391" 
d="M192 696c34.667 0 63.499 -4.66992 86.499 -14.0029s41 -22.833 54 -40.5s22.167 -39 27.5 -64s8 -52.833 8 -83.5c0 -29.333 -2.66699 -56.666 -8 -81.999s-14.666 -47.166 -27.999 -65.499s-31.833 -32.666 -55.5 -42.999s-53.5 -15.5 -89.5 -15.5h-73v-288h-61v696
h139zM113.999 344.997h70.001c25.333 0 46 3.5 62 10.5s28.667 17 38 30s15.666 28.667 18.999 47s5 38.5 5 60.5c0 20.667 -1.5 40 -4.5 58s-9 33.5 -18 46.5s-21.5 23.333 -37.5 31s-36.667 11.5 -62 11.5h-72v-295z" />
    <glyph glyph-name="Q" unicode="Q" horiz-adv-x="408" 
d="M363 172c0 -42 -6.99707 -76.9971 -20.9971 -104.997l59 -46l-32 -39l-58 45c-24.667 -22.667 -60 -34 -106 -34c-53.333 0 -93 14.333 -119 43s-39 68.667 -39 120v366c0 24.667 2.66699 48 8 70s14.166 41.167 26.499 57.5s28.666 29.166 48.999 38.499
s45.166 14 74.499 14c30 0 55.167 -4.16699 75.5 -12.5s36.5 -20.333 48.5 -36s20.667 -34.334 26 -56.001s8 -45.834 8 -72.501v-353zM301.003 534.003c0 14.667 -1.66895 28.6689 -5.00195 42.002s-8.66602 25.166 -15.999 35.499s-17.166 18.666 -29.499 24.999
s-27.5 9.5 -45.5 9.5c-19.333 0 -35.333 -4.16699 -48 -12.5s-22.667 -18.833 -30 -31.5s-12.5 -26.5 -15.5 -41.5s-4.5 -29.167 -4.5 -42.5v-363c0 -13.333 1.83301 -26.333 5.5 -39s9.33398 -24 17.001 -34s17.667 -18 30 -24s27.166 -9 44.499 -9
c25.333 0 45 5.66699 59 17l-63 50l31 38l60 -47c3.33301 8 5.83301 17 7.5 27s2.5 20.333 2.5 31v369z" />
    <glyph glyph-name="R" unicode="R" horiz-adv-x="406" 
d="M196 696c61.333 0 104.999 -16.3311 130.999 -48.998s39 -80.334 39 -143.001c0 -41.333 -7.16699 -77.833 -21.5 -109.5s-40.166 -54.834 -77.499 -69.501l54 -163l54 -162h-63l-102 312h-97v-312h-61v696h144zM112.999 640.002l-0.000976562 -273.001h77
c42.667 0 72.5 11.5 89.5 34.5s25.5 57.167 25.5 102.5c0 20.667 -1.83301 39.334 -5.5 56.001s-10 31 -19 43s-21.167 21.167 -36.5 27.5s-34.666 9.5 -57.999 9.5h-73z" />
    <glyph glyph-name="S" unicode="S" horiz-adv-x="386" 
d="M354 186c0 -29.333 -2.66602 -55.8301 -7.99902 -79.4971s-14.333 -43.834 -27 -60.501s-29.334 -29.667 -50.001 -39s-46 -14 -76 -14c-28 0 -52 4 -72 12s-36.5 18.833 -49.5 32.5s-22.667 29.834 -29 48.501s-9.5 39 -9.5 61l62 13c0 -14 1.66699 -27.5 5 -40.5
s8.83301 -24.5 16.5 -34.5s17.667 -18 30 -24s27.833 -9 46.5 -9c22.667 0 40.5 3.66699 53.5 11s22.833 17 29.5 29s11 26 13 42s3 33 3 51c0 22 -1 40.167 -3 54.5s-6.66699 26.666 -14 36.999s-17.833 19.833 -31.5 28.5s-32.167 18 -55.5 28
c-33.333 14.667 -59.833 29 -79.5 43s-34.667 28.5 -45 43.5s-17.166 31 -20.499 48s-5 35.5 -5 55.5c0 26 3.16699 50 9.5 72s16.166 40.833 29.499 56.5s30 28 50 37s43.667 13.5 71 13.5c30 0 55 -4.5 75 -13.5s36 -20.833 48 -35.5s20.5 -30.834 25.5 -48.501
s7.5 -34.834 7.5 -51.501l-62 -15c0 31.333 -7.16699 56.833 -21.5 76.5s-39.5 29.5 -75.5 29.5c-20 0 -36.167 -3.83301 -48.5 -11.5s-22 -17.334 -29 -29.001s-11.667 -24.5 -14 -38.5s-3.5 -27.667 -3.5 -41c0 -15.333 1.33301 -29 4 -41s8.16699 -23.333 16.5 -34
s20.5 -21 36.5 -31s37.667 -20.667 65 -32c30 -12 53.667 -24.5 71 -37.5s30.5 -27.333 39.5 -43s14.833 -33.167 17.5 -52.5s4 -41.666 4 -66.999z" />
    <glyph glyph-name="T" unicode="T" horiz-adv-x="320" 
d="M191 640v-640h-63v640h-125v56h313v-56h-125z" />
    <glyph glyph-name="U" unicode="U" horiz-adv-x="407" 
d="M361 695v-523c0 -58.667 -13 -103.167 -39 -133.5s-65.667 -45.5 -119 -45.5c-52.667 0 -92.167 14.333 -118.5 43s-39.5 68.667 -39.5 120v539h61v-540c0 -13.333 1.83301 -26.333 5.5 -39s9.33398 -24 17.001 -34s17.667 -18 30 -24s27.166 -9 44.499 -9
c35.333 0 60.333 11.333 75 34s22 50 22 82v530h61z" />
    <glyph glyph-name="V" unicode="V" horiz-adv-x="387" 
d="M226 -1h-70l-138 697h62l71 -368l39 -234h3l40 235l72 367h63z" />
    <glyph glyph-name="W" unicode="W" horiz-adv-x="581" 
d="M454 -1h-63l-68 368l-32 186h-3l-31 -189l-68 -365h-62l-109 697h63l51 -347l28 -227h3l35 225l64 349h58l62 -349l37 -225h3l27 226l51 348h63z" />
    <glyph glyph-name="X" unicode="X" horiz-adv-x="362" 
d="M289 -1l-108 294l-109 -294h-64l141 361l-134 336h65l101 -275l100 275h66l-137 -336l144 -361h-65z" />
    <glyph glyph-name="Y" unicode="Y" horiz-adv-x="363" 
d="M182 375l44 140l60 181h64l-17 -48.5l-24.5 -71l-28.5 -82l-28.5 -81.5l-24 -71c-7 -21.333 -12.5 -37.333 -16.5 -48v-295h-61v295c-4 10.667 -9.5 26.667 -16.5 48l-24 71l-28.5 81.5l-28.5 82l-24.5 71l-17 48.5h64l60 -183l9 -28l13 -41l13 -41l9 -28h3z" />
    <glyph glyph-name="Z" unicode="Z" horiz-adv-x="313" 
d="M296 640l-218 -584h212v-56h-274v56l218 584h-204v56h266v-56z" />
    <glyph glyph-name="bracketleft" unicode="[" horiz-adv-x="204" 
d="M63 -104v801h125v-41h-71v-720h71v-40h-125z" />
    <glyph glyph-name="backslash" unicode="\" horiz-adv-x="213" 
d="M155 -18l-145 727h48l144 -727h-47z" />
    <glyph glyph-name="bracketright" unicode="]" horiz-adv-x="204" 
d="M30 -105v41h71v720h-71v41h124v-802h-124z" />
    <glyph glyph-name="asciicircum" unicode="^" horiz-adv-x="367" 
d="M163 693h44l153 -337h-52l-124 282l-123 -282h-51z" />
    <glyph glyph-name="underscore" unicode="_" horiz-adv-x="500" 
d="M0 -126v50h500v-50h-500z" />
    <glyph glyph-name="grave" unicode="`" horiz-adv-x="350" 
d="M189 556l-92 152l58 21l68 -159z" />
    <glyph glyph-name="a" unicode="a" horiz-adv-x="352" 
d="M37 405c8.66699 28.667 24.6699 51.3311 48.0029 67.998s53 25 89 25c43.333 0 76.833 -9.83301 100.5 -29.5s35.5 -54.167 35.5 -103.5v-365h-62v44h-1c-14.667 -20.667 -31.167 -34.167 -49.5 -40.5s-37.833 -9.5 -58.5 -9.5c-21.333 0 -39.166 4 -53.499 12
s-26 18.5 -35 31.5s-15.5 27.833 -19.5 44.5s-6 34 -6 52c0 18.667 2 37.334 6 56.001s11.333 35.5 22 50.5s24.667 27.333 42 37s39.666 14.5 66.999 14.5h87v72c0 23.333 -5.33301 42 -16 56s-31.334 21 -62.001 21c-14.667 0 -29.834 -4.16699 -45.501 -12.5
s-25.834 -22.166 -30.501 -41.499zM176.003 237.997c-25.333 0 -46.834 -7.5 -64.501 -22.5s-26.5 -41.167 -26.5 -78.5c0 -25.333 5.83301 -45.833 17.5 -61.5s31.5 -23.5 59.5 -23.5c26.667 0 47.834 7.33301 63.501 22s23.5 36 23.5 64v100h-73z" />
    <glyph glyph-name="b" unicode="b" horiz-adv-x="358" 
d="M182 52c18 0 33.1699 3.83105 45.5029 11.498s21.5 20.834 27.5 39.501c4 13.333 6.5 31.333 7.5 54s1.5 49.667 1.5 81c0 34.667 -0.5 66.334 -1.5 95.001s-4.5 50 -10.5 64c-10.667 27.333 -33.334 41 -68.001 41c-16 0 -29.333 -3.33301 -40 -10
s-19.334 -15.334 -26.001 -26.001s-11.334 -22.667 -14.001 -36s-4 -26.666 -4 -39.999v-182c0 -27.333 7.33301 -49.5 22 -66.5s34.667 -25.5 60 -25.5zM201.003 -6.00195c-26.667 0 -47.001 4.16797 -61.001 12.501s-26.667 20.166 -38 35.499h-2v-42h-60v726h60v-287h2
c10.667 19.333 25.834 33.833 45.501 43.5s38.834 14.5 57.501 14.5c30 -0.666992 52.833 -6.5 68.5 -17.5s27.5 -25.833 35.5 -44.5c7.33301 -17.333 11.833 -37.833 13.5 -61.5s2.83398 -49.5 3.50098 -77.5v-70c0 -37.333 -2 -75.333 -6 -114
c-2.66699 -25.333 -8.33398 -45.833 -17.001 -61.5s-18.834 -27.667 -30.501 -36s-24 -13.833 -37 -16.5s-24.5 -4 -34.5 -4z" />
    <glyph glyph-name="c" unicode="c" horiz-adv-x="332" 
d="M178 498c46 0 79.665 -12 100.998 -36s32 -57.667 32 -101l-63 -9v1c2.66699 26 -2.83301 47.5 -16.5 64.5s-32.5 25.5 -56.5 25.5c-15.333 0 -29.166 -3.66699 -41.499 -11s-21.833 -19.333 -28.5 -36c-5.33301 -12.667 -8.5 -33.667 -9.5 -63s-1.83301 -64 -2.5 -104
l2 -75c0.666992 -24 2.66699 -42 6 -54c5.33301 -16 14 -28.667 26 -38s27.667 -14 47 -14c24 0 42.5 7.33301 55.5 22s19.167 37 18.5 67l63 -11c-2 -88.667 -48.667 -133 -140 -133c-20 0 -37.5 2.5 -52.5 7.5s-27.667 11.833 -38 20.5s-18.666 18.334 -24.999 29.001
s-10.833 22 -13.5 34c-2 8 -3.66699 18.167 -5 30.5s-2.16602 25.666 -2.49902 39.999l-1 43.5c-0.333008 14.667 -0.5 28.667 -0.5 42c0 17.333 0.166992 35 0.5 53s1.16602 35 2.49902 51s2.83301 30.5 4.5 43.5s4.16699 23.5 7.5 31.5c8.66699 24 23.5 43.167 44.5 57.5
s49.5 21.5 85.5 21.5z" />
    <glyph glyph-name="d" unicode="d" horiz-adv-x="359" 
d="M173 52c26 0 46.3301 8.5 60.9971 25.5s22 39.167 22 66.5v199c0 26.667 -6.66699 49.167 -20 67.5s-34 27.5 -62 27.5c-18 0 -33.167 -4.66699 -45.5 -14s-21.166 -23.666 -26.499 -42.999c-3.33301 -14 -5.66602 -33.833 -6.99902 -59.5s-2 -53.5 -2 -83.5
c0 -31.333 0.5 -58.333 1.5 -81s3.5 -40.667 7.5 -54c5.33301 -18.667 13.833 -31.834 25.5 -39.501s26.834 -11.5 45.501 -11.5zM154.997 -6c-10.667 0 -22.4971 1.33105 -35.4971 3.99805s-25.167 8.16699 -36.5 16.5s-21.5 20.333 -30.5 36s-14.833 36.167 -17.5 61.5
c-2 20.667 -3.16699 41.334 -3.5 62.001s-0.5 40.667 -0.5 60c0 40 0.666992 75.833 2 107.5s6 58.5 14 80.5s20.667 40.167 38 54.5s42.666 21.5 75.999 21.5c23.333 0 42.666 -5 57.999 -15s26.666 -21.333 33.999 -34h2v277h61v-726h-61v42h-2
c-10.667 -15.333 -23.167 -27.166 -37.5 -35.499s-34.5 -12.5 -60.5 -12.5z" />
    <glyph glyph-name="e" unicode="e" horiz-adv-x="350" 
d="M178 498c40 0 71.165 -9.83105 93.498 -29.498s35.5 -47.5 39.5 -83.5c0.666992 -7.33301 1.16699 -14.666 1.5 -21.999s0.5 -14.666 0.5 -21.999v-110h-220c0 -6.66699 0.166992 -13 0.5 -19s0.5 -12.333 0.5 -19c0 -17.333 0.5 -35 1.5 -53s3.16699 -31.667 6.5 -41
c10.667 -33.333 34.667 -50 72 -50c25.333 0 44 7.5 56 22.5s18.667 34.833 20 59.5l62 -12c-3.33301 -40.667 -16.833 -71.834 -40.5 -93.501s-57.167 -32.5 -100.5 -32.5c-20.667 0 -38.5 2.66699 -53.5 8s-27.667 12.166 -38 20.499s-18.666 18 -24.999 29
s-10.833 22.167 -13.5 33.5c-2 8 -3.66699 18.167 -5 30.5s-2.16602 25.666 -2.49902 39.999l-1 43.5c-0.333008 14.667 -0.5 28.667 -0.5 42c0 17.333 0.166992 34.666 0.5 51.999s1.16602 34 2.49902 50s2.83301 30.5 4.5 43.5s4.16699 23.833 7.5 32.5
c9.33301 24.667 24.333 44.167 45 58.5s49.334 21.5 86.001 21.5zM103.998 395.002c-4 -10.667 -6.49805 -25.5 -7.49805 -44.5s-1.83301 -42.167 -2.5 -69.5h158v52c0 14 -0.833008 27.5 -2.5 40.5s-5.33398 24.5 -11.001 34.5s-13.5 18 -23.5 24s-23.333 9 -40 9
c-14.667 0 -28.334 -3.33301 -41.001 -10s-22.667 -18.667 -30 -36z" />
    <glyph glyph-name="f" unicode="f" horiz-adv-x="222" 
d="M126 439v-439.001h-63v439h-52v52h52v123c0 38.667 10.167 67 30.5 85s46.5 27 78.5 27h36v-57h-26c-20 0 -34.333 -5.66699 -43 -17s-13 -25.666 -13 -42.999v-118h80v-52h-80z" />
    <glyph glyph-name="g" unicode="g" horiz-adv-x="363" 
d="M158 498c26.667 0 47.0029 -4.33496 61.0029 -13.002s26.667 -20.667 38 -36h2v42h60v-525c0 -22.667 -2 -44 -6 -64s-11.167 -37.5 -21.5 -52.5s-24.833 -27 -43.5 -36s-42.334 -13.5 -71.001 -13.5c-40 0 -71.833 10.5 -95.5 31.5s-36.167 51.5 -37.5 91.5l61 11
c0.666992 -23.333 7 -42.166 19 -56.499s31 -21.5 57 -21.5s45.5 9 58.5 27s19.5 39 19.5 63v106h-2c-10.667 -19.333 -25.834 -33.666 -45.501 -42.999s-38.834 -14 -57.501 -14c-30 0 -53 6 -69 18s-28 27.667 -36 47c-7.33301 18 -11.833 39.833 -13.5 65.5
s-2.5 52.5 -2.5 80.5v48c0 20 0.166992 40.167 0.5 60.5s1.5 41.833 3.5 64.5c2.66699 25.333 8.5 45.833 17.5 61.5s19.5 27.667 31.5 36s24.5 14 37.5 17s24.5 4.5 34.5 4.5zM176.003 438.998c-17.333 0 -32.1699 -3.83105 -44.5029 -11.498s-21.5 -20.834 -27.5 -39.501
c-4 -13.333 -6.5 -31.333 -7.5 -54s-1.5 -49.667 -1.5 -81c0 -34.667 0.5 -66.334 1.5 -95.001s4.5 -50 10.5 -64c10.667 -27.333 33.334 -41 68.001 -41c16 0 29.333 3.33301 40 10s19.334 15.334 26.001 26.001s11.334 22.667 14.001 36s4 26.666 4 39.999v182
c0 27.333 -7.33301 49.5 -22 66.5s-35 25.5 -61 25.5z" />
    <glyph glyph-name="h" unicode="h" horiz-adv-x="364" 
d="M102 440h2.00293c11.333 18.667 26.166 33 44.499 43s38.5 15 60.5 15c20.667 0 38.167 -3.33301 52.5 -10s26.166 -15.667 35.499 -27s16.166 -25 20.499 -41s6.5 -33.333 6.5 -52v-368h-63v350c0 25.333 -5.83301 46 -17.5 62s-31.5 24 -59.5 24
c-26.667 0 -47.167 -8.83301 -61.5 -26.5s-21.5 -39.167 -21.5 -64.5v-345h-61v726h62v-286z" />
    <glyph glyph-name="i" unicode="i" horiz-adv-x="163" 
d="M49 612v64h63v-64h-63zM49 0v492h62v-492h-62z" />
    <glyph glyph-name="j" unicode="j" horiz-adv-x="163" 
d="M51 613v64h63v-64h-63zM113 -71c0 -18 -1.50098 -34.8311 -4.50098 -50.498s-8.5 -29.334 -16.5 -41.001s-19 -20.834 -33 -27.501s-32 -10 -54 -10h-22v56h11c24.667 0 40.334 7.33301 47.001 22s10 35.667 10 63v551h62v-563z" />
    <glyph glyph-name="k" unicode="k" horiz-adv-x="360" 
d="M104 229l33.5 54l46.5 76.5l46 77l33 54.5h69l-114 -186l28 -62l40.5 -90.5l41 -90.5l28.5 -62h-67l-14 31l-19.5 44l-22 50.5l-22 50.5l-19 44l-13.5 31c-4 -6 -9.5 -14.833 -16.5 -26.5l-21.5 -37l-21.5 -37.5c-7 -12 -12.5 -21 -16.5 -27v-123h-61v726h61v-497h1z" />
    <glyph glyph-name="l" unicode="l" horiz-adv-x="189" 
d="M49 726h60.999v-603c0 -24 3.5 -42.333 10.5 -55s21.833 -19 44.5 -19h12v-56h-15c-18.667 0 -35.167 1.83301 -49.5 5.5s-26.166 10 -35.499 19s-16.333 21 -21 36s-7 34.167 -7 57.5v615z" />
    <glyph glyph-name="m" unicode="m" horiz-adv-x="582" 
d="M535 0l-61.998 0.00195312v350c0 23.333 -5.5 43.5 -16.5 60.5s-30.167 25.5 -57.5 25.5c-23.333 0 -42 -8.5 -56 -25.5s-21.333 -38.167 -22 -63.5v-347h-61v350c0 23.333 -5.33301 43.5 -16 60.5s-29.334 25.5 -56.001 25.5c-26 0 -46 -9.16699 -60 -27.5
s-21 -40.5 -21 -66.5v-342h-60v492h61v-52h3c11.333 18.667 24.666 33 39.999 43s34.333 15 57 15c26.667 0 48.167 -5.66699 64.5 -17s28.5 -26.666 36.5 -45.999c12.667 19.333 28.5 34.833 47.5 46.5s40.5 17.167 64.5 16.5c20 0 37.333 -3.33301 52 -10
s26.5 -15.834 35.5 -27.501s15.667 -25.334 20 -41.001s6.5 -32.834 6.5 -51.501v-368z" />
    <glyph glyph-name="n" unicode="n" horiz-adv-x="362" 
d="M100 440h2.00293c11.333 18.667 26.166 33 44.499 43s38.5 15 60.5 15c20.667 0 38.167 -3.33301 52.5 -10s26.166 -15.667 35.499 -27s16.166 -25 20.499 -41s6.5 -33.333 6.5 -52v-368h-63v350c0 25.333 -5.33301 46 -16 62s-30 24 -58 24
c-27.333 0 -48.5 -9.16699 -63.5 -27.5s-22.5 -40.5 -22.5 -66.5v-342h-61v492h62v-52z" />
    <glyph glyph-name="o" unicode="o" horiz-adv-x="356" 
d="M180 498c37.333 0 66.1689 -7.33105 86.502 -21.998s34.5 -33 42.5 -55c6 -17.333 9.83301 -39.333 11.5 -66s2.5 -53.334 2.5 -80.001v-49c0 -18 -0.333008 -35.833 -1 -53.5s-2 -36.5 -4 -56.5c-2.66699 -24.667 -8.83398 -45 -18.501 -61s-21.334 -28.5 -35.001 -37.5
s-28.5 -15.333 -44.5 -19s-31.667 -5.5 -47 -5.5c-40.667 0 -71 8.83301 -91 26.5s-33.333 39.167 -40 64.5c-2 8 -3.66699 18.167 -5 30.5s-2.33301 25.666 -3 39.999s-1 28.833 -1 43.5v42c0 17.333 0.166992 34.833 0.5 52.5s1.16602 34.5 2.49902 50.5
s2.83301 30.5 4.5 43.5s4.16699 23.5 7.5 31.5c8.66699 24 23.834 43.333 45.501 58s50.5 22 86.5 22zM179.003 443.002c-15.333 0 -29.6709 -3.33301 -43.0039 -10s-23.666 -18.667 -30.999 -36c-4.66699 -12 -7.66699 -30.333 -9 -55s-2 -54 -2 -88v-32
c0 -27.333 0.333008 -51.666 1 -72.999s3 -37.666 7 -48.999c10 -34 35.667 -51 77 -51c19.333 0 35.833 5.66699 49.5 17s22.834 26.666 27.501 45.999c2 12 3.66699 29.667 5 53s2 47.666 2 72.999c0 14 -0.166992 28.667 -0.5 44l-1 44
c-0.333008 14 -1.16602 26.667 -2.49902 38s-3 20 -5 26c-5.33301 17.333 -14.666 30.5 -27.999 39.5s-29 13.5 -47 13.5z" />
    <glyph glyph-name="p" unicode="p" horiz-adv-x="357" 
d="M178 439c-26 0 -46.334 -8.50098 -61.001 -25.501s-22 -39.167 -22 -66.5v-199c0 -26.667 6.5 -49.167 19.5 -67.5s33.5 -27.5 61.5 -27.5c38.667 0 63 19 73 57c3.33301 14 5.5 33.833 6.5 59.5s1.5 53.5 1.5 83.5c0 31.333 -0.5 58.333 -1.5 81s-3.5 40.667 -7.5 54
c-5.33301 18.667 -13.666 31.834 -24.999 39.501s-26.333 11.5 -45 11.5zM195.999 497.999c10.667 0 22.5 -1.50098 35.5 -4.50098s25.167 -8.66699 36.5 -17s21.5 -20.333 30.5 -36s14.833 -36.167 17.5 -61.5c2 -20.667 3 -41.5 3 -62.5v-66.5
c0 -36.667 -0.666992 -70.5 -2 -101.5s-6 -57.5 -14 -79.5s-20.5 -40 -37.5 -54s-42.167 -21 -75.5 -21c-23.333 0 -42.833 4.83301 -58.5 14.5s-27.167 20.834 -34.5 33.501h-2v-235h-60v684h60v-42h2c11.333 15.333 24 27.333 38 36s34.333 13 61 13z" />
    <glyph glyph-name="q" unicode="q" horiz-adv-x="362" 
d="M176 439c-17.333 0 -32.168 -3.83105 -44.501 -11.498s-21.5 -20.834 -27.5 -39.501c-4 -13.333 -6.5 -31.333 -7.5 -54s-1.5 -49.667 -1.5 -81c0 -34.667 0.666992 -66.334 2 -95.001s4.66602 -50 9.99902 -64c12 -27.333 34.667 -41 68 -41c16 0 29.333 3.33301 40 10
s19.334 15.334 26.001 26.001s11.334 22.667 14.001 36s4 26.666 4 39.999v182c0 27.333 -7.33301 49.5 -22 66.5s-35 25.5 -61 25.5zM157.998 498.002c26.667 0 47.001 -4.33203 61.001 -12.999s26.667 -20.667 38 -36h2v42h60v-686h-60v247h-2
c-10.667 -19.333 -25.834 -33.666 -45.501 -42.999s-38.834 -14 -57.501 -14c-32 0 -56.167 6.83301 -72.5 20.5s-28.166 31.5 -35.499 53.5c-5.33301 17.333 -8.83301 38.166 -10.5 62.499s-2.5 49.166 -2.5 74.499v76c0 15.333 0.166992 30.833 0.5 46.5
s1.5 32.5 3.5 50.5c2.66699 25.333 8.5 45.833 17.5 61.5s19.5 27.667 31.5 36s24.5 14 37.5 17s24.5 4.5 34.5 4.5z" />
    <glyph glyph-name="r" unicode="r" horiz-adv-x="246" 
d="M116 430c11.333 26 25.668 44 43.001 54s38.666 15 63.999 15h7.5c3 0 5.5 -0.333008 7.5 -1v-72c-4.66699 0.666992 -9.16699 1.16699 -13.5 1.5s-8.83301 0.5 -13.5 0.5c-30.667 0 -54.5 -9.16699 -71.5 -27.5s-25.5 -46.5 -25.5 -84.5v-316h-62v492h62v-62h2z" />
    <glyph glyph-name="s" unicode="s" horiz-adv-x="331" 
d="M90 133c-0.666992 -25.333 5.66895 -45.665 19.002 -60.998s32 -22.666 56 -21.999c29.333 0 49.5 7 60.5 21s16.5 34.667 16.5 62c0 12.667 -1 23.667 -3 33s-6 17.666 -12 24.999s-14.333 14 -25 20s-24.667 12.333 -42 19c-26 10 -47.167 20.167 -63.5 30.5
s-29 21.166 -38 32.499s-15.167 23.333 -18.5 36s-5 26 -5 40c0 38 11 69.167 33 93.5s56 36.5 102 36.5s80 -11.5 102 -34.5s33 -55.167 33 -96.5l-64 -9c1.33301 28 -4.83398 48.833 -18.501 62.5s-31.5 20.5 -53.5 20.5c-14.667 0 -26.834 -2.16699 -36.501 -6.5
s-17.167 -10 -22.5 -17s-9.16602 -14.833 -11.499 -23.5s-3.5 -17.334 -3.5 -26.001c0 -9.33301 1.16699 -17.833 3.5 -25.5s7 -15 14 -22s16.667 -13.833 29 -20.5s28.5 -13.334 48.5 -20.001c24.667 -9.33301 44.5 -19 59.5 -29s26.333 -21 34 -33s12.667 -25 15 -39
s3.5 -29.333 3.5 -46c0 -41.333 -10.333 -75.166 -31 -101.499s-55.334 -39.5 -104.001 -39.5c-90.667 0 -137 43.333 -139 130z" />
    <glyph glyph-name="t" unicode="t" horiz-adv-x="225" 
d="M130 492h69v-49h-69v-318c0 -24.667 4.66699 -42.167 14 -52.5s24 -15.5 44 -15.5h13v-57h-30c-38 0 -64.667 10.667 -80 32s-23 47.333 -23 78v333h-54v49h55v127h61v-127z" />
    <glyph glyph-name="u" unicode="u" horiz-adv-x="364" 
d="M261 52l-3.00195 -0.000976562c-11.333 -18.667 -26 -32.834 -44 -42.501s-38 -14.5 -60 -14.5c-20.667 0 -38.167 3.16699 -52.5 9.5s-26.166 15.333 -35.499 27s-16.166 25.334 -20.499 41.001s-6.5 32.834 -6.5 51.501v369h63v-351c0 -28 5.5 -49.667 16.5 -65
s30.5 -23 58.5 -23c25.333 0 45.833 9.16699 61.5 27.5s23.5 40.5 23.5 66.5v345h61v-492h-62v51z" />
    <glyph glyph-name="v" unicode="v" horiz-adv-x="324" 
d="M196 0l-70.002 -0.000976562l-121 492h65c2 -9.33301 5.33301 -23.666 10 -42.999s9.33398 -39.833 14.001 -61.5l14 -62l10 -42.5c2 -8.66699 5 -22.5 9 -41.5l12.5 -60l12.5 -60c4 -19 7 -32.833 9 -41.5h3c2 8.66699 4.83301 22.5 8.5 41.5s7.83398 39.333 12.501 61
l13 61c4 19 7 32.833 9 41.5l9.5 42l13.5 61l13.5 61l9.5 43h65z" />
    <glyph glyph-name="w" unicode="w" horiz-adv-x="538" 
d="M267 373l-46 -214l-36 -159h-62l-113 491h64l15.5 -75l20.5 -99l13.5 -64.5l12.5 -61.5l11 -54l8 -41h3c4.66699 25.333 11.167 58.5 19.5 99.5l25.5 124.5l36 171h63l33 -163l23.5 -117.5l23.5 -116.5h3l36 182l10 50l12 59l12 58l10 48h64l-57 -245.5l-56 -245.5h-63
l-34 148l-25 112.5l-24 112.5h-3z" />
    <glyph glyph-name="x" unicode="x" horiz-adv-x="314" 
d="M240 0l-82 198l-85 -198h-67l119 252l-114 240h69l78 -187l76 187h71l-112 -240l116 -252h-69z" />
    <glyph glyph-name="y" unicode="y" horiz-adv-x="326" 
d="M167 92l22.002 100.5l22 100.5l48 198h62l-148 -577c-4 -14.667 -8.83301 -28.667 -14.5 -42s-12.834 -25 -21.501 -35s-19.334 -18 -32.001 -24s-28 -9 -46 -9h-23v53h16c20 0 35 7 45 21s18.333 36 25 66l14 55l-131 492h65c9.33301 -36 18 -71.833 26 -107.5
l25 -107.5l11 -46.5l12 -51l11.5 -48.5c3.66699 -15.333 6.5 -28 8.5 -38h3z" />
    <glyph glyph-name="z" unicode="z" horiz-adv-x="294" 
d="M275 437l-190 -380h188v-57h-254v57l189 380h-173v54h240v-54z" />
    <glyph glyph-name="braceleft" unicode="{" horiz-adv-x="222" 
d="M88 138c0 39.333 -4 71 -12 95s-25.333 38.667 -52 44v38c12.667 2.66699 23.167 8 31.5 16s15 18 20 30s8.33301 25.333 10 40s2.5 29.667 2.5 45v144c0 34 8.66699 60.333 26 79s41 28 71 28h20v-41h-17c-10 0 -18.167 -2.83301 -24.5 -8.5s-11.166 -13 -14.499 -22
s-5.66602 -18.833 -6.99902 -29.5s-2 -21 -2 -31v-130c0 -21.333 -2 -40 -6 -56s-9 -29.667 -15 -41s-12.5 -20.333 -19.5 -27s-13.5 -11 -19.5 -13v-3c6.66699 -2 13.5 -6.33301 20.5 -13s13.5 -15.5 19.5 -26.5s10.833 -24.167 14.5 -39.5s5.5 -33 5.5 -53v-138
c0 -10 0.666992 -20.167 2 -30.5s3.66602 -20 6.99902 -29s8.16602 -16.333 14.499 -22s14.5 -8.5 24.5 -8.5h17v-41h-20c-28 0 -51.167 8.5 -69.5 25.5s-27.5 43.5 -27.5 79.5v139v0z" />
    <glyph glyph-name="bar" unicode="|" horiz-adv-x="193" 
d="M75 -162v878h48v-878h-48z" />
    <glyph glyph-name="braceright" unicode="}" horiz-adv-x="222" 
d="M142 -1c0 -32.667 -7.99902 -58.335 -23.999 -77.002s-36.667 -28 -62 -28h-31v41h16c10 0 18.333 2.33301 25 7s11.667 10.834 15 18.501s5.66602 16.167 6.99902 25.5s2 19 2 29v148c0 40 6.5 70.833 19.5 92.5s26.167 34.834 39.5 39.501v3
c-12.667 4.66699 -25.667 18.167 -39 40.5s-20 54.5 -20 96.5v130c0 10 -0.666992 20.333 -2 31s-3.66602 20.5 -6.99902 29.5s-8.33301 16.333 -15 22s-15 8.5 -25 8.5h-16v41h34c28 0 48.833 -11.167 62.5 -33.5s20.5 -49.5 20.5 -81.5v-136c0 -15.333 1 -30.333 3 -45
s5.33301 -28 10 -40s11 -22 19 -30s18.333 -13.333 31 -16v-38c-26.667 -5.33301 -43.834 -20 -51.501 -44s-11.5 -55.667 -11.5 -95v-139z" />
    <glyph glyph-name="asciitilde" unicode="~" horiz-adv-x="367" 
d="M106 291c16 0 30.6611 -2.33398 43.9941 -7.00098s26.333 -10 39 -16s24.834 -11.333 36.501 -16s23.5 -7 35.5 -7c12.667 0 22.834 2.66699 30.501 8s17.5 15.333 29.5 30l35 -22c-11.333 -19.333 -24.666 -35.833 -39.999 -49.5s-33.666 -20.5 -54.999 -20.5
c-12.667 0 -25.334 2.5 -38.001 7.5s-25.5 10.333 -38.5 16s-26 11 -39 16s-26.5 7.5 -40.5 7.5c-12 0 -22.167 -2.66699 -30.5 -8s-18.166 -14.666 -29.499 -27.999l-33 24c10.667 18 23.834 33.333 39.501 46s33.834 19 54.501 19z" />
    <glyph glyph-name="exclamdown" unicode="&#xa1;" horiz-adv-x="214" 
d="M132 326l6 -526h-63l6 526h51zM139 496v-65h-65v65h65z" />
    <glyph glyph-name="cent" unicode="&#xa2;" horiz-adv-x="336" 
d="M185 498c43.333 -1.33301 75.167 -14.0039 95.5 -38.0039s30.5 -57 30.5 -99l-63 -9v3c0 26.667 -5.5 47.334 -16.5 62.001s-26.5 23 -46.5 25v-393c6.66699 0 12.334 1.33301 17.001 4c29.333 10 44.666 38 45.999 84l62 -11c-2 -84 -43.667 -128 -125 -132v-109h-29
v109c-35.333 2.66699 -61.833 12.834 -79.5 30.501s-29.5 37.5 -35.5 59.5c-3.33301 12.667 -5.5 30.834 -6.5 54.501s-1.5 47.167 -1.5 70.5v36c0 16.667 0.166992 33.834 0.5 51.501s1 34.167 2 49.5s2.5 29.333 4.5 42s4.33301 23 7 31
c7.33301 21.333 19.833 38.833 37.5 52.5s41.5 22.167 71.5 25.5v106h29v-105zM101.001 99.9961c8.66699 -28.667 27.001 -45.335 55.001 -50.002v390c-11.333 -1.33301 -21.5 -5.66602 -30.5 -12.999s-16.167 -17.666 -21.5 -30.999
c-5.33301 -12.667 -8.33301 -33.667 -9 -63s-1.33398 -64 -2.00098 -104v-7c0.666992 -22.667 1.16699 -45.667 1.5 -69s2.5 -41 6.5 -53z" />
    <glyph glyph-name="sterling" unicode="&#xa3;" horiz-adv-x="381" 
d="M204 702c22 0 42.3301 -3.16992 60.9971 -9.50293s34.834 -15.666 48.501 -27.999s24.334 -28 32.001 -47s11.167 -41.167 10.5 -66.5l-62 -15c0.666992 36 -6.66602 63.167 -21.999 81.5s-37.666 27.833 -66.999 28.5c-26 0 -46.5 -8.33301 -61.5 -25
s-22.5 -38 -22.5 -64c0 -14 1.66699 -27.833 5 -41.5s7.16602 -28 11.499 -43l13.5 -49c4.66699 -17.667 8.66699 -37.5 12 -59.5h101v-52h-96c0 -2.66699 0.166992 -7 0.5 -13s0.5 -10.333 0.5 -13c0 -47.333 -5 -88.666 -15 -123.999s-23.333 -70.666 -40 -105.999h230
v-56h-298v56c19.333 36 34.5 71.667 45.5 107s16.5 75.666 16.5 120.999c0 4.66699 -0.166992 9.33398 -0.5 14.001s-0.833008 9.33398 -1.5 14.001h-60v52h56c-3.33301 20 -7.5 38.167 -12.5 54.5s-10 31.833 -15 46.5s-9.16699 29 -12.5 43s-5 28.667 -5 44
c0 45.333 13 81.666 39 108.999s62 41 108 41z" />
    <glyph glyph-name="currency" unicode="&#xa4;" horiz-adv-x="492" 
d="M58 471c4.66699 5.33301 10.6641 11.834 17.9971 19.501l19 19.5l54 -55c28.667 22 61 33 97 33c35.333 0 68 -11 98 -33l11.5 12l15 16l14.5 15.5c4.66699 5 8.66699 8.83301 12 11.5l38 -39l-54 -53c10.667 -14.667 18.834 -30.167 24.501 -46.5s8.5 -33.5 8.5 -51.5
c0 -17.333 -2.83301 -33.833 -8.5 -49.5s-13.834 -30.834 -24.501 -45.501c2.66699 -3.33301 6.5 -7.5 11.5 -12.5l15.5 -15.5l15.5 -15l11.5 -11c-7.33301 -7.33301 -13.666 -14 -18.999 -20s-11.666 -12.333 -18.999 -19l-53 55c-28 -21.333 -60.667 -32 -98 -32
c-35.333 0 -67.666 10.667 -96.999 32l-54 -55l-38 39l55 54c-21.333 28 -32 59.667 -32 95c0 37.333 10.667 70 32 98zM133.997 320.001c-0.666992 -15.333 2 -29.667 8 -43s14.167 -25.166 24.5 -35.499s22.333 -18.5 36 -24.5s28.167 -9 43.5 -9s30 3 44 9
s26.167 14 36.5 24s18.5 21.833 24.5 35.5s9 28.167 9 43.5c0 16 -3 31 -9 45s-14 26.167 -24 36.5s-22 18.5 -36 24.5s-29 9 -45 9c-15.333 0 -29.833 -3 -43.5 -9s-25.667 -14.333 -36 -25s-18.5 -22.834 -24.5 -36.501s-8.66699 -28.5 -8 -44.5z" />
    <glyph glyph-name="yen" unicode="&#xa5;" horiz-adv-x="367" 
d="M221 324h109v-40h-118v-66h118v-41h-118v-178h-57v178h-114v41h114v66h-114v40h104l-121 372h59l99 -322h3l98 322h61z" />
    <glyph glyph-name="brokenbar" unicode="&#xa6;" horiz-adv-x="193" 
d="M75 298v418h48v-418h-48zM123 253v-415h-48v415h48z" />
    <glyph glyph-name="section" unicode="&#xa7;" horiz-adv-x="417" 
d="M376 291c0 -24.667 -6.49902 -47.1641 -19.499 -67.4971s-30.5 -37.5 -52.5 -51.5c32 -34 48 -69.667 48 -107c0 -42.667 -14.833 -76.667 -44.5 -102s-69.5 -38 -119.5 -38c-24.667 0 -49.167 4.83301 -73.5 14.5s-45.5 22.167 -63.5 37.5l33 39
c18.667 -15.333 36 -26 52 -32s33.667 -9 53 -9c34 0 59.667 8 77 24s26 36.333 26 61c0 23.333 -9.33301 45.5 -28 66.5s-49 43.167 -91 66.5c-21.333 12 -39.666 23.333 -54.999 34s-28.333 22 -39 34s-18.5 24.833 -23.5 38.5s-7.5 29.167 -7.5 46.5c0 25.333 7 48 21 68
s31.667 36.667 53 50c-17.333 15.333 -30 31.166 -38 47.499s-12 34.5 -12 54.5c0 19.333 3.5 37.333 10.5 54s16.833 31 29.5 43s27.834 21.5 45.501 28.5s37.167 10.5 58.5 10.5c28.667 0 54.5 -4.5 77.5 -13.5s44.167 -21.833 63.5 -38.5l-39 -40
c-18 15.333 -35 26 -51 32s-33 9 -51 9c-26.667 0 -47.334 -8.16699 -62.001 -24.5s-22 -35.166 -22 -56.499c0 -24.667 9.16699 -44.834 27.5 -60.501s42.166 -32.167 71.499 -49.5c20 -11.333 38.667 -22.833 56 -34.5s32.666 -24.334 45.999 -38.001
s23.833 -28.334 31.5 -44.001s11.5 -33.167 11.5 -52.5zM318.001 288.003c0 26.667 -11.999 50.333 -35.999 71s-62 43.667 -114 69c-17.333 -5.33301 -31.833 -14.833 -43.5 -28.5s-17.5 -30.167 -17.5 -49.5c0 -15.333 5.5 -30 16.5 -44s24.5 -27 40.5 -39
s32.833 -23 50.5 -33s33.167 -18.333 46.5 -25c17.333 6.66699 31.166 17.5 41.499 32.5s15.5 30.5 15.5 46.5z" />
    <glyph glyph-name="dieresis" unicode="&#xa8;" horiz-adv-x="353" 
d="M224 587v64h55v-64h-55zM73 587v64h56v-64h-56z" />
    <glyph glyph-name="copyright" unicode="&#xa9;" horiz-adv-x="703" 
d="M353 -8c-49.333 0 -92.833 8.83301 -130.5 26.5s-69.167 42.167 -94.5 73.5s-44.5 68.166 -57.5 110.499s-19.5 88.5 -19.5 138.5s6.5 96.5 19.5 139.5s32.167 80.167 57.5 111.5s56.833 55.833 94.5 73.5s81.167 26.5 130.5 26.5c48.667 0 91.667 -8.83301 129 -26.5
s68.833 -42.167 94.5 -73.5s45.167 -68.5 58.5 -111.5s20 -89.5 20 -139.5s-6.66699 -96.167 -20 -138.5s-32.833 -79.166 -58.5 -110.499s-57.167 -55.833 -94.5 -73.5s-80.333 -26.5 -129 -26.5zM353 651c-42.667 0 -80.002 -8.16406 -112.002 -24.4971
s-58.5 -38.5 -79.5 -66.5s-36.833 -60.833 -47.5 -98.5s-16 -77.834 -16 -120.501c0 -43.333 5.66699 -83.666 17 -120.999s27.833 -69.833 49.5 -97.5s48.334 -49.334 80.001 -65.001s67.834 -23.5 108.501 -23.5c42 0 79 8 111 24s58.667 37.667 80 65
s37.5 59.666 48.5 96.999s16.5 77.666 16.5 120.999s-5.5 83.833 -16.5 121.5s-27.333 70.5 -49 98.5s-48.5 50 -80.5 66s-68.667 24 -110 24zM355.998 540.003c14.667 0 28.834 -2.16699 42.501 -6.5s25.5 -11 35.5 -20s17.833 -20.167 23.5 -33.5s8.16699 -29 7.5 -47
l-44 -10c0 23.333 -5.83301 41.5 -17.5 54.5s-28.167 19.5 -49.5 19.5c-18.667 0 -33.834 -6 -45.501 -18s-17.5 -26.333 -17.5 -43v-206c0 -17.333 6 -31.666 18 -42.999s27 -17 45 -17c42 0 64 24.333 66 73l45 -9c0 -36.667 -10.667 -63.834 -32 -81.501
s-47 -26.5 -77 -26.5s-56.167 9 -78.5 27s-33.5 45.333 -33.5 82v196c0 35.333 10.667 62.333 32 81s48 28 80 28z" />
    <glyph glyph-name="ordfeminine" unicode="&#xaa;" horiz-adv-x="243" 
d="M20 540c6.66699 20.667 18.5 37.501 35.5 50.501s38.833 19.5 65.5 19.5c31.333 0 55.5 -6.66699 72.5 -20s25.5 -37.333 25.5 -72v-239h-54v22c-9.33301 -10 -20 -16.833 -32 -20.5s-24.667 -5.5 -38 -5.5c-15.333 0 -28.166 2.66699 -38.499 8
s-18.666 12.5 -24.999 21.5s-10.833 19.333 -13.5 31s-4 23.5 -4 35.5c0 12.667 1.5 25.167 4.5 37.5s8.16699 23.5 15.5 33.5s17.166 18.167 29.499 24.5s28.166 9.5 47.499 9.5h54v41c0 13.333 -3 24.166 -9 32.499s-18.333 12.5 -37 12.5
c-11.333 0 -21.5 -3.16699 -30.5 -9.5s-15.167 -15.5 -18.5 -27.5zM165 431.001h-41.999c-16.667 0 -30.5 -4.33301 -41.5 -13s-16.5 -23.667 -16.5 -45c0 -15.333 3.66699 -27.5 11 -36.5s19.666 -13.5 36.999 -13.5c16.667 0 29.5 4.5 38.5 13.5s13.5 21.5 13.5 37.5v57z
" />
    <glyph glyph-name="guillemotleft" unicode="&#xab;" horiz-adv-x="386" 
d="M290 46l-107 186l107 186h61l-105 -186l105 -186h-61zM148 46l-107 186l107 186h61l-106 -186l106 -186h-61z" />
    <glyph glyph-name="logicalnot" unicode="&#xac;" horiz-adv-x="367" 
d="M353 108h-47v161h-294v49h341v-210z" />
    <glyph glyph-name="sfthyphen" unicode="&#xad;" horiz-adv-x="334" 
d="M49 259v55h247v-55h-247z" />
    <glyph glyph-name="registered" unicode="&#xae;" horiz-adv-x="486" 
d="M244 272c-31.333 0 -58.833 5.5 -82.5 16.5s-43.5 26.333 -59.5 46s-28.167 42.667 -36.5 69s-12.5 55.166 -12.5 86.499c0 32 4.16699 61.5 12.5 88.5s20.5 50.333 36.5 70s35.833 35 59.5 46s51.167 16.5 82.5 16.5c30 0 56.833 -5.5 80.5 -16.5s43.5 -26.333 59.5 -46
s28.167 -43 36.5 -70s12.5 -56.5 12.5 -88.5c0 -31.333 -4.16699 -60.166 -12.5 -86.499s-20.5 -49.333 -36.5 -69s-35.833 -35 -59.5 -46s-50.5 -16.5 -80.5 -16.5zM244 680c-26 0 -48.667 -4.83496 -68 -14.502s-35.5 -23 -48.5 -40s-22.667 -37 -29 -60
s-9.5 -47.5 -9.5 -73.5c0 -27.333 3.5 -52.166 10.5 -74.499s17 -41.833 30 -58.5s29.167 -29.5 48.5 -38.5s41.333 -13.5 66 -13.5c26 0 48.667 4.83301 68 14.5s35.333 22.834 48 39.501s22 36.167 28 58.5s9 46.5 9 72.5s-3.33301 50.5 -10 73.5s-16.5 43 -29.5 60
s-29 30.333 -48 40s-40.833 14.5 -65.5 14.5zM281 356.998l-38 109h-29v-109h-37v264h65c48.667 0 73 -26.667 73 -80c0 -14 -2.5 -27.333 -7.5 -40s-14.5 -22.667 -28.5 -30l21 -57l22 -57h-41zM278 540.998c0 14.667 -2.83301 26 -8.5 34s-16.167 12 -31.5 12h-24v-89h27
c14 0 23.667 4 29 12s8 18.333 8 31z" />
    <glyph glyph-name="macron" unicode="&#xaf;" horiz-adv-x="352" 
d="M73 588v54h223v-54h-223z" />
    <glyph glyph-name="degree" unicode="&#xb0;" horiz-adv-x="281" 
d="M241 601c0 -27.333 -9.16699 -50.333 -27.5 -69s-41.5 -28 -69.5 -28c-26.667 0 -49.334 9.33301 -68.001 28s-28 41.667 -28 69c0 13.333 2.5 26 7.5 38s11.833 22.5 20.5 31.5s18.834 16 30.501 21s24.167 7.5 37.5 7.5c28 0 51.167 -9.5 69.5 -28.5
s27.5 -42.167 27.5 -69.5zM144 661c-16 0 -29.667 -5.66699 -41 -17s-17 -25.666 -17 -42.999c0 -16.667 5.66699 -30.667 17 -42s25 -17 41 -17c16.667 0 30.667 5.66699 42 17s17 25.333 17 42c0 17.333 -5.66699 31.666 -17 42.999s-25.333 17 -42 17z" />
    <glyph glyph-name="plusminus" unicode="&#xb1;" horiz-adv-x="367" 
d="M12 20v47h342v-47h-342zM207 269v-161h-47v161h-148v49h148v160h47v-160h147v-49h-147z" />
    <glyph glyph-name="twosuperior" unicode="&#xb2;" horiz-adv-x="239" 
d="M121 744c-13.333 0 -24.001 -5.5 -32.001 -16.5s-12 -28.167 -12 -51.5l-51 8c-0.666992 32 7 57.333 23 76s40.333 28 73 28c33.333 0 57.5 -8.33301 72.5 -25s22.5 -39 22.5 -67c0 -33.333 -9 -65.333 -27 -96l-104 -184h127v-47h-185v39l119 214
c6.66699 12 11.334 24 14.001 36s4 24.333 4 37s-3 24 -9 34s-17.667 15 -35 15z" />
    <glyph glyph-name="threesuperior" unicode="&#xb3;" horiz-adv-x="239" 
d="M212 456c0 -28.667 -7.66895 -51 -23.002 -67s-38 -24 -68 -24c-34 0 -58.333 8.83301 -73 26.5s-21.334 41.834 -20.001 72.501l51 6c-1.33301 -18.667 1.33398 -33.5 8.00098 -44.5s18.334 -16.5 35.001 -16.5c13.333 0 23.5 4.33301 30.5 13s10.5 20 10.5 34v59
c0 17.333 -3.83301 29.666 -11.5 36.999s-19.167 11 -34.5 11h-25v43h26c14.667 0 25.834 3.33301 33.501 10s11.5 17.667 11.5 33v50c0 11.333 -2.83301 21.666 -8.5 30.999s-16.5 14 -32.5 14c-16.667 0 -28.5 -5.66699 -35.5 -17s-10.5 -25.666 -10.5 -42.999l-51 8
c1.33301 27.333 10 50 26 68s40.333 27 73 27c17.333 0 31.666 -2.33301 42.999 -7s20.333 -11 27 -19s11.334 -17.333 14.001 -28s4 -22 4 -34v-35c0 -15.333 -1.5 -29.5 -4.5 -42.5s-12.167 -24.833 -27.5 -35.5c14.667 -7.33301 23.667 -17 27 -29s5 -26.667 5 -44v-57z
" />
    <glyph glyph-name="acute" unicode="&#xb4;" horiz-adv-x="350" 
d="M141 570l67 159l59 -21l-92 -152z" />
    <glyph glyph-name="mu" unicode="&#xb5;" horiz-adv-x="375" 
d="M268 51h-2.00098c-9.33301 -17.333 -22.833 -30.833 -40.5 -40.5s-36.167 -14.5 -55.5 -14.5c-26 0 -46.667 6.66699 -62 20v-211h-61v687h62v-350c0 -25.333 5.83301 -46 17.5 -62s31.834 -24 60.501 -24c26 0 46.167 8.66699 60.5 26s21.5 39 21.5 65v344h61v-491h-62
v51z" />
    <glyph glyph-name="mu" unicode="&#x3bc;" horiz-adv-x="375" 
d="M268 51h-2.00098c-9.33301 -17.333 -22.833 -30.833 -40.5 -40.5s-36.167 -14.5 -55.5 -14.5c-26 0 -46.667 6.66699 -62 20v-211h-61v687h62v-350c0 -25.333 5.83301 -46 17.5 -62s31.834 -24 60.501 -24c26 0 46.167 8.66699 60.5 26s21.5 39 21.5 65v344h61v-491h-62
v51z" />
    <glyph glyph-name="paragraph" unicode="&#xb6;" horiz-adv-x="401" 
d="M152 341c-4.66699 0 -9.83301 0.332031 -15.5 0.999023s-10.167 1.66699 -13.5 3c-16 2 -30.5 8.16699 -43.5 18.5s-24 23.666 -33 39.999s-15.833 34.833 -20.5 55.5s-7 42.334 -7 65.001c0 24 2.33301 47.5 7 70.5s12.167 43.333 22.5 61s24.333 31.834 42 42.501
s39.5 16 65.5 16h219v-64h-47v-732h-56v732h-64v-732h-56v423z" />
    <glyph glyph-name="periodcentered" unicode="&#xb7;" horiz-adv-x="164" 
d="M47 228v74h70v-74h-70z" />
    <glyph glyph-name="cedilla" unicode="&#xb8;" horiz-adv-x="431" 
d="M199 13l-18 -72.001c15.333 -1.33301 28 -4.5 38 -9.5s18 -11 24 -18s10.167 -14.667 12.5 -23s3.5 -15.833 3.5 -22.5c0 -8 -1.5 -16.333 -4.5 -25s-7.66699 -16.5 -14 -23.5s-14.5 -12.833 -24.5 -17.5s-22.333 -7 -37 -7c-7.33301 0 -18.5 0.833008 -33.5 2.5
s-29.5 6.16699 -43.5 13.5l11 30c11.333 -5.33301 21.833 -8.66602 31.5 -9.99902s18.5 -2 26.5 -2c12 0 22.167 3.16699 30.5 9.5s12.5 15.833 12.5 28.5c0 13.333 -4.5 23.833 -13.5 31.5s-23.5 11.167 -43.5 10.5l-16 13l26 93z" />
    <glyph glyph-name="onesuperior" unicode="&#xb9;" horiz-adv-x="200" 
d="M106 369v364l-67 -47v52l68 47h48v-416h-49z" />
    <glyph glyph-name="ordmasculine" unicode="&#xba;" horiz-adv-x="245" 
d="M123 609c27.333 0 48.333 -4.99707 63 -14.9971s25 -22.667 31 -38c4.66699 -10.667 7.5 -24.834 8.5 -42.501s1.5 -35.5 1.5 -53.5v-30c0 -12 -0.333008 -24 -1 -36s-1.66699 -24.333 -3 -37c-2 -15.333 -6.5 -28.333 -13.5 -39s-15.333 -19.334 -25 -26.001
s-20.334 -11.334 -32.001 -14.001s-22.834 -4 -33.501 -4c-29.333 0 -51.166 6.16699 -65.499 18.5s-24.166 26.5 -29.499 42.5c-1.33301 5.33301 -2.5 12 -3.5 20s-1.66699 16.833 -2 26.5s-0.5 19.5 -0.5 29.5v28c0 22 0.666992 44.167 2 66.5s4.33301 38.5 9 48.5
c6 16.667 16.833 30 32.5 40s36.167 15 61.5 15zM123 563.003c-22.667 0 -37.668 -8.66309 -45.001 -25.9961c-3.33301 -7.33301 -5.5 -19 -6.5 -35s-1.5 -34.333 -1.5 -55v-20c0 -17.333 0.166992 -32.833 0.5 -46.5s1.83301 -24.167 4.5 -31.5c6 -19.333 22 -29 48 -29
c12.667 0 23.167 3.16699 31.5 9.5s13.833 15.166 16.5 26.499c1.33301 8 2.5 19.5 3.5 34.5s1.5 30.833 1.5 47.5c0 17.333 -0.333008 35.666 -1 54.999s-2.33398 32.666 -5.00098 39.999c-3.33301 9.33301 -9.16602 16.666 -17.499 21.999s-18.166 8 -29.499 8z" />
    <glyph glyph-name="guillemotright" unicode="&#xbb;" horiz-adv-x="386" 
d="M42 46l105 186l-105 186h60l107 -186l-107 -186h-60zM184 46l106 186l-106 186h61l107 -186l-107 -186h-61z" />
    <glyph glyph-name="onequarter" unicode="&#xbc;" horiz-adv-x="580" 
d="M112 279v364l-67 -47v52l68 47h48v-416h-49zM137 -17h-42l314 731h42zM499 66v-66h-49v66h-132v41l94 309h51l-94 -305h81v113h49v-113h35v-45h-35z" />
    <glyph glyph-name="onehalf" unicode="&#xbd;" horiz-adv-x="580" 
d="M115 279v364l-67 -47v52l68 47h48v-416h-49zM123 -17h-42l314 731h42zM435 375c-13.333 0 -24.001 -5.5 -32.001 -16.5s-12 -28.167 -12 -51.5l-51 8c-0.666992 32 7 57.333 23 76s40.333 28 73 28c33.333 0 57.5 -8.33301 72.5 -25s22.5 -39 22.5 -67
c0 -33.333 -9 -65.333 -27 -96l-104 -184h127v-47h-185v39l119 214c6.66699 12 11.334 24 14.001 36s4 24.333 4 37s-3 24 -9 34s-17.667 15 -35 15z" />
    <glyph glyph-name="threequarters" unicode="&#xbe;" horiz-adv-x="580" 
d="M221 366c0 -28.667 -7.66895 -51 -23.002 -67s-38 -24 -68 -24c-34 0 -58.333 8.83301 -73 26.5s-21.334 41.834 -20.001 72.501l51 6c-1.33301 -18.667 1.33398 -33.5 8.00098 -44.5s18.334 -16.5 35.001 -16.5c13.333 0 23.5 4.33301 30.5 13s10.5 20 10.5 34v59
c0 17.333 -3.83301 29.666 -11.5 36.999s-19.167 11 -34.5 11h-25v43h26c14.667 0 25.834 3.33301 33.501 10s11.5 17.667 11.5 33v50c0 11.333 -2.83301 21.666 -8.5 30.999s-16.5 14 -32.5 14c-16.667 0 -28.5 -5.66699 -35.5 -17s-10.5 -25.666 -10.5 -42.999l-51 8
c1.33301 27.333 10 50 26 68s40.333 27 73 27c17.333 0 31.666 -2.33301 42.999 -7s20.333 -11 27 -19s11.334 -17.333 14.001 -28s4 -22 4 -34v-35c0 -15.333 -1.5 -29.5 -4.5 -42.5s-12.167 -24.833 -27.5 -35.5c14.667 -7.33301 23.667 -17 27 -29s5 -26.667 5 -44v-57z
M161.998 -17h-42l314 731h42zM509.998 66v-66h-49v66h-132v41l94 309h51l-94 -305h81v113h49v-113h35v-45h-35z" />
    <glyph glyph-name="questiondown" unicode="&#xbf;" horiz-adv-x="357" 
d="M201 -207c-56 0 -95.667 14.835 -119 44.502s-35 69.167 -35 118.5c0 16.667 0.666992 31.167 2 43.5s3.5 23.5 6.5 33.5s6.66699 19.5 11 28.5s9.5 19.167 15.5 30.5l31 48c9.33301 14 17.333 27.333 24 40s11.834 24.834 15.501 36.501s5.83398 24.167 6.50098 37.5v71
h59v-82c0 -14 -2 -27.667 -6 -41s-9.66699 -26.666 -17 -39.999c-15.333 -26.667 -28.333 -48.334 -39 -65.001s-19.334 -31.834 -26.001 -45.501s-11.667 -27.334 -15 -41.001s-5 -30.5 -5 -50.5c0 -16 1.5 -30.667 4.5 -44s8 -24.833 15 -34.5s16.333 -17.167 28 -22.5
s26.167 -8 43.5 -8c23.333 0 43.666 8 60.999 24s26.666 42 27.999 78l61 -7c-1.33301 -50.667 -16.166 -88.834 -44.499 -114.501s-63.5 -38.5 -105.5 -38.5zM220 494.002v-65h-63v65h63z" />
    <glyph glyph-name="Agrave" unicode="&#xc0;" horiz-adv-x="386" 
d="M316 0l-37 168h-173l-36 -168h-58l150 696h62l153 -696h-61zM191 594l-33 -168l-42 -200h152l-42 202l-32 166h-3zM196 723l-154 91l42 47l135 -109z" />
    <glyph glyph-name="Aacute" unicode="&#xc1;" horiz-adv-x="386" 
d="M316 0l-37 168h-173l-36 -168h-58l150 696h62l153 -696h-61zM191 594l-33 -168l-42 -200h152l-42 202l-32 166h-3zM164 751l135 109l40 -47l-152 -91z" />
    <glyph glyph-name="Acircumflex" unicode="&#xc2;" horiz-adv-x="386" 
d="M316 0l-37 168h-173l-36 -168h-58l150 696h62l153 -696h-61zM191 594l-33 -168l-42 -200h152l-42 202l-32 166h-3zM192 806l-113 -76l-27 23l123 111h40l116 -109l-26 -24z" />
    <glyph glyph-name="Atilde" unicode="&#xc3;" horiz-adv-x="386" 
d="M316 0l-37 168h-173l-36 -168h-58l150 696h62l153 -696h-61zM191 594l-33 -168l-42 -200h152l-42 202l-32 166h-3zM329 814c-10.667 -22 -23.5 -38.834 -38.5 -50.501s-29.5 -17.5 -43.5 -17.5c-10 0 -19.833 2 -29.5 6s-19.167 8.16699 -28.5 12.5l-27 12.5
c-8.66699 4 -17 6 -25 6c-17.333 0 -34 -11.667 -50 -35l-33 20c8 16.667 19.167 31.834 33.5 45.501s29.833 20.5 46.5 20.5c10 0 19.333 -2 28 -6s17.5 -8.33301 26.5 -13s18.167 -9 27.5 -13s19.333 -6 30 -6c16.667 0 33.667 13 51 39z" />
    <glyph glyph-name="Adieresis" unicode="&#xc4;" horiz-adv-x="386" 
d="M316 0l-37 168h-173l-36 -168h-58l150 696h62l153 -696h-61zM191 594l-33 -168l-42 -200h152l-42 202l-32 166h-3zM240 749v63h55v-63h-55zM90 749v63h56v-63h-56z" />
    <glyph glyph-name="Aring" unicode="&#xc5;" horiz-adv-x="386" 
d="M316 0l-37 168h-173l-36 -168h-58l150 696h62l153 -696h-61zM191 594l-33 -168l-42 -200h152l-42 202l-32 166h-3zM193 712c-24 0 -44.333 8.33301 -61 25s-25 37 -25 61s8.33301 44.333 25 61s37 25 61 25c23.333 0 43.333 -8.33301 60 -25s25 -37 25 -61
s-8.33301 -44.333 -25 -61s-36.667 -25 -60 -25zM193 848c-14 0 -26 -5 -36 -15s-15 -22 -15 -36s5 -26 15 -36s22 -15 36 -15c13.333 0 25 5 35 15s15 22 15 36s-5 26 -15 36s-21.667 15 -35 15z" />
    <glyph glyph-name="AE" unicode="&#xc6;" horiz-adv-x="624" 
d="M310 186h-173l-71 -186h-62l270 696h327v-57h-229v-255h200v-57h-200v-270h229v-57h-291v186zM158 244h152v395h-2z" />
    <glyph glyph-name="Ccedilla" unicode="&#xc7;" horiz-adv-x="384" 
d="M202 702c48.667 0 86.332 -13.501 112.999 -40.501s40 -64.833 40 -113.5l-62 -12c0.666992 36 -7 63.167 -23 81.5s-39 27.5 -69 27.5c-17.333 0 -31.833 -3.33301 -43.5 -10s-21.167 -15.5 -28.5 -26.5s-12.666 -23.5 -15.999 -37.5s-5 -28.333 -5 -43v-371
c0 -13.333 1.66699 -26.5 5 -39.5s8.66602 -24.5 15.999 -34.5s16.833 -18 28.5 -24s26.167 -9 43.5 -9c27.333 0 49.333 8.5 66 25.5s25.334 44.833 26.001 83.5l63 -11c-1.33301 -47.333 -14 -84 -38 -110s-56 -40.667 -96 -44l-13 -53c15.333 -1.33301 28 -4.5 38 -9.5
s18 -11 24 -18s10.167 -14.667 12.5 -23s3.5 -15.833 3.5 -22.5c0 -8 -1.5 -16.333 -4.5 -25s-7.66699 -16.5 -14 -23.5s-14.5 -12.833 -24.5 -17.5s-22.333 -7 -37 -7c-7.33301 0 -18.5 0.833008 -33.5 2.5s-29.5 6.16699 -43.5 13.5l11 30
c11.333 -5.33301 21.833 -8.66602 31.5 -9.99902s18.5 -2 26.5 -2c12 0 22.167 3.16699 30.5 9.5s12.5 15.833 12.5 28.5c0 13.333 -4.5 23.833 -13.5 31.5s-23.5 11.167 -43.5 10.5l-16 13l20 72c-46.667 2 -82 16.667 -106 44s-36 66 -36 116v367
c0 24.667 2.66699 48 8 70s14 41.167 26 57.5s27.833 29.333 47.5 39s44.167 14.5 73.5 14.5z" />
    <glyph glyph-name="Egrave" unicode="&#xc8;" horiz-adv-x="361" 
d="M53 0v696h291v-57h-230v-255h201v-57h-201v-271h230v-56h-291zM212 723l-154 91l42 47l135 -109z" />
    <glyph glyph-name="Eacute" unicode="&#xc9;" horiz-adv-x="361" 
d="M53 0v696h291v-57h-230v-255h201v-57h-201v-271h230v-56h-291zM135 751l135 109l40 -47l-152 -91z" />
    <glyph glyph-name="Ecircumflex" unicode="&#xca;" horiz-adv-x="361" 
d="M53 0v696h291v-57h-230v-255h201v-57h-201v-271h230v-56h-291zM193 806l-113 -76l-27 23l123 111h40l116 -109l-26 -24z" />
    <glyph glyph-name="Edieresis" unicode="&#xcb;" horiz-adv-x="361" 
d="M53 0v696h291v-57h-230v-255h201v-57h-201v-271h230v-56h-291zM241 749v63h55v-63h-55zM91 749v63h56v-63h-56z" />
    <glyph glyph-name="Igrave" unicode="&#xcc;" horiz-adv-x="183" 
d="M60 0v696h63v-696h-63zM103 723l-154 91l42 47l135 -109z" />
    <glyph glyph-name="Iacute" unicode="&#xcd;" horiz-adv-x="183" 
d="M60 0v696h63v-696h-63zM60 751l135 109l40 -47l-152 -91z" />
    <glyph glyph-name="Icircumflex" unicode="&#xce;" horiz-adv-x="183" 
d="M60 0v696h63v-696h-63zM93 806l-113 -76l-27 23l123 111h40l116 -109l-26 -24z" />
    <glyph glyph-name="Idieresis" unicode="&#xcf;" horiz-adv-x="183" 
d="M60 0v696h63v-696h-63zM140 749v63h55v-63h-55zM-10 749v63h56v-63h-56z" />
    <glyph glyph-name="Eth" unicode="&#xd0;" horiz-adv-x="414" 
d="M6 390l47 0.000976562v306h156c42 0 74.833 -7.16699 98.5 -21.5s40.167 -38.5 49.5 -72.5c7.33301 -27.333 11 -61.833 11 -103.5v-149.5v-148.5c0 -41.667 -4 -75.167 -12 -100.5c-6 -20 -14.333 -36.333 -25 -49s-22.667 -22.834 -36 -30.501s-28 -13 -44 -16
s-33 -4.5 -51 -4.5h-147v342h-47v48zM305 520.001c0 18 -1.66699 34.333 -5 49s-9 27.167 -17 37.5s-18.667 18.5 -32 24.5s-30 9 -50 9h-87v-250h89v-48h-89v-286h88c36 0 62.167 10 78.5 30s24.5 50 24.5 90v344z" />
    <glyph glyph-name="Ntilde" unicode="&#xd1;" horiz-adv-x="441" 
d="M111 526l-0.000976562 -526h-61v696h58l17.5 -43l26 -62.5l30 -72l30 -72l26 -62.5c7.66699 -18.667 13.834 -33 18.501 -43l70 -174h4v529h61v-696h-58l-17.5 42.5l-26 62l-30 72l-30 71.5l-26.5 61.5c-8 18.333 -14 32.5 -18 42.5l-71 174h-3zM356.999 808
c-10.667 -22 -23.5 -38.834 -38.5 -50.501s-29.5 -17.5 -43.5 -17.5c-10 0 -19.833 2 -29.5 6s-19.167 8.16699 -28.5 12.5l-27 12.5c-8.66699 4 -17 6 -25 6c-17.333 0 -34 -11.667 -50 -35l-33 20c8 16.667 19.167 31.834 33.5 45.501s29.833 20.5 46.5 20.5
c10 0 19.333 -2 28 -6s17.5 -8.33301 26.5 -13s18.167 -9 27.5 -13s19.333 -6 30 -6c16.667 0 33.667 13 51 39z" />
    <glyph glyph-name="Ograve" unicode="&#xd2;" horiz-adv-x="409" 
d="M363 172c0 -58.667 -13.165 -103.164 -39.498 -133.497s-66.166 -45.5 -119.499 -45.5s-92.833 14.333 -118.5 43s-38.5 68.667 -38.5 120v366c0 24.667 2.66699 48 8 70s14.166 41.167 26.499 57.5s28.666 29.166 48.999 38.499s45.166 14 74.499 14
c30 0 55.167 -4.16699 75.5 -12.5s36.5 -20.333 48.5 -36s20.667 -34.334 26 -56.001s8 -45.834 8 -72.501v-353zM301.002 534.003c0 14.667 -1.66895 28.6689 -5.00195 42.002s-8.66602 25.166 -15.999 35.499s-17.166 18.666 -29.499 24.999s-27.5 9.5 -45.5 9.5
c-19.333 0 -35.333 -4.16699 -48 -12.5s-22.667 -18.833 -30 -31.5s-12.5 -26.5 -15.5 -41.5s-4.5 -29.167 -4.5 -42.5v-363c0 -13.333 1.83301 -26.333 5.5 -39s9.33398 -24 17.001 -34s17.667 -18 30 -24s27.166 -9 44.499 -9c35.333 0 60.333 11.333 75 34s22 50 22 82
v369zM229 723.005l-154 91l42 47l135 -109z" />
    <glyph glyph-name="Oacute" unicode="&#xd3;" horiz-adv-x="409" 
d="M363 172c0 -58.667 -13.165 -103.164 -39.498 -133.497s-66.166 -45.5 -119.499 -45.5s-92.833 14.333 -118.5 43s-38.5 68.667 -38.5 120v366c0 24.667 2.66699 48 8 70s14.166 41.167 26.499 57.5s28.666 29.166 48.999 38.499s45.166 14 74.499 14
c30 0 55.167 -4.16699 75.5 -12.5s36.5 -20.333 48.5 -36s20.667 -34.334 26 -56.001s8 -45.834 8 -72.501v-353zM301.002 534.003c0 14.667 -1.66895 28.6689 -5.00195 42.002s-8.66602 25.166 -15.999 35.499s-17.166 18.666 -29.499 24.999s-27.5 9.5 -45.5 9.5
c-19.333 0 -35.333 -4.16699 -48 -12.5s-22.667 -18.833 -30 -31.5s-12.5 -26.5 -15.5 -41.5s-4.5 -29.167 -4.5 -42.5v-363c0 -13.333 1.83301 -26.333 5.5 -39s9.33398 -24 17.001 -34s17.667 -18 30 -24s27.166 -9 44.499 -9c35.333 0 60.333 11.333 75 34s22 50 22 82
v369zM161 751.005l135 109l40 -47l-152 -91z" />
    <glyph glyph-name="Ocircumflex" unicode="&#xd4;" horiz-adv-x="409" 
d="M363 172c0 -58.667 -13.165 -103.164 -39.498 -133.497s-66.166 -45.5 -119.499 -45.5s-92.833 14.333 -118.5 43s-38.5 68.667 -38.5 120v366c0 24.667 2.66699 48 8 70s14.166 41.167 26.499 57.5s28.666 29.166 48.999 38.499s45.166 14 74.499 14
c30 0 55.167 -4.16699 75.5 -12.5s36.5 -20.333 48.5 -36s20.667 -34.334 26 -56.001s8 -45.834 8 -72.501v-353zM301.002 534.003c0 14.667 -1.66895 28.6689 -5.00195 42.002s-8.66602 25.166 -15.999 35.499s-17.166 18.666 -29.499 24.999s-27.5 9.5 -45.5 9.5
c-19.333 0 -35.333 -4.16699 -48 -12.5s-22.667 -18.833 -30 -31.5s-12.5 -26.5 -15.5 -41.5s-4.5 -29.167 -4.5 -42.5v-363c0 -13.333 1.83301 -26.333 5.5 -39s9.33398 -24 17.001 -34s17.667 -18 30 -24s27.166 -9 44.499 -9c35.333 0 60.333 11.333 75 34s22 50 22 82
v369zM205 806.005l-113 -76l-27 23l123 111h40l116 -109l-26 -24z" />
    <glyph glyph-name="Otilde" unicode="&#xd5;" horiz-adv-x="409" 
d="M363 172c0 -58.667 -13.165 -103.164 -39.498 -133.497s-66.166 -45.5 -119.499 -45.5s-92.833 14.333 -118.5 43s-38.5 68.667 -38.5 120v366c0 24.667 2.66699 48 8 70s14.166 41.167 26.499 57.5s28.666 29.166 48.999 38.499s45.166 14 74.499 14
c30 0 55.167 -4.16699 75.5 -12.5s36.5 -20.333 48.5 -36s20.667 -34.334 26 -56.001s8 -45.834 8 -72.501v-353zM301.002 534.003c0 14.667 -1.66895 28.6689 -5.00195 42.002s-8.66602 25.166 -15.999 35.499s-17.166 18.666 -29.499 24.999s-27.5 9.5 -45.5 9.5
c-19.333 0 -35.333 -4.16699 -48 -12.5s-22.667 -18.833 -30 -31.5s-12.5 -26.5 -15.5 -41.5s-4.5 -29.167 -4.5 -42.5v-363c0 -13.333 1.83301 -26.333 5.5 -39s9.33398 -24 17.001 -34s17.667 -18 30 -24s27.166 -9 44.499 -9c35.333 0 60.333 11.333 75 34s22 50 22 82
v369zM341 814.005c-10.667 -22 -23.5 -38.834 -38.5 -50.501s-29.5 -17.5 -43.5 -17.5c-10 0 -19.833 2 -29.5 6s-19.167 8.16699 -28.5 12.5l-27 12.5c-8.66699 4 -17 6 -25 6c-17.333 0 -34 -11.667 -50 -35l-33 20c8 16.667 19.167 31.834 33.5 45.501
s29.833 20.5 46.5 20.5c10 0 19.333 -2 28 -6s17.5 -8.33301 26.5 -13s18.167 -9 27.5 -13s19.333 -6 30 -6c16.667 0 33.667 13 51 39z" />
    <glyph glyph-name="Odieresis" unicode="&#xd6;" horiz-adv-x="409" 
d="M363 172c0 -58.667 -13.165 -103.164 -39.498 -133.497s-66.166 -45.5 -119.499 -45.5s-92.833 14.333 -118.5 43s-38.5 68.667 -38.5 120v366c0 24.667 2.66699 48 8 70s14.166 41.167 26.499 57.5s28.666 29.166 48.999 38.499s45.166 14 74.499 14
c30 0 55.167 -4.16699 75.5 -12.5s36.5 -20.333 48.5 -36s20.667 -34.334 26 -56.001s8 -45.834 8 -72.501v-353zM301.002 534.003c0 14.667 -1.66895 28.6689 -5.00195 42.002s-8.66602 25.166 -15.999 35.499s-17.166 18.666 -29.499 24.999s-27.5 9.5 -45.5 9.5
c-19.333 0 -35.333 -4.16699 -48 -12.5s-22.667 -18.833 -30 -31.5s-12.5 -26.5 -15.5 -41.5s-4.5 -29.167 -4.5 -42.5v-363c0 -13.333 1.83301 -26.333 5.5 -39s9.33398 -24 17.001 -34s17.667 -18 30 -24s27.166 -9 44.499 -9c35.333 0 60.333 11.333 75 34s22 50 22 82
v369zM251 749.005v63h55v-63h-55zM101 749.005v63h56v-63h-56z" />
    <glyph glyph-name="multiply" unicode="&#xd7;" horiz-adv-x="380" 
d="M190 261l-136 -136l-34 34l136 135l-125 126l33 34l127 -126l134 136l33 -34l-134 -135l127 -128l-33 -34z" />
    <glyph glyph-name="Oslash" unicode="&#xd8;" horiz-adv-x="409" 
d="M363 172c0 -58.667 -13.166 -103.165 -39.499 -133.498s-66.166 -45.5 -119.499 -45.5c-50.667 0 -89.334 13.333 -116.001 40l-19 -44l-34 14l28 66c-10.667 23.333 -16 52.333 -16 87v366c0 24.667 2.66699 48 8 70s14.166 41.167 26.499 57.5
s28.666 29.166 48.999 38.499s45.166 14 74.499 14c26.667 0 49.334 -3.33301 68.001 -10s34.334 -16.334 47.001 -29.001l19 43l36 -14l-29 -67c6 -14 10.333 -29.333 13 -46s4 -34.667 4 -54v-353zM107.001 170.002l183.002 423c-6.66699 15.333 -16.834 28 -30.501 38
s-31.834 15 -54.501 15c-19.333 0 -35.333 -4.16699 -48 -12.5s-22.667 -18.833 -30 -31.5s-12.5 -26.5 -15.5 -41.5s-4.5 -29.167 -4.5 -42.5v-348zM301.003 522.002l-183.001 -421c7.33301 -15.333 17.833 -27.833 31.5 -37.5s31.834 -14.5 54.501 -14.5
c35.333 0 60.333 11.333 75 34s22 50 22 82v357z" />
    <glyph glyph-name="Ugrave" unicode="&#xd9;" horiz-adv-x="407" 
d="M361 695v-523c0 -58.667 -13 -103.167 -39 -133.5s-65.667 -45.5 -119 -45.5c-52.667 0 -92.167 14.333 -118.5 43s-39.5 68.667 -39.5 120v539h61v-540c0 -13.333 1.83301 -26.333 5.5 -39s9.33398 -24 17.001 -34s17.667 -18 30 -24s27.166 -9 44.499 -9
c35.333 0 60.333 11.333 75 34s22 50 22 82v530h61zM221 723l-154 91l42 47l135 -109z" />
    <glyph glyph-name="Uacute" unicode="&#xda;" horiz-adv-x="407" 
d="M361 695v-523c0 -58.667 -13 -103.167 -39 -133.5s-65.667 -45.5 -119 -45.5c-52.667 0 -92.167 14.333 -118.5 43s-39.5 68.667 -39.5 120v539h61v-540c0 -13.333 1.83301 -26.333 5.5 -39s9.33398 -24 17.001 -34s17.667 -18 30 -24s27.166 -9 44.499 -9
c35.333 0 60.333 11.333 75 34s22 50 22 82v530h61zM163 751l135 109l40 -47l-152 -91z" />
    <glyph glyph-name="Ucircumflex" unicode="&#xdb;" horiz-adv-x="407" 
d="M361 695v-523c0 -58.667 -13 -103.167 -39 -133.5s-65.667 -45.5 -119 -45.5c-52.667 0 -92.167 14.333 -118.5 43s-39.5 68.667 -39.5 120v539h61v-540c0 -13.333 1.83301 -26.333 5.5 -39s9.33398 -24 17.001 -34s17.667 -18 30 -24s27.166 -9 44.499 -9
c35.333 0 60.333 11.333 75 34s22 50 22 82v530h61zM201 806l-113 -76l-27 23l123 111h40l116 -109l-26 -24z" />
    <glyph glyph-name="Udieresis" unicode="&#xdc;" horiz-adv-x="407" 
d="M361 695v-523c0 -58.667 -13 -103.167 -39 -133.5s-65.667 -45.5 -119 -45.5c-52.667 0 -92.167 14.333 -118.5 43s-39.5 68.667 -39.5 120v539h61v-540c0 -13.333 1.83301 -26.333 5.5 -39s9.33398 -24 17.001 -34s17.667 -18 30 -24s27.166 -9 44.499 -9
c35.333 0 60.333 11.333 75 34s22 50 22 82v530h61zM253 749v63h55v-63h-55zM103 749v63h56v-63h-56z" />
    <glyph glyph-name="Yacute" unicode="&#xdd;" horiz-adv-x="363" 
d="M182 375l44 140l60 181h64l-17 -48.5l-24.5 -71l-28.5 -82l-28.5 -81.5l-24 -71c-7 -21.333 -12.5 -37.333 -16.5 -48v-295h-61v295c-4 10.667 -9.5 26.667 -16.5 48l-24 71l-28.5 81.5l-28.5 82l-24.5 71l-17 48.5h64l60 -183l9 -28l13 -41l13 -41l9 -28h3zM151 751
l135 109l40 -47l-152 -91z" />
    <glyph glyph-name="Thorn" unicode="&#xde;" horiz-adv-x="391" 
d="M52 696l59.999 -0.00292969v-137h80c34.667 0 63.5 -4.66699 86.5 -14s41 -22.833 54 -40.5s22.167 -39 27.5 -64s8 -52.833 8 -83.5c0 -29.333 -2.66699 -56.666 -8 -81.999s-14.666 -47.166 -27.999 -65.499s-31.833 -32.666 -55.5 -42.999s-53.5 -15.5 -89.5 -15.5
h-73v-151h-61zM113.999 207.997h70.001c25.333 0 46 3.5 62 10.5s28.667 17 38 30s15.666 28.667 18.999 47s5 38.5 5 60.5c0 20.667 -1.5 40 -4.5 58s-9 33.5 -18 46.5s-21.5 23.167 -37.5 30.5s-36.667 11 -62 11h-72v-294z" />
    <glyph glyph-name="germandbls" unicode="&#xdf;" horiz-adv-x="366" 
d="M255 429c16.667 -5.33301 29.666 -12.5 38.999 -21.5s16.166 -19.333 20.499 -31s7 -24.5 8 -38.5s1.5 -28 1.5 -42v-157c0 -20 -2.16699 -38.833 -6.5 -56.5s-11.166 -33.167 -20.499 -46.5s-22 -23.833 -38 -31.5s-35.333 -11.5 -58 -11.5h-27v49h10
c30 0 50.5 7.66699 61.5 23s16.5 37.333 16.5 66v186c0 28 -7.83301 49.167 -23.5 63.5s-33.834 20.833 -54.501 19.5v53c22 2.66699 39 10.5 51 23.5s18 30.833 18 53.5v60c0 23.333 -7 42.166 -21 56.499s-32.667 21.5 -56 21.5s-42.166 -7.66699 -56.499 -23
s-21.5 -33.666 -21.5 -54.999v-590h-60v587c0 21.333 3.5 40.5 10.5 57.5s16.667 31.5 29 43.5s27 21.333 44 28s35.5 10 55.5 10c19.333 0 37.333 -2.83301 54 -8.5s31.334 -14 44.001 -25s22.5 -24.667 29.5 -41s10.5 -35.5 10.5 -57.5v-60
c0 -22.667 -4.5 -43.167 -13.5 -61.5s-24.5 -31.833 -46.5 -40.5v-3z" />
    <glyph glyph-name="agrave" unicode="&#xe0;" horiz-adv-x="352" 
d="M37 405c8.66699 28.667 24.6699 51.3311 48.0029 67.998s53 25 89 25c43.333 0 76.833 -9.83301 100.5 -29.5s35.5 -54.167 35.5 -103.5v-365h-62v44h-1c-14.667 -20.667 -31.167 -34.167 -49.5 -40.5s-37.833 -9.5 -58.5 -9.5c-21.333 0 -39.166 4 -53.499 12
s-26 18.5 -35 31.5s-15.5 27.833 -19.5 44.5s-6 34 -6 52c0 18.667 2 37.334 6 56.001s11.333 35.5 22 50.5s24.667 27.333 42 37s39.666 14.5 66.999 14.5h87v72c0 23.333 -5.33301 42 -16 56s-31.334 21 -62.001 21c-14.667 0 -29.834 -4.16699 -45.501 -12.5
s-25.834 -22.166 -30.501 -41.499zM176.003 237.997c-25.333 0 -46.834 -7.5 -64.501 -22.5s-26.5 -41.167 -26.5 -78.5c0 -25.333 5.83301 -45.833 17.5 -61.5s31.5 -23.5 59.5 -23.5c26.667 0 47.834 7.33301 63.501 22s23.5 36 23.5 64v100h-73zM171.002 555.997l-92 152
l58 21l68 -159z" />
    <glyph glyph-name="aacute" unicode="&#xe1;" horiz-adv-x="352" 
d="M37 405c8.66699 28.667 24.6699 51.3311 48.0029 67.998s53 25 89 25c43.333 0 76.833 -9.83301 100.5 -29.5s35.5 -54.167 35.5 -103.5v-365h-62v44h-1c-14.667 -20.667 -31.167 -34.167 -49.5 -40.5s-37.833 -9.5 -58.5 -9.5c-21.333 0 -39.166 4 -53.499 12
s-26 18.5 -35 31.5s-15.5 27.833 -19.5 44.5s-6 34 -6 52c0 18.667 2 37.334 6 56.001s11.333 35.5 22 50.5s24.667 27.333 42 37s39.666 14.5 66.999 14.5h87v72c0 23.333 -5.33301 42 -16 56s-31.334 21 -62.001 21c-14.667 0 -29.834 -4.16699 -45.501 -12.5
s-25.834 -22.166 -30.501 -41.499zM176.003 237.997c-25.333 0 -46.834 -7.5 -64.501 -22.5s-26.5 -41.167 -26.5 -78.5c0 -25.333 5.83301 -45.833 17.5 -61.5s31.5 -23.5 59.5 -23.5c26.667 0 47.834 7.33301 63.501 22s23.5 36 23.5 64v100h-73zM143.002 569.997l67 159
l59 -21l-92 -152z" />
    <glyph glyph-name="acircumflex" unicode="&#xe2;" horiz-adv-x="352" 
d="M37 405c8.66699 28.667 24.6699 51.3311 48.0029 67.998s53 25 89 25c43.333 0 76.833 -9.83301 100.5 -29.5s35.5 -54.167 35.5 -103.5v-365h-62v44h-1c-14.667 -20.667 -31.167 -34.167 -49.5 -40.5s-37.833 -9.5 -58.5 -9.5c-21.333 0 -39.166 4 -53.499 12
s-26 18.5 -35 31.5s-15.5 27.833 -19.5 44.5s-6 34 -6 52c0 18.667 2 37.334 6 56.001s11.333 35.5 22 50.5s24.667 27.333 42 37s39.666 14.5 66.999 14.5h87v72c0 23.333 -5.33301 42 -16 56s-31.334 21 -62.001 21c-14.667 0 -29.834 -4.16699 -45.501 -12.5
s-25.834 -22.166 -30.501 -41.499zM176.003 237.997c-25.333 0 -46.834 -7.5 -64.501 -22.5s-26.5 -41.167 -26.5 -78.5c0 -25.333 5.83301 -45.833 17.5 -61.5s31.5 -23.5 59.5 -23.5c26.667 0 47.834 7.33301 63.501 22s23.5 36 23.5 64v100h-73zM177.002 646.997
l-113 -95l-27 22l123 131h39l117 -129l-27 -24z" />
    <glyph glyph-name="atilde" unicode="&#xe3;" horiz-adv-x="352" 
d="M37 405c8.66699 28.667 24.6699 51.3311 48.0029 67.998s53 25 89 25c43.333 0 76.833 -9.83301 100.5 -29.5s35.5 -54.167 35.5 -103.5v-365h-62v44h-1c-14.667 -20.667 -31.167 -34.167 -49.5 -40.5s-37.833 -9.5 -58.5 -9.5c-21.333 0 -39.166 4 -53.499 12
s-26 18.5 -35 31.5s-15.5 27.833 -19.5 44.5s-6 34 -6 52c0 18.667 2 37.334 6 56.001s11.333 35.5 22 50.5s24.667 27.333 42 37s39.666 14.5 66.999 14.5h87v72c0 23.333 -5.33301 42 -16 56s-31.334 21 -62.001 21c-14.667 0 -29.834 -4.16699 -45.501 -12.5
s-25.834 -22.166 -30.501 -41.499zM176.003 237.997c-25.333 0 -46.834 -7.5 -64.501 -22.5s-26.5 -41.167 -26.5 -78.5c0 -25.333 5.83301 -45.833 17.5 -61.5s31.5 -23.5 59.5 -23.5c26.667 0 47.834 7.33301 63.501 22s23.5 36 23.5 64v100h-73zM318.002 643.997
c-10.667 -22 -23.5 -38.834 -38.5 -50.501s-29.5 -17.5 -43.5 -17.5c-10 0 -19.833 2 -29.5 6s-19.167 8.16699 -28.5 12.5l-27 12.5c-8.66699 4 -17 6 -25 6c-17.333 0 -34 -11.667 -50 -35l-33 20c8 16.667 19.167 31.834 33.5 45.501s29.833 20.5 46.5 20.5
c10 0 19.333 -2 28 -6s17.5 -8.33301 26.5 -13s18.167 -9 27.5 -13s19.333 -6 30 -6c16.667 0 33.667 13 51 39z" />
    <glyph glyph-name="adieresis" unicode="&#xe4;" horiz-adv-x="352" 
d="M37 405c8.66699 28.667 24.6699 51.3311 48.0029 67.998s53 25 89 25c43.333 0 76.833 -9.83301 100.5 -29.5s35.5 -54.167 35.5 -103.5v-365h-62v44h-1c-14.667 -20.667 -31.167 -34.167 -49.5 -40.5s-37.833 -9.5 -58.5 -9.5c-21.333 0 -39.166 4 -53.499 12
s-26 18.5 -35 31.5s-15.5 27.833 -19.5 44.5s-6 34 -6 52c0 18.667 2 37.334 6 56.001s11.333 35.5 22 50.5s24.667 27.333 42 37s39.666 14.5 66.999 14.5h87v72c0 23.333 -5.33301 42 -16 56s-31.334 21 -62.001 21c-14.667 0 -29.834 -4.16699 -45.501 -12.5
s-25.834 -22.166 -30.501 -41.499zM176.003 237.997c-25.333 0 -46.834 -7.5 -64.501 -22.5s-26.5 -41.167 -26.5 -78.5c0 -25.333 5.83301 -45.833 17.5 -61.5s31.5 -23.5 59.5 -23.5c26.667 0 47.834 7.33301 63.501 22s23.5 36 23.5 64v100h-73zM74.002 586.997v64h56
v-64h-56zM225.002 586.997v64h55v-64h-55z" />
    <glyph glyph-name="aring" unicode="&#xe5;" horiz-adv-x="352" 
d="M37 405c8.66699 28.667 24.6699 51.3311 48.0029 67.998s53 25 89 25c43.333 0 76.833 -9.83301 100.5 -29.5s35.5 -54.167 35.5 -103.5v-365h-62v44h-1c-14.667 -20.667 -31.167 -34.167 -49.5 -40.5s-37.833 -9.5 -58.5 -9.5c-21.333 0 -39.166 4 -53.499 12
s-26 18.5 -35 31.5s-15.5 27.833 -19.5 44.5s-6 34 -6 52c0 18.667 2 37.334 6 56.001s11.333 35.5 22 50.5s24.667 27.333 42 37s39.666 14.5 66.999 14.5h87v72c0 23.333 -5.33301 42 -16 56s-31.334 21 -62.001 21c-14.667 0 -29.834 -4.16699 -45.501 -12.5
s-25.834 -22.166 -30.501 -41.499zM176.003 237.997c-25.333 0 -46.834 -7.5 -64.501 -22.5s-26.5 -41.167 -26.5 -78.5c0 -25.333 5.83301 -45.833 17.5 -61.5s31.5 -23.5 59.5 -23.5c26.667 0 47.834 7.33301 63.501 22s23.5 36 23.5 64v100h-73zM186.002 545.997
c-24 0 -44.333 8.33301 -61 25s-25 37 -25 61s8.33301 44.333 25 61s37 25 61 25c23.333 0 43.333 -8.33301 60 -25s25 -37 25 -61s-8.33301 -44.333 -25 -61s-36.667 -25 -60 -25zM186.002 681.997c-14 0 -26 -5 -36 -15s-15 -22 -15 -36s5 -26 15 -36s22 -15 36 -15
c13.333 0 25 5 35 15s15 22 15 36s-5 26 -15 36s-21.667 15 -35 15z" />
    <glyph glyph-name="ae" unicode="&#xe6;" horiz-adv-x="559" 
d="M389 -7c-30 0 -54.832 5.66699 -74.499 17s-34.834 26 -45.501 44c-10 -13.333 -20.333 -24 -31 -32s-21.167 -14 -31.5 -18s-20.166 -6.66699 -29.499 -8s-18 -2 -26 -2c-25.333 0 -46.166 4 -62.499 12s-29.333 18.667 -39 32s-16.5 28.333 -20.5 45s-6 34 -6 52
c0 18.667 2.33301 37.167 7 55.5s12.334 35 23.001 50s24.667 27.167 42 36.5s38.666 14 63.999 14h87v73c0 23.333 -5.83301 42 -17.5 56s-31.834 21 -60.501 21c-18 0 -33.833 -4.66699 -47.5 -14s-22.834 -22.666 -27.501 -39.999l-58 18c8 28.667 24.167 51.5 48.5 68.5
s53.5 25.5 87.5 25.5c30 0 53.667 -4.33301 71 -13s30 -20.667 38 -36c24.667 32.667 63 49 115 49c46 0 80.5 -12.5 103.5 -37.5s34.5 -60.5 34.5 -106.5v-117h-222v-29.5c0 -12.333 0.166992 -25 0.5 -38s0.833008 -24.833 1.5 -35.5s1.66699 -18 3 -22
c3.33301 -18.667 11.5 -33.834 24.5 -45.501s30.5 -17.5 52.5 -17.5c24.667 0 43.167 7.66699 55.5 23s19.5 33.333 21.5 54l61 -14c-5.33301 -36 -19 -65 -41 -87s-55.667 -33 -101 -33zM246.001 239h-72c-25.333 0 -46.833 -7.66699 -64.5 -23s-26.5 -41.333 -26.5 -78
c0 -23.333 6.33301 -43.333 19 -60s33.667 -25 63 -25c24 0 43.5 7.5 58.5 22.5s22.5 36.167 22.5 63.5v100zM471.001 290v53.999c0 27.333 -5.83301 50.333 -17.5 69s-32.5 28 -62.5 28c-39.333 0 -63.666 -20 -72.999 -60c-1.33301 -3.33301 -2.33301 -8.5 -3 -15.5
s-1.33398 -14.833 -2.00098 -23.5s-1.16699 -17.667 -1.5 -27s-0.5 -17.666 -0.5 -24.999h160z" />
    <glyph glyph-name="ccedilla" unicode="&#xe7;" horiz-adv-x="332" 
d="M178 498c46 0 79.666 -12.001 100.999 -36.001s32 -57.667 32 -101l-63 -9v1c2.66699 26 -2.83301 47.5 -16.5 64.5s-32.5 25.5 -56.5 25.5c-15.333 0 -29.166 -3.66699 -41.499 -11s-21.833 -19.333 -28.5 -36c-5.33301 -12.667 -8.5 -33.667 -9.5 -63
s-1.83301 -64 -2.5 -104l2 -75c0.666992 -24 2.66699 -42 6 -54c5.33301 -16 14 -28.667 26 -38s27.667 -14 47 -14c24 0 42.5 7.33301 55.5 22s19.167 37 18.5 67l63 -11c-2 -82 -42.333 -126 -121 -132l-13 -53c15.333 -1.33301 28 -4.5 38 -9.5s18 -11 24 -18
s10.167 -14.667 12.5 -23s3.5 -15.833 3.5 -22.5c0 -8 -1.5 -16.333 -4.5 -25s-7.66699 -16.5 -14 -23.5s-14.5 -12.833 -24.5 -17.5s-22.333 -7 -37 -7c-7.33301 0 -18.5 0.833008 -33.5 2.5s-29.5 6.16699 -43.5 13.5l11 30
c11.333 -5.33301 21.833 -8.66602 31.5 -9.99902s18.5 -2 26.5 -2c12 0 22.167 3.16699 30.5 9.5s12.5 15.833 12.5 28.5c0 13.333 -4.5 23.833 -13.5 31.5s-23.5 11.167 -43.5 10.5l-16 13l20 72c-36 2.66699 -62.833 12.834 -80.5 30.501s-29.167 37.5 -34.5 59.5
c-2 8 -3.66699 18.167 -5 30.5s-2.16602 25.666 -2.49902 39.999l-1 43.5c-0.333008 14.667 -0.5 28.667 -0.5 42c0 17.333 0.166992 35 0.5 53s1.16602 35 2.49902 51s2.83301 30.5 4.5 43.5s4.16699 23.5 7.5 31.5c8.66699 24 23.5 43.167 44.5 57.5s49.5 21.5 85.5 21.5z
" />
    <glyph glyph-name="egrave" unicode="&#xe8;" horiz-adv-x="350" 
d="M178 498c40 0 71.165 -9.83105 93.498 -29.498s35.5 -47.5 39.5 -83.5c0.666992 -7.33301 1.16699 -14.666 1.5 -21.999s0.5 -14.666 0.5 -21.999v-110h-220c0 -6.66699 0.166992 -13 0.5 -19s0.5 -12.333 0.5 -19c0 -17.333 0.5 -35 1.5 -53s3.16699 -31.667 6.5 -41
c10.667 -33.333 34.667 -50 72 -50c25.333 0 44 7.5 56 22.5s18.667 34.833 20 59.5l62 -12c-3.33301 -40.667 -16.833 -71.834 -40.5 -93.501s-57.167 -32.5 -100.5 -32.5c-20.667 0 -38.5 2.66699 -53.5 8s-27.667 12.166 -38 20.499s-18.666 18 -24.999 29
s-10.833 22.167 -13.5 33.5c-2 8 -3.66699 18.167 -5 30.5s-2.16602 25.666 -2.49902 39.999l-1 43.5c-0.333008 14.667 -0.5 28.667 -0.5 42c0 17.333 0.166992 34.666 0.5 51.999s1.16602 34 2.49902 50s2.83301 30.5 4.5 43.5s4.16699 23.833 7.5 32.5
c9.33301 24.667 24.333 44.167 45 58.5s49.334 21.5 86.001 21.5zM103.998 395.002c-4 -10.667 -6.49805 -25.5 -7.49805 -44.5s-1.83301 -42.167 -2.5 -69.5h158v52c0 14 -0.833008 27.5 -2.5 40.5s-5.33398 24.5 -11.001 34.5s-13.5 18 -23.5 24s-23.333 9 -40 9
c-14.667 0 -28.334 -3.33301 -41.001 -10s-22.667 -18.667 -30 -36zM178 556.002l-92 152l58 21l68 -159z" />
    <glyph glyph-name="eacute" unicode="&#xe9;" horiz-adv-x="350" 
d="M178 498c40 0 71.165 -9.83105 93.498 -29.498s35.5 -47.5 39.5 -83.5c0.666992 -7.33301 1.16699 -14.666 1.5 -21.999s0.5 -14.666 0.5 -21.999v-110h-220c0 -6.66699 0.166992 -13 0.5 -19s0.5 -12.333 0.5 -19c0 -17.333 0.5 -35 1.5 -53s3.16699 -31.667 6.5 -41
c10.667 -33.333 34.667 -50 72 -50c25.333 0 44 7.5 56 22.5s18.667 34.833 20 59.5l62 -12c-3.33301 -40.667 -16.833 -71.834 -40.5 -93.501s-57.167 -32.5 -100.5 -32.5c-20.667 0 -38.5 2.66699 -53.5 8s-27.667 12.166 -38 20.499s-18.666 18 -24.999 29
s-10.833 22.167 -13.5 33.5c-2 8 -3.66699 18.167 -5 30.5s-2.16602 25.666 -2.49902 39.999l-1 43.5c-0.333008 14.667 -0.5 28.667 -0.5 42c0 17.333 0.166992 34.666 0.5 51.999s1.16602 34 2.49902 50s2.83301 30.5 4.5 43.5s4.16699 23.833 7.5 32.5
c9.33301 24.667 24.333 44.167 45 58.5s49.334 21.5 86.001 21.5zM103.998 395.002c-4 -10.667 -6.49805 -25.5 -7.49805 -44.5s-1.83301 -42.167 -2.5 -69.5h158v52c0 14 -0.833008 27.5 -2.5 40.5s-5.33398 24.5 -11.001 34.5s-13.5 18 -23.5 24s-23.333 9 -40 9
c-14.667 0 -28.334 -3.33301 -41.001 -10s-22.667 -18.667 -30 -36zM147 570.002l67 159l59 -21l-92 -152z" />
    <glyph glyph-name="ecircumflex" unicode="&#xea;" horiz-adv-x="350" 
d="M178 498c40 0 71.165 -9.83105 93.498 -29.498s35.5 -47.5 39.5 -83.5c0.666992 -7.33301 1.16699 -14.666 1.5 -21.999s0.5 -14.666 0.5 -21.999v-110h-220c0 -6.66699 0.166992 -13 0.5 -19s0.5 -12.333 0.5 -19c0 -17.333 0.5 -35 1.5 -53s3.16699 -31.667 6.5 -41
c10.667 -33.333 34.667 -50 72 -50c25.333 0 44 7.5 56 22.5s18.667 34.833 20 59.5l62 -12c-3.33301 -40.667 -16.833 -71.834 -40.5 -93.501s-57.167 -32.5 -100.5 -32.5c-20.667 0 -38.5 2.66699 -53.5 8s-27.667 12.166 -38 20.499s-18.666 18 -24.999 29
s-10.833 22.167 -13.5 33.5c-2 8 -3.66699 18.167 -5 30.5s-2.16602 25.666 -2.49902 39.999l-1 43.5c-0.333008 14.667 -0.5 28.667 -0.5 42c0 17.333 0.166992 34.666 0.5 51.999s1.16602 34 2.49902 50s2.83301 30.5 4.5 43.5s4.16699 23.833 7.5 32.5
c9.33301 24.667 24.333 44.167 45 58.5s49.334 21.5 86.001 21.5zM103.998 395.002c-4 -10.667 -6.49805 -25.5 -7.49805 -44.5s-1.83301 -42.167 -2.5 -69.5h158v52c0 14 -0.833008 27.5 -2.5 40.5s-5.33398 24.5 -11.001 34.5s-13.5 18 -23.5 24s-23.333 9 -40 9
c-14.667 0 -28.334 -3.33301 -41.001 -10s-22.667 -18.667 -30 -36zM176 647.002l-113 -95l-27 22l123 131h39l117 -129l-27 -24z" />
    <glyph glyph-name="edieresis" unicode="&#xeb;" horiz-adv-x="350" 
d="M178 498c40 0 71.165 -9.83105 93.498 -29.498s35.5 -47.5 39.5 -83.5c0.666992 -7.33301 1.16699 -14.666 1.5 -21.999s0.5 -14.666 0.5 -21.999v-110h-220c0 -6.66699 0.166992 -13 0.5 -19s0.5 -12.333 0.5 -19c0 -17.333 0.5 -35 1.5 -53s3.16699 -31.667 6.5 -41
c10.667 -33.333 34.667 -50 72 -50c25.333 0 44 7.5 56 22.5s18.667 34.833 20 59.5l62 -12c-3.33301 -40.667 -16.833 -71.834 -40.5 -93.501s-57.167 -32.5 -100.5 -32.5c-20.667 0 -38.5 2.66699 -53.5 8s-27.667 12.166 -38 20.499s-18.666 18 -24.999 29
s-10.833 22.167 -13.5 33.5c-2 8 -3.66699 18.167 -5 30.5s-2.16602 25.666 -2.49902 39.999l-1 43.5c-0.333008 14.667 -0.5 28.667 -0.5 42c0 17.333 0.166992 34.666 0.5 51.999s1.16602 34 2.49902 50s2.83301 30.5 4.5 43.5s4.16699 23.833 7.5 32.5
c9.33301 24.667 24.333 44.167 45 58.5s49.334 21.5 86.001 21.5zM103.998 395.002c-4 -10.667 -6.49805 -25.5 -7.49805 -44.5s-1.83301 -42.167 -2.5 -69.5h158v52c0 14 -0.833008 27.5 -2.5 40.5s-5.33398 24.5 -11.001 34.5s-13.5 18 -23.5 24s-23.333 9 -40 9
c-14.667 0 -28.334 -3.33301 -41.001 -10s-22.667 -18.667 -30 -36zM70 587.002v64h56v-64h-56zM221 587.002v64h55v-64h-55z" />
    <glyph glyph-name="igrave" unicode="&#xec;" horiz-adv-x="174" 
d="M60 0v492h62v-492h-62zM78 556l-92 152l58 21l68 -159z" />
    <glyph glyph-name="iacute" unicode="&#xed;" horiz-adv-x="172" 
d="M49 0v492h62v-492h-62zM59 570l67 159l59 -21l-92 -152z" />
    <glyph glyph-name="icircumflex" unicode="&#xee;" horiz-adv-x="239" 
d="M86 0v492h62v-492h-62zM120 647l-113 -95l-27 22l123 131h39l117 -129l-27 -24z" />
    <glyph glyph-name="idieresis" unicode="&#xef;" horiz-adv-x="166" 
d="M53 0v492h62v-492h-62zM131 587v64h55v-64h-55zM-20 587v64h56v-64h-56z" />
    <glyph glyph-name="eth" unicode="&#xf0;" horiz-adv-x="362" 
d="M171 478c5.33301 0 12.165 -0.666992 20.498 -2s17 -3.66602 26 -6.99902s17.667 -8 26 -14s15.5 -13.667 21.5 -23h1v27.5c0 9 -0.333008 18.167 -1 27.5c0 17.333 -1.33301 34 -4 50s-6.66699 30.667 -12 44l-70 -50l-21 31l73 52
c-2 3.33301 -4.16699 6.16602 -6.5 8.49902l-8.5 8.5c-12.667 13.333 -29 24.166 -49 32.499s-40.667 14.166 -62 17.499l6 50c34 -3.33301 62.5 -9.83301 85.5 -19.5s40.833 -20.167 53.5 -31.5c11.333 -10 21 -20.667 29 -32l61 44l22 -29l-64 -46
c11.333 -20 18.5 -57.5 21.5 -112.5s4.5 -129.167 4.5 -222.5c0 -31.333 -0.666992 -62.333 -2 -93s-2.66602 -54.667 -3.99902 -72c-2.66699 -25.333 -8.83398 -46 -18.501 -62s-21.167 -28.5 -34.5 -37.5s-28.166 -15.333 -44.499 -19s-32.166 -5.5 -47.499 -5.5
c-20 0 -37.5 2.5 -52.5 7.5s-27.667 11.667 -38 20s-18.833 18.166 -25.5 29.499s-11.667 23.333 -15 36c-2 7.33301 -3.5 16.833 -4.5 28.5s-1.83301 24.5 -2.5 38.5s-1.16699 28.333 -1.5 43s-0.5 28.667 -0.5 42c1.33301 42.667 3 76.334 5 101.001
s5.66699 44.334 11 59.001c8.66699 22.667 23.167 41.334 43.5 56.001s46.5 22.667 78.5 24zM179.999 423c-16.667 0 -31.4961 -3.83105 -44.4961 -11.498s-23.167 -20.167 -30.5 -37.5c-4 -11.333 -6.66699 -25.5 -8 -42.5s-2.33301 -41.5 -3 -73.5v-39
c0 -27.333 0.333008 -51.333 1 -72s3 -36.667 7 -48c5.33301 -16.667 14.166 -29.5 26.499 -38.5s29.166 -13.5 50.499 -13.5c18 0 33.667 5.16699 47 15.5s22.666 24.166 27.999 41.499c3.33301 9.33301 5.66602 26.333 6.99902 51s2 51 2 79v67
c0 13.333 -0.666992 25.666 -2 36.999s-3 21 -5 29c-5.33301 17.333 -14 31 -26 41s-28.667 15 -50 15z" />
    <glyph glyph-name="ntilde" unicode="&#xf1;" horiz-adv-x="362" 
d="M100 440h2.00293c11.333 18.667 26.166 33 44.499 43s38.5 15 60.5 15c20.667 0 38.167 -3.33301 52.5 -10s26.166 -15.667 35.499 -27s16.166 -25 20.499 -41s6.5 -33.333 6.5 -52v-368h-63v350c0 25.333 -5.33301 46 -16 62s-30 24 -58 24
c-27.333 0 -48.5 -9.16699 -63.5 -27.5s-22.5 -40.5 -22.5 -66.5v-342h-61v492h62v-52zM308.003 644c-10.667 -22 -23.5 -38.834 -38.5 -50.501s-29.5 -17.5 -43.5 -17.5c-10 0 -19.833 2 -29.5 6s-19.167 8.16699 -28.5 12.5l-27 12.5c-8.66699 4 -17 6 -25 6
c-17.333 0 -34 -11.667 -50 -35l-33 20c8 16.667 19.167 31.834 33.5 45.501s29.833 20.5 46.5 20.5c10 0 19.333 -2 28 -6s17.5 -8.33301 26.5 -13s18.167 -9 27.5 -13s19.333 -6 30 -6c16.667 0 33.667 13 51 39z" />
    <glyph glyph-name="ograve" unicode="&#xf2;" horiz-adv-x="356" 
d="M180 498c37.333 0 66.1689 -7.33105 86.502 -21.998s34.5 -33 42.5 -55c6 -17.333 9.83301 -39.333 11.5 -66s2.5 -53.334 2.5 -80.001v-49c0 -18 -0.333008 -35.833 -1 -53.5s-2 -36.5 -4 -56.5c-2.66699 -24.667 -8.83398 -45 -18.501 -61s-21.334 -28.5 -35.001 -37.5
s-28.5 -15.333 -44.5 -19s-31.667 -5.5 -47 -5.5c-40.667 0 -71 8.83301 -91 26.5s-33.333 39.167 -40 64.5c-2 8 -3.66699 18.167 -5 30.5s-2.33301 25.666 -3 39.999s-1 28.833 -1 43.5v42c0 17.333 0.166992 34.833 0.5 52.5s1.16602 34.5 2.49902 50.5
s2.83301 30.5 4.5 43.5s4.16699 23.5 7.5 31.5c8.66699 24 23.834 43.333 45.501 58s50.5 22 86.5 22zM179.003 443.002c-15.333 0 -29.6709 -3.33301 -43.0039 -10s-23.666 -18.667 -30.999 -36c-4.66699 -12 -7.66699 -30.333 -9 -55s-2 -54 -2 -88v-32
c0 -27.333 0.333008 -51.666 1 -72.999s3 -37.666 7 -48.999c10 -34 35.667 -51 77 -51c19.333 0 35.833 5.66699 49.5 17s22.834 26.666 27.501 45.999c2 12 3.66699 29.667 5 53s2 47.666 2 72.999c0 14 -0.166992 28.667 -0.5 44l-1 44
c-0.333008 14 -1.16602 26.667 -2.49902 38s-3 20 -5 26c-5.33301 17.333 -14.666 30.5 -27.999 39.5s-29 13.5 -47 13.5zM167.998 556.002l-92 152l58 21l68 -159z" />
    <glyph glyph-name="oacute" unicode="&#xf3;" horiz-adv-x="356" 
d="M180 498c37.333 0 66.1689 -7.33105 86.502 -21.998s34.5 -33 42.5 -55c6 -17.333 9.83301 -39.333 11.5 -66s2.5 -53.334 2.5 -80.001v-49c0 -18 -0.333008 -35.833 -1 -53.5s-2 -36.5 -4 -56.5c-2.66699 -24.667 -8.83398 -45 -18.501 -61s-21.334 -28.5 -35.001 -37.5
s-28.5 -15.333 -44.5 -19s-31.667 -5.5 -47 -5.5c-40.667 0 -71 8.83301 -91 26.5s-33.333 39.167 -40 64.5c-2 8 -3.66699 18.167 -5 30.5s-2.33301 25.666 -3 39.999s-1 28.833 -1 43.5v42c0 17.333 0.166992 34.833 0.5 52.5s1.16602 34.5 2.49902 50.5
s2.83301 30.5 4.5 43.5s4.16699 23.5 7.5 31.5c8.66699 24 23.834 43.333 45.501 58s50.5 22 86.5 22zM179.003 443.002c-15.333 0 -29.6709 -3.33301 -43.0039 -10s-23.666 -18.667 -30.999 -36c-4.66699 -12 -7.66699 -30.333 -9 -55s-2 -54 -2 -88v-32
c0 -27.333 0.333008 -51.666 1 -72.999s3 -37.666 7 -48.999c10 -34 35.667 -51 77 -51c19.333 0 35.833 5.66699 49.5 17s22.834 26.666 27.501 45.999c2 12 3.66699 29.667 5 53s2 47.666 2 72.999c0 14 -0.166992 28.667 -0.5 44l-1 44
c-0.333008 14 -1.16602 26.667 -2.49902 38s-3 20 -5 26c-5.33301 17.333 -14.666 30.5 -27.999 39.5s-29 13.5 -47 13.5zM140.998 570.002l67 159l59 -21l-92 -152z" />
    <glyph glyph-name="ocircumflex" unicode="&#xf4;" horiz-adv-x="356" 
d="M180 498c37.333 0 66.1689 -7.33105 86.502 -21.998s34.5 -33 42.5 -55c6 -17.333 9.83301 -39.333 11.5 -66s2.5 -53.334 2.5 -80.001v-49c0 -18 -0.333008 -35.833 -1 -53.5s-2 -36.5 -4 -56.5c-2.66699 -24.667 -8.83398 -45 -18.501 -61s-21.334 -28.5 -35.001 -37.5
s-28.5 -15.333 -44.5 -19s-31.667 -5.5 -47 -5.5c-40.667 0 -71 8.83301 -91 26.5s-33.333 39.167 -40 64.5c-2 8 -3.66699 18.167 -5 30.5s-2.33301 25.666 -3 39.999s-1 28.833 -1 43.5v42c0 17.333 0.166992 34.833 0.5 52.5s1.16602 34.5 2.49902 50.5
s2.83301 30.5 4.5 43.5s4.16699 23.5 7.5 31.5c8.66699 24 23.834 43.333 45.501 58s50.5 22 86.5 22zM179.003 443.002c-15.333 0 -29.6709 -3.33301 -43.0039 -10s-23.666 -18.667 -30.999 -36c-4.66699 -12 -7.66699 -30.333 -9 -55s-2 -54 -2 -88v-32
c0 -27.333 0.333008 -51.666 1 -72.999s3 -37.666 7 -48.999c10 -34 35.667 -51 77 -51c19.333 0 35.833 5.66699 49.5 17s22.834 26.666 27.501 45.999c2 12 3.66699 29.667 5 53s2 47.666 2 72.999c0 14 -0.166992 28.667 -0.5 44l-1 44
c-0.333008 14 -1.16602 26.667 -2.49902 38s-3 20 -5 26c-5.33301 17.333 -14.666 30.5 -27.999 39.5s-29 13.5 -47 13.5zM179.998 647.002l-113 -95l-27 22l123 131h39l117 -129l-27 -24z" />
    <glyph glyph-name="otilde" unicode="&#xf5;" horiz-adv-x="356" 
d="M180 498c37.333 0 66.1689 -7.33105 86.502 -21.998s34.5 -33 42.5 -55c6 -17.333 9.83301 -39.333 11.5 -66s2.5 -53.334 2.5 -80.001v-49c0 -18 -0.333008 -35.833 -1 -53.5s-2 -36.5 -4 -56.5c-2.66699 -24.667 -8.83398 -45 -18.501 -61s-21.334 -28.5 -35.001 -37.5
s-28.5 -15.333 -44.5 -19s-31.667 -5.5 -47 -5.5c-40.667 0 -71 8.83301 -91 26.5s-33.333 39.167 -40 64.5c-2 8 -3.66699 18.167 -5 30.5s-2.33301 25.666 -3 39.999s-1 28.833 -1 43.5v42c0 17.333 0.166992 34.833 0.5 52.5s1.16602 34.5 2.49902 50.5
s2.83301 30.5 4.5 43.5s4.16699 23.5 7.5 31.5c8.66699 24 23.834 43.333 45.501 58s50.5 22 86.5 22zM179.003 443.002c-15.333 0 -29.6709 -3.33301 -43.0039 -10s-23.666 -18.667 -30.999 -36c-4.66699 -12 -7.66699 -30.333 -9 -55s-2 -54 -2 -88v-32
c0 -27.333 0.333008 -51.666 1 -72.999s3 -37.666 7 -48.999c10 -34 35.667 -51 77 -51c19.333 0 35.833 5.66699 49.5 17s22.834 26.666 27.501 45.999c2 12 3.66699 29.667 5 53s2 47.666 2 72.999c0 14 -0.166992 28.667 -0.5 44l-1 44
c-0.333008 14 -1.16602 26.667 -2.49902 38s-3 20 -5 26c-5.33301 17.333 -14.666 30.5 -27.999 39.5s-29 13.5 -47 13.5zM316.998 644.002c-10.667 -22 -23.5 -38.834 -38.5 -50.501s-29.5 -17.5 -43.5 -17.5c-10 0 -19.833 2 -29.5 6s-19.167 8.16699 -28.5 12.5l-27 12.5
c-8.66699 4 -17 6 -25 6c-17.333 0 -34 -11.667 -50 -35l-33 20c8 16.667 19.167 31.834 33.5 45.501s29.833 20.5 46.5 20.5c10 0 19.333 -2 28 -6s17.5 -8.33301 26.5 -13s18.167 -9 27.5 -13s19.333 -6 30 -6c16.667 0 33.667 13 51 39z" />
    <glyph glyph-name="odieresis" unicode="&#xf6;" horiz-adv-x="356" 
d="M180 498c37.333 0 66.1689 -7.33105 86.502 -21.998s34.5 -33 42.5 -55c6 -17.333 9.83301 -39.333 11.5 -66s2.5 -53.334 2.5 -80.001v-49c0 -18 -0.333008 -35.833 -1 -53.5s-2 -36.5 -4 -56.5c-2.66699 -24.667 -8.83398 -45 -18.501 -61s-21.334 -28.5 -35.001 -37.5
s-28.5 -15.333 -44.5 -19s-31.667 -5.5 -47 -5.5c-40.667 0 -71 8.83301 -91 26.5s-33.333 39.167 -40 64.5c-2 8 -3.66699 18.167 -5 30.5s-2.33301 25.666 -3 39.999s-1 28.833 -1 43.5v42c0 17.333 0.166992 34.833 0.5 52.5s1.16602 34.5 2.49902 50.5
s2.83301 30.5 4.5 43.5s4.16699 23.5 7.5 31.5c8.66699 24 23.834 43.333 45.501 58s50.5 22 86.5 22zM179.003 443.002c-15.333 0 -29.6709 -3.33301 -43.0039 -10s-23.666 -18.667 -30.999 -36c-4.66699 -12 -7.66699 -30.333 -9 -55s-2 -54 -2 -88v-32
c0 -27.333 0.333008 -51.666 1 -72.999s3 -37.666 7 -48.999c10 -34 35.667 -51 77 -51c19.333 0 35.833 5.66699 49.5 17s22.834 26.666 27.501 45.999c2 12 3.66699 29.667 5 53s2 47.666 2 72.999c0 14 -0.166992 28.667 -0.5 44l-1 44
c-0.333008 14 -1.16602 26.667 -2.49902 38s-3 20 -5 26c-5.33301 17.333 -14.666 30.5 -27.999 39.5s-29 13.5 -47 13.5zM71.998 587.002v64h56v-64h-56zM222.998 587.002v64h55v-64h-55z" />
    <glyph glyph-name="divide" unicode="&#xf7;" horiz-adv-x="367" 
d="M228 447c0 -12.667 -4.33301 -23.334 -13 -32.001s-19 -13 -31 -13s-22.333 4.33301 -31 13s-13 19.334 -13 32.001c0 12 4.33301 22.333 13 31s19 13 31 13s22.333 -4.33301 31 -13s13 -19 13 -31zM12 269v50h341v-50h-341zM184 182c12 0 22.333 -4.33301 31 -13
s13 -19.334 13 -32.001c0 -12 -4.33301 -22.5 -13 -31.5s-19 -13.5 -31 -13.5s-22.333 4.5 -31 13.5s-13 19.5 -13 31.5c0 12.667 4.33301 23.334 13 32.001s19 13 31 13z" />
    <glyph glyph-name="oslash" unicode="&#xf8;" horiz-adv-x="356" 
d="M180 498c20.667 0 38.668 -2.49805 54.001 -7.49805s28.333 -11.833 39 -20.5l17 32l29 -16l-22 -42c4.66699 -6.66699 8.66699 -14.334 12 -23.001c6 -17.333 9.83301 -39.333 11.5 -66s2.5 -53.334 2.5 -80.001v-49c0 -18 -0.333008 -35.833 -1 -53.5
s-2 -36.5 -4 -56.5c-2.66699 -24.667 -8.83398 -45 -18.501 -61s-21.334 -28.5 -35.001 -37.5s-28.5 -15.333 -44.5 -19s-31.667 -5.5 -47 -5.5c-21.333 0 -39.666 2.5 -54.999 7.5s-28.333 12.167 -39 21.5c-3.33301 -5.33301 -6.33301 -10.666 -9 -15.999l-8 -16l-26 15
l21 42c-6.66699 10.667 -11.667 23 -15 37c-2 8 -3.66699 18.167 -5 30.5s-2.33301 25.666 -3 39.999s-1 28.833 -1 43.5v42c0 17.333 0.166992 34.833 0.5 52.5s1.16602 34.5 2.49902 50.5s2.83301 30.5 4.5 43.5s4.16699 23.5 7.5 31.5
c8.66699 24 23.834 43.333 45.501 58s50.5 22 86.5 22zM110.001 81.002c13.333 -21.333 36.332 -31.998 68.999 -31.998c19.333 0 35.833 5.66699 49.5 17s22.834 26.666 27.501 45.999c2 12 3.66699 29.667 5 53s2 47.666 2 72.999c0 22 -0.333008 45 -1 69
s-2 44.333 -4 61zM179 443.004c-15.333 0 -29.668 -3.33203 -43.001 -9.99902s-23.666 -18.667 -30.999 -36c-4.66699 -12 -7.66699 -30.333 -9 -55s-2 -54 -2 -88v-32v-54c0 -16.667 0.666992 -31.334 2 -44.001l147 288c-14.667 20.667 -36 31 -64 31z" />
    <glyph glyph-name="ugrave" unicode="&#xf9;" horiz-adv-x="364" 
d="M261 52l-3.00195 -0.000976562c-11.333 -18.667 -26 -32.834 -44 -42.501s-38 -14.5 -60 -14.5c-20.667 0 -38.167 3.16699 -52.5 9.5s-26.166 15.333 -35.499 27s-16.166 25.334 -20.499 41.001s-6.5 32.834 -6.5 51.501v369h63v-351c0 -28 5.5 -49.667 16.5 -65
s30.5 -23 58.5 -23c25.333 0 45.833 9.16699 61.5 27.5s23.5 40.5 23.5 66.5v345h61v-492h-62v51zM174.998 555.999l-92 152l58 21l68 -159z" />
    <glyph glyph-name="uacute" unicode="&#xfa;" horiz-adv-x="364" 
d="M261 52l-3.00195 -0.000976562c-11.333 -18.667 -26 -32.834 -44 -42.501s-38 -14.5 -60 -14.5c-20.667 0 -38.167 3.16699 -52.5 9.5s-26.166 15.333 -35.499 27s-16.166 25.334 -20.499 41.001s-6.5 32.834 -6.5 51.501v369h63v-351c0 -28 5.5 -49.667 16.5 -65
s30.5 -23 58.5 -23c25.333 0 45.833 9.16699 61.5 27.5s23.5 40.5 23.5 66.5v345h61v-492h-62v51zM172.998 569.999l67 159l59 -21l-92 -152z" />
    <glyph glyph-name="ucircumflex" unicode="&#xfb;" horiz-adv-x="364" 
d="M261 52l-3.00195 -0.000976562c-11.333 -18.667 -26 -32.834 -44 -42.501s-38 -14.5 -60 -14.5c-20.667 0 -38.167 3.16699 -52.5 9.5s-26.166 15.333 -35.499 27s-16.166 25.334 -20.499 41.001s-6.5 32.834 -6.5 51.501v369h63v-351c0 -28 5.5 -49.667 16.5 -65
s30.5 -23 58.5 -23c25.333 0 45.833 9.16699 61.5 27.5s23.5 40.5 23.5 66.5v345h61v-492h-62v51zM179.998 646.999l-113 -95l-27 22l123 131h39l117 -129l-27 -24z" />
    <glyph glyph-name="udieresis" unicode="&#xfc;" horiz-adv-x="364" 
d="M261 52l-3.00195 -0.000976562c-11.333 -18.667 -26 -32.834 -44 -42.501s-38 -14.5 -60 -14.5c-20.667 0 -38.167 3.16699 -52.5 9.5s-26.166 15.333 -35.499 27s-16.166 25.334 -20.499 41.001s-6.5 32.834 -6.5 51.501v369h63v-351c0 -28 5.5 -49.667 16.5 -65
s30.5 -23 58.5 -23c25.333 0 45.833 9.16699 61.5 27.5s23.5 40.5 23.5 66.5v345h61v-492h-62v51zM224.998 586.999v64h55v-64h-55zM73.998 586.999v64h56v-64h-56z" />
    <glyph glyph-name="yacute" unicode="&#xfd;" horiz-adv-x="326" 
d="M167 92l22.002 100.5l22 100.5l48 198h62l-148 -577c-4 -14.667 -8.83301 -28.667 -14.5 -42s-12.834 -25 -21.501 -35s-19.334 -18 -32.001 -24s-28 -9 -46 -9h-23v53h16c20 0 35 7 45 21s18.333 36 25 66l14 55l-131 492h65c9.33301 -36 18 -71.833 26 -107.5
l25 -107.5l11 -46.5l12 -51l11.5 -48.5c3.66699 -15.333 6.5 -28 8.5 -38h3zM138.002 570l67 159l59 -21l-92 -152z" />
    <glyph glyph-name="thorn" unicode="&#xfe;" horiz-adv-x="357" 
d="M178 439c-26 0 -46.334 -8.50098 -61.001 -25.501s-22 -39.167 -22 -66.5v-199c0 -26.667 6.5 -49.167 19.5 -67.5s33.5 -27.5 61.5 -27.5c38.667 0 63 19 73 57c3.33301 14 5.5 33.833 6.5 59.5s1.5 53.5 1.5 83.5c0 31.333 -0.5 58.333 -1.5 81s-3.5 40.667 -7.5 54
c-5.33301 18.667 -13.666 31.834 -24.999 39.501s-26.333 11.5 -45 11.5zM195.999 497.999c10.667 0 22.502 -1.49902 35.502 -4.49902s25.167 -8.66699 36.5 -17s21.5 -20.333 30.5 -36s14.833 -36.167 17.5 -61.5c2 -20.667 3 -41.334 3 -62.001v-60v-7
c0 -40 -0.833008 -76.667 -2.5 -110s-7.83398 -61.333 -18.501 -84c-8.66699 -18.667 -21.334 -33.667 -38.001 -45s-40 -17 -70 -17c-24.667 0 -44.167 5 -58.5 15s-25.833 21 -34.5 33h-2v-235h-60v888h60v-246h2c11.333 15.333 24 27.333 38 36s34.333 13 61 13z" />
    <glyph glyph-name="ydieresis" unicode="&#xff;" horiz-adv-x="326" 
d="M167 92l22.002 100.5l22 100.5l48 198h62l-148 -577c-4 -14.667 -8.83301 -28.667 -14.5 -42s-12.834 -25 -21.501 -35s-19.334 -18 -32.001 -24s-28 -9 -46 -9h-23v53h16c20 0 35 7 45 21s18.333 36 25 66l14 55l-131 492h65c9.33301 -36 18 -71.833 26 -107.5
l25 -107.5l11 -46.5l12 -51l11.5 -48.5c3.66699 -15.333 6.5 -28 8.5 -38h3zM59.002 587v64h56v-64h-56zM210.002 587v64h55v-64h-55z" />
    <glyph glyph-name="Amacron" unicode="&#x100;" horiz-adv-x="386" 
d="M316 0l-37 168h-173l-36 -168h-58l150 696h62l153 -696h-61zM191 594l-33 -168l-42 -200h152l-42 202l-32 166h-3zM81 752v52h223v-52h-223z" />
    <glyph glyph-name="amacron" unicode="&#x101;" horiz-adv-x="352" 
d="M37 405c8.66699 28.667 24.6699 51.3311 48.0029 67.998s53 25 89 25c43.333 0 76.833 -9.83301 100.5 -29.5s35.5 -54.167 35.5 -103.5v-365h-62v44h-1c-14.667 -20.667 -31.167 -34.167 -49.5 -40.5s-37.833 -9.5 -58.5 -9.5c-21.333 0 -39.166 4 -53.499 12
s-26 18.5 -35 31.5s-15.5 27.833 -19.5 44.5s-6 34 -6 52c0 18.667 2 37.334 6 56.001s11.333 35.5 22 50.5s24.667 27.333 42 37s39.666 14.5 66.999 14.5h87v72c0 23.333 -5.33301 42 -16 56s-31.334 21 -62.001 21c-14.667 0 -29.834 -4.16699 -45.501 -12.5
s-25.834 -22.166 -30.501 -41.499zM176.003 237.997c-25.333 0 -46.834 -7.5 -64.501 -22.5s-26.5 -41.167 -26.5 -78.5c0 -25.333 5.83301 -45.833 17.5 -61.5s31.5 -23.5 59.5 -23.5c26.667 0 47.834 7.33301 63.501 22s23.5 36 23.5 64v100h-73zM70.002 587.997v54h223
v-54h-223z" />
    <glyph glyph-name="Abreve" unicode="&#x102;" horiz-adv-x="386" 
d="M316 0l-37 168h-173l-36 -168h-58l150 696h62l153 -696h-61zM191 594l-33 -168l-42 -200h152l-42 202l-32 166h-3zM118 862c2 -17.333 10.002 -33.333 24.002 -48s31 -22 51 -22c21.333 0 38.833 7.16699 52.5 21.5s21.167 30.5 22.5 48.5h51
c-1.33301 -12.667 -4.83301 -25.834 -10.5 -39.501s-13.667 -26.334 -24 -38.001s-23 -21.167 -38 -28.5s-32.833 -11 -53.5 -11c-22.667 0 -41.834 3.66699 -57.501 11s-28.5 16.833 -38.5 28.5s-17.333 24.334 -22 38.001s-7.33398 26.834 -8.00098 39.501h51z" />
    <glyph glyph-name="abreve" unicode="&#x103;" horiz-adv-x="352" 
d="M37 405c8.66699 28.667 24.6699 51.3311 48.0029 67.998s53 25 89 25c43.333 0 76.833 -9.83301 100.5 -29.5s35.5 -54.167 35.5 -103.5v-365h-62v44h-1c-14.667 -20.667 -31.167 -34.167 -49.5 -40.5s-37.833 -9.5 -58.5 -9.5c-21.333 0 -39.166 4 -53.499 12
s-26 18.5 -35 31.5s-15.5 27.833 -19.5 44.5s-6 34 -6 52c0 18.667 2 37.334 6 56.001s11.333 35.5 22 50.5s24.667 27.333 42 37s39.666 14.5 66.999 14.5h87v72c0 23.333 -5.33301 42 -16 56s-31.334 21 -62.001 21c-14.667 0 -29.834 -4.16699 -45.501 -12.5
s-25.834 -22.166 -30.501 -41.499zM176.003 237.997c-25.333 0 -46.834 -7.5 -64.501 -22.5s-26.5 -41.167 -26.5 -78.5c0 -25.333 5.83301 -45.833 17.5 -61.5s31.5 -23.5 59.5 -23.5c26.667 0 47.834 7.33301 63.501 22s23.5 36 23.5 64v100h-73zM102.002 679.997
c2.66699 -17.333 10.8301 -33.333 24.4971 -48s30.5 -22 50.5 -22c21.333 0 38.833 7 52.5 21s21.5 30.333 23.5 49h50c-1.33301 -12.667 -4.66602 -25.834 -9.99902 -39.501s-13.166 -26.334 -23.499 -38.001s-23.166 -21.167 -38.499 -28.5s-33.333 -11 -54 -11
c-22 0 -40.833 3.66699 -56.5 11s-28.5 16.833 -38.5 28.5s-17.5 24.334 -22.5 38.001s-7.83301 26.834 -8.5 39.501h51z" />
    <glyph glyph-name="Aogonek" unicode="&#x104;" horiz-adv-x="386" 
d="M281 -92c0 13.333 2.66699 27.5 8 42.5s14.333 31.5 27 49.5l-37 168h-173l-36 -168h-58l150 696h62l153 -696h-19c-10 -15.333 -18 -29.833 -24 -43.5s-9 -26.167 -9 -37.5c0 -18 4 -30.5 12 -37.5s18.333 -10.5 31 -10.5c7.33301 0 15.166 1 23.499 3
s17.166 5.66699 26.499 11l14 -39c-9.33301 -6.66699 -20.666 -12.167 -33.999 -16.5s-26.333 -6.5 -39 -6.5c-23.333 0 -42.166 7.83301 -56.499 23.5s-21.5 36.167 -21.5 61.5zM191 594l-33 -168l-42 -200h152l-42 202l-32 166h-3z" />
    <glyph glyph-name="aogonek" unicode="&#x105;" horiz-adv-x="352" 
d="M214 -92c0 13.333 2.50293 27.4971 7.50293 42.4971s13.833 31.5 26.5 49.5v44h-1c-14.667 -20.667 -31.167 -34.167 -49.5 -40.5s-37.833 -9.5 -58.5 -9.5c-21.333 0 -39.166 4 -53.499 12s-26 18.5 -35 31.5s-15.5 27.833 -19.5 44.5s-6 34 -6 52
c0 18.667 2 37.334 6 56.001s11.333 35.5 22 50.5s24.667 27.333 42 37s39.666 14.5 66.999 14.5h87v72c0 23.333 -5.33301 42 -16 56s-31.334 21 -62.001 21c-14.667 0 -29.834 -4.16699 -45.501 -12.5s-25.834 -22.166 -30.501 -41.499l-58 18
c8.66699 28.667 24.667 51.334 48 68.001s53 25 89 25c43.333 0 76.833 -9.83301 100.5 -29.5s35.5 -54.167 35.5 -103.5v-365h-19c-10 -15.333 -18 -29.833 -24 -43.5s-9 -26.167 -9 -37.5c0 -18 4 -30.5 12 -37.5s18.333 -10.5 31 -10.5c7.33301 0 15.166 1 23.499 3
s17.166 5.66699 26.499 11l14 -39c-9.33301 -6.66699 -20.666 -12.167 -33.999 -16.5s-26.333 -6.5 -39 -6.5c-23.333 0 -42.166 7.83301 -56.499 23.5s-21.5 36.167 -21.5 61.5zM176.003 237.997c-25.333 0 -46.834 -7.5 -64.501 -22.5s-26.5 -41.167 -26.5 -78.5
c0 -25.333 5.83301 -45.833 17.5 -61.5s31.5 -23.5 59.5 -23.5c26.667 0 47.834 7.33301 63.501 22s23.5 36 23.5 64v100h-73z" />
    <glyph glyph-name="Cacute" unicode="&#x106;" horiz-adv-x="384" 
d="M202 702c48.667 0 86.332 -13.5 112.999 -40.5s40 -64.833 40 -113.5l-62 -12c0.666992 36 -7 63.167 -23 81.5s-39 27.5 -69 27.5c-17.333 0 -31.833 -3.33301 -43.5 -10s-21.167 -15.5 -28.5 -26.5s-12.666 -23.5 -15.999 -37.5s-5 -28.333 -5 -43v-371
c0 -13.333 1.66699 -26.5 5 -39.5s8.66602 -24.5 15.999 -34.5s16.833 -18 28.5 -24s26.167 -9 43.5 -9c27.333 0 49.333 8.5 66 25.5s25.334 44.833 26.001 83.5l63 -11c-1.33301 -51.333 -15.833 -90 -43.5 -116s-64.5 -39 -110.5 -39
c-50.667 0 -89.167 13.833 -115.5 41.5s-39.5 67.5 -39.5 119.5v367c0 24.667 2.66699 48 8 70s14 41.167 26 57.5s27.833 29.333 47.5 39s44.167 14.5 73.5 14.5zM152.998 751l135 109l40 -47l-152 -91z" />
    <glyph glyph-name="cacute" unicode="&#x107;" horiz-adv-x="332" 
d="M178 498c46 0 79.665 -12 100.998 -36s32 -57.667 32 -101l-63 -9v1c2.66699 26 -2.83301 47.5 -16.5 64.5s-32.5 25.5 -56.5 25.5c-15.333 0 -29.166 -3.66699 -41.499 -11s-21.833 -19.333 -28.5 -36c-5.33301 -12.667 -8.5 -33.667 -9.5 -63s-1.83301 -64 -2.5 -104
l2 -75c0.666992 -24 2.66699 -42 6 -54c5.33301 -16 14 -28.667 26 -38s27.667 -14 47 -14c24 0 42.5 7.33301 55.5 22s19.167 37 18.5 67l63 -11c-2 -88.667 -48.667 -133 -140 -133c-20 0 -37.5 2.5 -52.5 7.5s-27.667 11.833 -38 20.5s-18.666 18.334 -24.999 29.001
s-10.833 22 -13.5 34c-2 8 -3.66699 18.167 -5 30.5s-2.16602 25.666 -2.49902 39.999l-1 43.5c-0.333008 14.667 -0.5 28.667 -0.5 42c0 17.333 0.166992 35 0.5 53s1.16602 35 2.49902 51s2.83301 30.5 4.5 43.5s4.16699 23.5 7.5 31.5c8.66699 24 23.5 43.167 44.5 57.5
s49.5 21.5 85.5 21.5zM141.998 570l67 159l59 -21l-92 -152z" />
    <glyph glyph-name="Ccircumflex" unicode="&#x108;" horiz-adv-x="384" 
d="M202 702c48.667 0 86.332 -13.5 112.999 -40.5s40 -64.833 40 -113.5l-62 -12c0.666992 36 -7 63.167 -23 81.5s-39 27.5 -69 27.5c-17.333 0 -31.833 -3.33301 -43.5 -10s-21.167 -15.5 -28.5 -26.5s-12.666 -23.5 -15.999 -37.5s-5 -28.333 -5 -43v-371
c0 -13.333 1.66699 -26.5 5 -39.5s8.66602 -24.5 15.999 -34.5s16.833 -18 28.5 -24s26.167 -9 43.5 -9c27.333 0 49.333 8.5 66 25.5s25.334 44.833 26.001 83.5l63 -11c-1.33301 -51.333 -15.833 -90 -43.5 -116s-64.5 -39 -110.5 -39
c-50.667 0 -89.167 13.833 -115.5 41.5s-39.5 67.5 -39.5 119.5v367c0 24.667 2.66699 48 8 70s14 41.167 26 57.5s27.833 29.333 47.5 39s44.167 14.5 73.5 14.5zM203.998 806l-113 -76l-27 23l123 111h40l116 -109l-26 -24z" />
    <glyph glyph-name="ccircumflex" unicode="&#x109;" horiz-adv-x="332" 
d="M178 498c46 0 79.665 -12 100.998 -36s32 -57.667 32 -101l-63 -9v1c2.66699 26 -2.83301 47.5 -16.5 64.5s-32.5 25.5 -56.5 25.5c-15.333 0 -29.166 -3.66699 -41.499 -11s-21.833 -19.333 -28.5 -36c-5.33301 -12.667 -8.5 -33.667 -9.5 -63s-1.83301 -64 -2.5 -104
l2 -75c0.666992 -24 2.66699 -42 6 -54c5.33301 -16 14 -28.667 26 -38s27.667 -14 47 -14c24 0 42.5 7.33301 55.5 22s19.167 37 18.5 67l63 -11c-2 -88.667 -48.667 -133 -140 -133c-20 0 -37.5 2.5 -52.5 7.5s-27.667 11.833 -38 20.5s-18.666 18.334 -24.999 29.001
s-10.833 22 -13.5 34c-2 8 -3.66699 18.167 -5 30.5s-2.16602 25.666 -2.49902 39.999l-1 43.5c-0.333008 14.667 -0.5 28.667 -0.5 42c0 17.333 0.166992 35 0.5 53s1.16602 35 2.49902 51s2.83301 30.5 4.5 43.5s4.16699 23.5 7.5 31.5c8.66699 24 23.5 43.167 44.5 57.5
s49.5 21.5 85.5 21.5zM177.998 647l-113 -95l-27 22l123 131h39l117 -129l-27 -24z" />
    <glyph glyph-name="Cdotaccent" unicode="&#x10a;" horiz-adv-x="384" 
d="M202 702c48.667 0 86.332 -13.5 112.999 -40.5s40 -64.833 40 -113.5l-62 -12c0.666992 36 -7 63.167 -23 81.5s-39 27.5 -69 27.5c-17.333 0 -31.833 -3.33301 -43.5 -10s-21.167 -15.5 -28.5 -26.5s-12.666 -23.5 -15.999 -37.5s-5 -28.333 -5 -43v-371
c0 -13.333 1.66699 -26.5 5 -39.5s8.66602 -24.5 15.999 -34.5s16.833 -18 28.5 -24s26.167 -9 43.5 -9c27.333 0 49.333 8.5 66 25.5s25.334 44.833 26.001 83.5l63 -11c-1.33301 -51.333 -15.833 -90 -43.5 -116s-64.5 -39 -110.5 -39
c-50.667 0 -89.167 13.833 -115.5 41.5s-39.5 67.5 -39.5 119.5v367c0 24.667 2.66699 48 8 70s14 41.167 26 57.5s27.833 29.333 47.5 39s44.167 14.5 73.5 14.5zM175.998 752v64h55v-64h-55z" />
    <glyph glyph-name="cdotaccent" unicode="&#x10b;" horiz-adv-x="332" 
d="M178 498c46 0 79.665 -12 100.998 -36s32 -57.667 32 -101l-63 -9v1c2.66699 26 -2.83301 47.5 -16.5 64.5s-32.5 25.5 -56.5 25.5c-15.333 0 -29.166 -3.66699 -41.499 -11s-21.833 -19.333 -28.5 -36c-5.33301 -12.667 -8.5 -33.667 -9.5 -63s-1.83301 -64 -2.5 -104
l2 -75c0.666992 -24 2.66699 -42 6 -54c5.33301 -16 14 -28.667 26 -38s27.667 -14 47 -14c24 0 42.5 7.33301 55.5 22s19.167 37 18.5 67l63 -11c-2 -88.667 -48.667 -133 -140 -133c-20 0 -37.5 2.5 -52.5 7.5s-27.667 11.833 -38 20.5s-18.666 18.334 -24.999 29.001
s-10.833 22 -13.5 34c-2 8 -3.66699 18.167 -5 30.5s-2.16602 25.666 -2.49902 39.999l-1 43.5c-0.333008 14.667 -0.5 28.667 -0.5 42c0 17.333 0.166992 35 0.5 53s1.16602 35 2.49902 51s2.83301 30.5 4.5 43.5s4.16699 23.5 7.5 31.5c8.66699 24 23.5 43.167 44.5 57.5
s49.5 21.5 85.5 21.5zM151.998 596v64h55v-64h-55z" />
    <glyph glyph-name="Ccaron" unicode="&#x10c;" horiz-adv-x="384" 
d="M202 702c48.667 0 86.332 -13.5 112.999 -40.5s40 -64.833 40 -113.5l-62 -12c0.666992 36 -7 63.167 -23 81.5s-39 27.5 -69 27.5c-17.333 0 -31.833 -3.33301 -43.5 -10s-21.167 -15.5 -28.5 -26.5s-12.666 -23.5 -15.999 -37.5s-5 -28.333 -5 -43v-371
c0 -13.333 1.66699 -26.5 5 -39.5s8.66602 -24.5 15.999 -34.5s16.833 -18 28.5 -24s26.167 -9 43.5 -9c27.333 0 49.333 8.5 66 25.5s25.334 44.833 26.001 83.5l63 -11c-1.33301 -51.333 -15.833 -90 -43.5 -116s-64.5 -39 -110.5 -39
c-50.667 0 -89.167 13.833 -115.5 41.5s-39.5 67.5 -39.5 119.5v367c0 24.667 2.66699 48 8 70s14 41.167 26 57.5s27.833 29.333 47.5 39s44.167 14.5 73.5 14.5zM314.998 864l27 -24l-117 -109h-39l-123 111l27 22l113 -75z" />
    <glyph glyph-name="ccaron" unicode="&#x10d;" horiz-adv-x="332" 
d="M178 498c46 0 79.665 -12 100.998 -36s32 -57.667 32 -101l-63 -9v1c2.66699 26 -2.83301 47.5 -16.5 64.5s-32.5 25.5 -56.5 25.5c-15.333 0 -29.166 -3.66699 -41.499 -11s-21.833 -19.333 -28.5 -36c-5.33301 -12.667 -8.5 -33.667 -9.5 -63s-1.83301 -64 -2.5 -104
l2 -75c0.666992 -24 2.66699 -42 6 -54c5.33301 -16 14 -28.667 26 -38s27.667 -14 47 -14c24 0 42.5 7.33301 55.5 22s19.167 37 18.5 67l63 -11c-2 -88.667 -48.667 -133 -140 -133c-20 0 -37.5 2.5 -52.5 7.5s-27.667 11.833 -38 20.5s-18.666 18.334 -24.999 29.001
s-10.833 22 -13.5 34c-2 8 -3.66699 18.167 -5 30.5s-2.16602 25.666 -2.49902 39.999l-1 43.5c-0.333008 14.667 -0.5 28.667 -0.5 42c0 17.333 0.166992 35 0.5 53s1.16602 35 2.49902 51s2.83301 30.5 4.5 43.5s4.16699 23.5 7.5 31.5c8.66699 24 23.5 43.167 44.5 57.5
s49.5 21.5 85.5 21.5zM291.998 705l26 -24l-116 -128h-40l-123 130l27 22l113 -95z" />
    <glyph glyph-name="Dcaron" unicode="&#x10e;" horiz-adv-x="414" 
d="M209 696c42 0 74.833 -7.16602 98.5 -21.499s40.167 -38.5 49.5 -72.5c7.33301 -27.333 11 -61.833 11 -103.5v-149.5v-148.5c0 -41.667 -4 -75.167 -12 -100.5c-6 -20 -14.333 -36.333 -25 -49s-22.667 -22.834 -36 -30.501s-28 -13 -44 -16s-33 -4.5 -51 -4.5h-147v696
h156zM305 520.001c0 18 -1.66699 34.333 -5 49s-9 27.167 -17 37.5s-18.667 18.5 -32 24.5s-30 9 -50 9h-87v-584h88c36 0 62.167 10 78.5 30s24.5 50 24.5 90v344zM305 864.001l27 -24l-117 -109h-39l-123 111l27 22l113 -75z" />
    <glyph glyph-name="dcaron" unicode="&#x10f;" horiz-adv-x="448" 
d="M155 -6c-10.667 0 -22.4971 1.33105 -35.4971 3.99805s-25.167 8.16699 -36.5 16.5s-21.5 20.333 -30.5 36s-14.833 36.167 -17.5 61.5c-2 20.667 -3.16699 41.334 -3.5 62.001s-0.5 40.667 -0.5 60c0 40 0.666992 75.833 2 107.5s6 58.5 14 80.5s20.667 40.167 38 54.5
s42.666 21.5 75.999 21.5c23.333 0 42.666 -5 57.999 -15s26.666 -21.333 33.999 -34h2v277h61v-726h-61v42h-2c-10.667 -15.333 -23.167 -27.166 -37.5 -35.499s-34.5 -12.5 -60.5 -12.5zM173.003 51.998c26 0 46.3301 8.5 60.9971 25.5s22 39.167 22 66.5v199
c0 26.667 -6.66699 49.167 -20 67.5s-34 27.5 -62 27.5c-18 0 -33.167 -4.66699 -45.5 -14s-21.166 -23.666 -26.499 -42.999c-3.33301 -14 -5.66602 -33.833 -6.99902 -59.5s-2 -53.5 -2 -83.5c0 -31.333 0.5 -58.333 1.5 -81s3.5 -40.667 7.5 -54
c5.33301 -18.667 13.833 -31.834 25.5 -39.501s26.834 -11.5 45.501 -11.5zM405 562.998h-35l11.5 43.5c3.66699 14.333 7.16699 28.833 10.5 43.5h-17v76h69v-75z" />
    <glyph glyph-name="Dcroat" unicode="&#x110;" horiz-adv-x="414" 
d="M6 390l47 0.000976562v306h156c42 0 74.833 -7.16699 98.5 -21.5s40.167 -38.5 49.5 -72.5c7.33301 -27.333 11 -61.833 11 -103.5v-149.5v-148.5c0 -41.667 -4 -75.167 -12 -100.5c-6 -20 -14.333 -36.333 -25 -49s-22.667 -22.834 -36 -30.501s-28 -13 -44 -16
s-33 -4.5 -51 -4.5h-147v343h-47v47zM305 520.001c0 18 -1.66699 34.333 -5 49s-9 27.167 -17 37.5s-18.667 18.5 -32 24.5s-30 9 -50 9h-87v-250h89v-47h-89v-287h88c36 0 62.167 10 78.5 30s24.5 50 24.5 90v344z" />
    <glyph glyph-name="dcroat" unicode="&#x111;" horiz-adv-x="359" 
d="M180 630l75.0029 -0.00195312v96h61v-96h44v-46h-44v-584h-61v42h-2c-10.667 -15.333 -23.167 -27.166 -37.5 -35.499s-34.5 -12.5 -60.5 -12.5c-10.667 0 -22.5 1.33301 -35.5 4s-25.167 8.16699 -36.5 16.5s-21.5 20.333 -30.5 36s-14.833 36.167 -17.5 61.5
c-2 20.667 -3.16699 41.334 -3.5 62.001s-0.5 40.667 -0.5 60c0 40 0.666992 75.833 2 107.5s6 58.5 14 80.5s20.667 40.167 38 54.5s42.666 21.5 75.999 21.5c23.333 0 42.666 -5 57.999 -15s26.666 -21.333 33.999 -34h2v135h-75v46zM173.003 51.998
c26 0 46.3301 8.5 60.9971 25.5s22 39.167 22 66.5v199c0 26.667 -6.66699 49.167 -20 67.5s-34 27.5 -62 27.5c-18 0 -33.167 -4.66699 -45.5 -14s-21.166 -23.666 -26.499 -42.999c-3.33301 -14 -5.66602 -33.833 -6.99902 -59.5s-2 -53.5 -2 -83.5
c0 -31.333 0.5 -58.333 1.5 -81s3.5 -40.667 7.5 -54c5.33301 -18.667 13.833 -31.834 25.5 -39.501s26.834 -11.5 45.501 -11.5z" />
    <glyph glyph-name="Emacron" unicode="&#x112;" horiz-adv-x="361" 
d="M53 0v696h291v-57h-230v-255h201v-57h-201v-271h230v-56h-291zM83 752v52h223v-52h-223z" />
    <glyph glyph-name="emacron" unicode="&#x113;" horiz-adv-x="350" 
d="M178 498c40 0 71.165 -9.83105 93.498 -29.498s35.5 -47.5 39.5 -83.5c0.666992 -7.33301 1.16699 -14.666 1.5 -21.999s0.5 -14.666 0.5 -21.999v-110h-220c0 -6.66699 0.166992 -13 0.5 -19s0.5 -12.333 0.5 -19c0 -17.333 0.5 -35 1.5 -53s3.16699 -31.667 6.5 -41
c10.667 -33.333 34.667 -50 72 -50c25.333 0 44 7.5 56 22.5s18.667 34.833 20 59.5l62 -12c-3.33301 -40.667 -16.833 -71.834 -40.5 -93.501s-57.167 -32.5 -100.5 -32.5c-20.667 0 -38.5 2.66699 -53.5 8s-27.667 12.166 -38 20.499s-18.666 18 -24.999 29
s-10.833 22.167 -13.5 33.5c-2 8 -3.66699 18.167 -5 30.5s-2.16602 25.666 -2.49902 39.999l-1 43.5c-0.333008 14.667 -0.5 28.667 -0.5 42c0 17.333 0.166992 34.666 0.5 51.999s1.16602 34 2.49902 50s2.83301 30.5 4.5 43.5s4.16699 23.833 7.5 32.5
c9.33301 24.667 24.333 44.167 45 58.5s49.334 21.5 86.001 21.5zM103.998 395.002c-4 -10.667 -6.49805 -25.5 -7.49805 -44.5s-1.83301 -42.167 -2.5 -69.5h158v52c0 14 -0.833008 27.5 -2.5 40.5s-5.33398 24.5 -11.001 34.5s-13.5 18 -23.5 24s-23.333 9 -40 9
c-14.667 0 -28.334 -3.33301 -41.001 -10s-22.667 -18.667 -30 -36zM74 588.002v54h223v-54h-223z" />
    <glyph glyph-name="Ebreve" unicode="&#x114;" horiz-adv-x="361" 
d="M53 0v696h291v-57h-230v-255h201v-57h-201v-271h230v-56h-291zM122 862c2 -17.333 10.002 -33.333 24.002 -48s31 -22 51 -22c21.333 0 38.833 7.16699 52.5 21.5s21.167 30.5 22.5 48.5h51c-1.33301 -12.667 -4.83301 -25.834 -10.5 -39.501
s-13.667 -26.334 -24 -38.001s-23 -21.167 -38 -28.5s-32.833 -11 -53.5 -11c-22.667 0 -41.834 3.66699 -57.501 11s-28.5 16.833 -38.5 28.5s-17.333 24.334 -22 38.001s-7.33398 26.834 -8.00098 39.501h51z" />
    <glyph glyph-name="ebreve" unicode="&#x115;" horiz-adv-x="350" 
d="M178 498c40 0 71.165 -9.83105 93.498 -29.498s35.5 -47.5 39.5 -83.5c0.666992 -7.33301 1.16699 -14.666 1.5 -21.999s0.5 -14.666 0.5 -21.999v-110h-220c0 -6.66699 0.166992 -13 0.5 -19s0.5 -12.333 0.5 -19c0 -17.333 0.5 -35 1.5 -53s3.16699 -31.667 6.5 -41
c10.667 -33.333 34.667 -50 72 -50c25.333 0 44 7.5 56 22.5s18.667 34.833 20 59.5l62 -12c-3.33301 -40.667 -16.833 -71.834 -40.5 -93.501s-57.167 -32.5 -100.5 -32.5c-20.667 0 -38.5 2.66699 -53.5 8s-27.667 12.166 -38 20.499s-18.666 18 -24.999 29
s-10.833 22.167 -13.5 33.5c-2 8 -3.66699 18.167 -5 30.5s-2.16602 25.666 -2.49902 39.999l-1 43.5c-0.333008 14.667 -0.5 28.667 -0.5 42c0 17.333 0.166992 34.666 0.5 51.999s1.16602 34 2.49902 50s2.83301 30.5 4.5 43.5s4.16699 23.833 7.5 32.5
c9.33301 24.667 24.333 44.167 45 58.5s49.334 21.5 86.001 21.5zM103.998 395.002c-4 -10.667 -6.49805 -25.5 -7.49805 -44.5s-1.83301 -42.167 -2.5 -69.5h158v52c0 14 -0.833008 27.5 -2.5 40.5s-5.33398 24.5 -11.001 34.5s-13.5 18 -23.5 24s-23.333 9 -40 9
c-14.667 0 -28.334 -3.33301 -41.001 -10s-22.667 -18.667 -30 -36zM101 680.002c2.66699 -17.333 10.8301 -33.333 24.4971 -48s30.5 -22 50.5 -22c21.333 0 38.833 7 52.5 21s21.5 30.333 23.5 49h50c-1.33301 -12.667 -4.66602 -25.834 -9.99902 -39.501
s-13.166 -26.334 -23.499 -38.001s-23.166 -21.167 -38.499 -28.5s-33.333 -11 -54 -11c-22 0 -40.833 3.66699 -56.5 11s-28.5 16.833 -38.5 28.5s-17.5 24.334 -22.5 38.001s-7.83301 26.834 -8.5 39.501h51z" />
    <glyph glyph-name="Edotaccent" unicode="&#x116;" horiz-adv-x="361" 
d="M53 0v696h291v-57h-230v-255h201v-57h-201v-271h230v-56h-291zM173 766v64h55v-64h-55z" />
    <glyph glyph-name="edotaccent" unicode="&#x117;" horiz-adv-x="350" 
d="M178 498c40 0 71.165 -9.83105 93.498 -29.498s35.5 -47.5 39.5 -83.5c0.666992 -7.33301 1.16699 -14.666 1.5 -21.999s0.5 -14.666 0.5 -21.999v-110h-220c0 -6.66699 0.166992 -13 0.5 -19s0.5 -12.333 0.5 -19c0 -17.333 0.5 -35 1.5 -53s3.16699 -31.667 6.5 -41
c10.667 -33.333 34.667 -50 72 -50c25.333 0 44 7.5 56 22.5s18.667 34.833 20 59.5l62 -12c-3.33301 -40.667 -16.833 -71.834 -40.5 -93.501s-57.167 -32.5 -100.5 -32.5c-20.667 0 -38.5 2.66699 -53.5 8s-27.667 12.166 -38 20.499s-18.666 18 -24.999 29
s-10.833 22.167 -13.5 33.5c-2 8 -3.66699 18.167 -5 30.5s-2.16602 25.666 -2.49902 39.999l-1 43.5c-0.333008 14.667 -0.5 28.667 -0.5 42c0 17.333 0.166992 34.666 0.5 51.999s1.16602 34 2.49902 50s2.83301 30.5 4.5 43.5s4.16699 23.833 7.5 32.5
c9.33301 24.667 24.333 44.167 45 58.5s49.334 21.5 86.001 21.5zM103.998 395.002c-4 -10.667 -6.49805 -25.5 -7.49805 -44.5s-1.83301 -42.167 -2.5 -69.5h158v52c0 14 -0.833008 27.5 -2.5 40.5s-5.33398 24.5 -11.001 34.5s-13.5 18 -23.5 24s-23.333 9 -40 9
c-14.667 0 -28.334 -3.33301 -41.001 -10s-22.667 -18.667 -30 -36zM153 596.002v64h55v-64h-55z" />
    <glyph glyph-name="Eogonek" unicode="&#x118;" horiz-adv-x="361" 
d="M266 -92c0 13.333 2.5 27.5 7.5 42.5s13.833 31.5 26.5 49.5h-247v696h291v-57h-230v-255h201v-57h-201v-271h230v-56h-1c-10 -15.333 -18 -29.833 -24 -43.5s-9 -26.167 -9 -37.5c0 -18 4 -30.5 12 -37.5s18.333 -10.5 31 -10.5c7.33301 0 15.166 1 23.499 3
s17.166 5.66699 26.499 11l14 -39c-9.33301 -6.66699 -20.666 -12.167 -33.999 -16.5s-26.333 -6.5 -39 -6.5c-23.333 0 -42.166 7.83301 -56.499 23.5s-21.5 36.167 -21.5 61.5z" />
    <glyph glyph-name="eogonek" unicode="&#x119;" horiz-adv-x="350" 
d="M195 -65c0 19.333 5.33105 40.002 15.998 62.002c-6 -1.33301 -12.333 -2.33301 -19 -3s-13.667 -1 -21 -1c-20.667 0 -38.5 2.66699 -53.5 8s-27.667 12.166 -38 20.499s-18.666 18 -24.999 29s-10.833 22.167 -13.5 33.5c-2 8 -3.66699 18.167 -5 30.5
s-2.16602 25.666 -2.49902 39.999l-1 43.5c-0.333008 14.667 -0.5 28.667 -0.5 42c0 17.333 0.166992 34.666 0.5 51.999s1.16602 34 2.49902 50s2.83301 30.5 4.5 43.5s4.16699 23.833 7.5 32.5c9.33301 24.667 24.333 44.167 45 58.5s49.334 21.5 86.001 21.5
c40 0 71.167 -9.83301 93.5 -29.5s35.5 -47.5 39.5 -83.5c0.666992 -7.33301 1.16699 -14.666 1.5 -21.999s0.5 -14.666 0.5 -21.999v-110h-220c0 -6.66699 0.166992 -13 0.5 -19s0.5 -12.333 0.5 -19c0 -17.333 0.5 -35 1.5 -53s3.16699 -31.667 6.5 -41
c10.667 -33.333 34.667 -50 72 -50c25.333 0 44 7.5 56 22.5s18.667 34.833 20 59.5l62 -12c-3.33301 -42.667 -17.333 -74.334 -42 -95.001c-9.33301 -14.667 -16.833 -28.5 -22.5 -41.5s-8.5 -25.167 -8.5 -36.5c0 -18 4 -30.5 12 -37.5s18.333 -10.5 31 -10.5
c7.33301 0 15.166 1 23.499 3s17.166 5.66699 26.499 11l14 -39c-9.33301 -6.66699 -20.666 -12.167 -33.999 -16.5s-26.333 -6.5 -39 -6.5c-23.333 0 -42.166 7.83301 -56.499 23.5s-21.5 36.167 -21.5 61.5zM103.998 395.002c-4 -10.667 -6.49805 -25.5 -7.49805 -44.5
s-1.83301 -42.167 -2.5 -69.5h158v52c0 14 -0.833008 27.5 -2.5 40.5s-5.33398 24.5 -11.001 34.5s-13.5 18 -23.5 24s-23.333 9 -40 9c-14.667 0 -28.334 -3.33301 -41.001 -10s-22.667 -18.667 -30 -36z" />
    <glyph glyph-name="Ecaron" unicode="&#x11a;" horiz-adv-x="361" 
d="M53 0v696h291v-57h-230v-255h201v-57h-201v-271h230v-56h-291zM307 864l27 -24l-117 -109h-39l-123 111l27 22l113 -75z" />
    <glyph glyph-name="ecaron" unicode="&#x11b;" horiz-adv-x="350" 
d="M178 498c40 0 71.165 -9.83105 93.498 -29.498s35.5 -47.5 39.5 -83.5c0.666992 -7.33301 1.16699 -14.666 1.5 -21.999s0.5 -14.666 0.5 -21.999v-110h-220c0 -6.66699 0.166992 -13 0.5 -19s0.5 -12.333 0.5 -19c0 -17.333 0.5 -35 1.5 -53s3.16699 -31.667 6.5 -41
c10.667 -33.333 34.667 -50 72 -50c25.333 0 44 7.5 56 22.5s18.667 34.833 20 59.5l62 -12c-3.33301 -40.667 -16.833 -71.834 -40.5 -93.501s-57.167 -32.5 -100.5 -32.5c-20.667 0 -38.5 2.66699 -53.5 8s-27.667 12.166 -38 20.499s-18.666 18 -24.999 29
s-10.833 22.167 -13.5 33.5c-2 8 -3.66699 18.167 -5 30.5s-2.16602 25.666 -2.49902 39.999l-1 43.5c-0.333008 14.667 -0.5 28.667 -0.5 42c0 17.333 0.166992 34.666 0.5 51.999s1.16602 34 2.49902 50s2.83301 30.5 4.5 43.5s4.16699 23.833 7.5 32.5
c9.33301 24.667 24.333 44.167 45 58.5s49.334 21.5 86.001 21.5zM103.998 395.002c-4 -10.667 -6.49805 -25.5 -7.49805 -44.5s-1.83301 -42.167 -2.5 -69.5h158v52c0 14 -0.833008 27.5 -2.5 40.5s-5.33398 24.5 -11.001 34.5s-13.5 18 -23.5 24s-23.333 9 -40 9
c-14.667 0 -28.334 -3.33301 -41.001 -10s-22.667 -18.667 -30 -36zM292 705.002l26 -24l-116 -128h-40l-123 130l27 22l113 -95z" />
    <glyph glyph-name="Gcircumflex" unicode="&#x11c;" horiz-adv-x="405" 
d="M203 -7c-50 0 -88.334 13.6641 -115.001 40.9971s-40 67 -40 119v363c0 26.667 2.5 51.334 7.5 74.001s13.5 42.334 25.5 59.001s28 29.667 48 39s44.667 14 74 14c48.667 0 86 -12.833 112 -38.5s39.667 -63.167 41 -112.5l-61 -15v1
c0 36.667 -8.16699 63.834 -24.5 81.501s-39.166 26.5 -68.499 26.5c-17.333 0 -31.833 -3.33301 -43.5 -10s-21.167 -15.5 -28.5 -26.5s-12.666 -23.5 -15.999 -37.5s-5 -28.333 -5 -43v-372c0 -13.333 1.66699 -26.5 5 -39.5s8.66602 -24.5 15.999 -34.5
s16.833 -18 28.5 -24s26.167 -9 43.5 -9h1c28 0 51.333 8.16699 70 24.5s28 38.833 28 67.5v173h-84v54h145v-221c0 -25.333 -4.16699 -47.5 -12.5 -66.5s-19.833 -35 -34.5 -48s-31.5 -22.833 -50.5 -29.5s-39.5 -10 -61.5 -10zM204.999 805.997l-113 -76l-27 23l123 111
h40l116 -109l-26 -24z" />
    <glyph glyph-name="gcircumflex" unicode="&#x11d;" horiz-adv-x="363" 
d="M158 498c26.667 0 47.0029 -4.33496 61.0029 -13.002s26.667 -20.667 38 -36h2v42h60v-525c0 -22.667 -2 -44 -6 -64s-11.167 -37.5 -21.5 -52.5s-24.833 -27 -43.5 -36s-42.334 -13.5 -71.001 -13.5c-40 0 -71.833 10.5 -95.5 31.5s-36.167 51.5 -37.5 91.5l61 11
c0.666992 -23.333 7 -42.166 19 -56.499s31 -21.5 57 -21.5s45.5 9 58.5 27s19.5 39 19.5 63v106h-2c-10.667 -19.333 -25.834 -33.666 -45.501 -42.999s-38.834 -14 -57.501 -14c-30 0 -53 6 -69 18s-28 27.667 -36 47c-7.33301 18 -11.833 39.833 -13.5 65.5
s-2.5 52.5 -2.5 80.5v48c0 20 0.166992 40.167 0.5 60.5s1.5 41.833 3.5 64.5c2.66699 25.333 8.5 45.833 17.5 61.5s19.5 27.667 31.5 36s24.5 14 37.5 17s24.5 4.5 34.5 4.5zM176.003 438.998c-17.333 0 -32.1699 -3.83105 -44.5029 -11.498s-21.5 -20.834 -27.5 -39.501
c-4 -13.333 -6.5 -31.333 -7.5 -54s-1.5 -49.667 -1.5 -81c0 -34.667 0.5 -66.334 1.5 -95.001s4.5 -50 10.5 -64c10.667 -27.333 33.334 -41 68.001 -41c16 0 29.333 3.33301 40 10s19.334 15.334 26.001 26.001s11.334 22.667 14.001 36s4 26.666 4 39.999v182
c0 27.333 -7.33301 49.5 -22 66.5s-35 25.5 -61 25.5zM177.999 647l-113 -95l-27 22l123 131h39l117 -129l-27 -24z" />
    <glyph glyph-name="Gbreve" unicode="&#x11e;" horiz-adv-x="405" 
d="M203 -7c-50 0 -88.334 13.6641 -115.001 40.9971s-40 67 -40 119v363c0 26.667 2.5 51.334 7.5 74.001s13.5 42.334 25.5 59.001s28 29.667 48 39s44.667 14 74 14c48.667 0 86 -12.833 112 -38.5s39.667 -63.167 41 -112.5l-61 -15v1
c0 36.667 -8.16699 63.834 -24.5 81.501s-39.166 26.5 -68.499 26.5c-17.333 0 -31.833 -3.33301 -43.5 -10s-21.167 -15.5 -28.5 -26.5s-12.666 -23.5 -15.999 -37.5s-5 -28.333 -5 -43v-372c0 -13.333 1.66699 -26.5 5 -39.5s8.66602 -24.5 15.999 -34.5
s16.833 -18 28.5 -24s26.167 -9 43.5 -9h1c28 0 51.333 8.16699 70 24.5s28 38.833 28 67.5v173h-84v54h145v-221c0 -25.333 -4.16699 -47.5 -12.5 -66.5s-19.833 -35 -34.5 -48s-31.5 -22.833 -50.5 -29.5s-39.5 -10 -61.5 -10zM128.999 861.997
c2 -17.333 10.002 -33.333 24.002 -48s31 -22 51 -22c21.333 0 38.833 7.16699 52.5 21.5s21.167 30.5 22.5 48.5h51c-1.33301 -12.667 -4.83301 -25.834 -10.5 -39.501s-13.667 -26.334 -24 -38.001s-23 -21.167 -38 -28.5s-32.833 -11 -53.5 -11
c-22.667 0 -41.834 3.66699 -57.501 11s-28.5 16.833 -38.5 28.5s-17.333 24.334 -22 38.001s-7.33398 26.834 -8.00098 39.501h51z" />
    <glyph glyph-name="gbreve" unicode="&#x11f;" horiz-adv-x="363" 
d="M158 498c26.667 0 47.0029 -4.33496 61.0029 -13.002s26.667 -20.667 38 -36h2v42h60v-525c0 -22.667 -2 -44 -6 -64s-11.167 -37.5 -21.5 -52.5s-24.833 -27 -43.5 -36s-42.334 -13.5 -71.001 -13.5c-40 0 -71.833 10.5 -95.5 31.5s-36.167 51.5 -37.5 91.5l61 11
c0.666992 -23.333 7 -42.166 19 -56.499s31 -21.5 57 -21.5s45.5 9 58.5 27s19.5 39 19.5 63v106h-2c-10.667 -19.333 -25.834 -33.666 -45.501 -42.999s-38.834 -14 -57.501 -14c-30 0 -53 6 -69 18s-28 27.667 -36 47c-7.33301 18 -11.833 39.833 -13.5 65.5
s-2.5 52.5 -2.5 80.5v48c0 20 0.166992 40.167 0.5 60.5s1.5 41.833 3.5 64.5c2.66699 25.333 8.5 45.833 17.5 61.5s19.5 27.667 31.5 36s24.5 14 37.5 17s24.5 4.5 34.5 4.5zM176.003 438.998c-17.333 0 -32.1699 -3.83105 -44.5029 -11.498s-21.5 -20.834 -27.5 -39.501
c-4 -13.333 -6.5 -31.333 -7.5 -54s-1.5 -49.667 -1.5 -81c0 -34.667 0.5 -66.334 1.5 -95.001s4.5 -50 10.5 -64c10.667 -27.333 33.334 -41 68.001 -41c16 0 29.333 3.33301 40 10s19.334 15.334 26.001 26.001s11.334 22.667 14.001 36s4 26.666 4 39.999v182
c0 27.333 -7.33301 49.5 -22 66.5s-35 25.5 -61 25.5zM104.999 680c2.66699 -17.333 10.8301 -33.333 24.4971 -48s30.5 -22 50.5 -22c21.333 0 38.833 7 52.5 21s21.5 30.333 23.5 49h50c-1.33301 -12.667 -4.66602 -25.834 -9.99902 -39.501
s-13.166 -26.334 -23.499 -38.001s-23.166 -21.167 -38.499 -28.5s-33.333 -11 -54 -11c-22 0 -40.833 3.66699 -56.5 11s-28.5 16.833 -38.5 28.5s-17.5 24.334 -22.5 38.001s-7.83301 26.834 -8.5 39.501h51z" />
    <glyph glyph-name="Gdotaccent" unicode="&#x120;" horiz-adv-x="405" 
d="M203 -7c-50 0 -88.334 13.6641 -115.001 40.9971s-40 67 -40 119v363c0 26.667 2.5 51.334 7.5 74.001s13.5 42.334 25.5 59.001s28 29.667 48 39s44.667 14 74 14c48.667 0 86 -12.833 112 -38.5s39.667 -63.167 41 -112.5l-61 -15v1
c0 36.667 -8.16699 63.834 -24.5 81.501s-39.166 26.5 -68.499 26.5c-17.333 0 -31.833 -3.33301 -43.5 -10s-21.167 -15.5 -28.5 -26.5s-12.666 -23.5 -15.999 -37.5s-5 -28.333 -5 -43v-372c0 -13.333 1.66699 -26.5 5 -39.5s8.66602 -24.5 15.999 -34.5
s16.833 -18 28.5 -24s26.167 -9 43.5 -9h1c28 0 51.333 8.16699 70 24.5s28 38.833 28 67.5v173h-84v54h145v-221c0 -25.333 -4.16699 -47.5 -12.5 -66.5s-19.833 -35 -34.5 -48s-31.5 -22.833 -50.5 -29.5s-39.5 -10 -61.5 -10zM177.999 765.997v64h55v-64h-55z" />
    <glyph glyph-name="gdotaccent" unicode="&#x121;" horiz-adv-x="363" 
d="M158 498c26.667 0 47.0029 -4.33496 61.0029 -13.002s26.667 -20.667 38 -36h2v42h60v-525c0 -22.667 -2 -44 -6 -64s-11.167 -37.5 -21.5 -52.5s-24.833 -27 -43.5 -36s-42.334 -13.5 -71.001 -13.5c-40 0 -71.833 10.5 -95.5 31.5s-36.167 51.5 -37.5 91.5l61 11
c0.666992 -23.333 7 -42.166 19 -56.499s31 -21.5 57 -21.5s45.5 9 58.5 27s19.5 39 19.5 63v106h-2c-10.667 -19.333 -25.834 -33.666 -45.501 -42.999s-38.834 -14 -57.501 -14c-30 0 -53 6 -69 18s-28 27.667 -36 47c-7.33301 18 -11.833 39.833 -13.5 65.5
s-2.5 52.5 -2.5 80.5v48c0 20 0.166992 40.167 0.5 60.5s1.5 41.833 3.5 64.5c2.66699 25.333 8.5 45.833 17.5 61.5s19.5 27.667 31.5 36s24.5 14 37.5 17s24.5 4.5 34.5 4.5zM176.003 438.998c-17.333 0 -32.1699 -3.83105 -44.5029 -11.498s-21.5 -20.834 -27.5 -39.501
c-4 -13.333 -6.5 -31.333 -7.5 -54s-1.5 -49.667 -1.5 -81c0 -34.667 0.5 -66.334 1.5 -95.001s4.5 -50 10.5 -64c10.667 -27.333 33.334 -41 68.001 -41c16 0 29.333 3.33301 40 10s19.334 15.334 26.001 26.001s11.334 22.667 14.001 36s4 26.666 4 39.999v182
c0 27.333 -7.33301 49.5 -22 66.5s-35 25.5 -61 25.5zM158.999 596v64h55v-64h-55z" />
    <glyph glyph-name="Gcommaaccent" unicode="&#x122;" horiz-adv-x="405" 
d="M203 -7c-50 0 -88.334 13.6641 -115.001 40.9971s-40 67 -40 119v363c0 26.667 2.5 51.334 7.5 74.001s13.5 42.334 25.5 59.001s28 29.667 48 39s44.667 14 74 14c48.667 0 86 -12.833 112 -38.5s39.667 -63.167 41 -112.5l-61 -15v1
c0 36.667 -8.16699 63.834 -24.5 81.501s-39.166 26.5 -68.499 26.5c-17.333 0 -31.833 -3.33301 -43.5 -10s-21.167 -15.5 -28.5 -26.5s-12.666 -23.5 -15.999 -37.5s-5 -28.333 -5 -43v-372c0 -13.333 1.66699 -26.5 5 -39.5s8.66602 -24.5 15.999 -34.5
s16.833 -18 28.5 -24s26.167 -9 43.5 -9h1c28 0 51.333 8.16699 70 24.5s28 38.833 28 67.5v173h-84v54h145v-221c0 -25.333 -4.16699 -47.5 -12.5 -66.5s-19.833 -35 -34.5 -48s-31.5 -22.833 -50.5 -29.5s-39.5 -10 -61.5 -10zM200.999 -226.003h-35l11.5 43.5
c3.66699 14.333 7.16699 28.833 10.5 43.5h-17v76h69v-75z" />
    <glyph glyph-name="gcommaaccent" unicode="&#x123;" horiz-adv-x="363" 
d="M158 498c26.667 0 47.0029 -4.33496 61.0029 -13.002s26.667 -20.667 38 -36h2v42h60v-525c0 -22.667 -2 -44 -6 -64s-11.167 -37.5 -21.5 -52.5s-24.833 -27 -43.5 -36s-42.334 -13.5 -71.001 -13.5c-40 0 -71.833 10.5 -95.5 31.5s-36.167 51.5 -37.5 91.5l61 11
c0.666992 -23.333 7 -42.166 19 -56.499s31 -21.5 57 -21.5s45.5 9 58.5 27s19.5 39 19.5 63v106h-2c-10.667 -19.333 -25.834 -33.666 -45.501 -42.999s-38.834 -14 -57.501 -14c-30 0 -53 6 -69 18s-28 27.667 -36 47c-7.33301 18 -11.833 39.833 -13.5 65.5
s-2.5 52.5 -2.5 80.5v48c0 20 0.166992 40.167 0.5 60.5s1.5 41.833 3.5 64.5c2.66699 25.333 8.5 45.833 17.5 61.5s19.5 27.667 31.5 36s24.5 14 37.5 17s24.5 4.5 34.5 4.5zM176.003 438.998c-17.333 0 -32.1699 -3.83105 -44.5029 -11.498s-21.5 -20.834 -27.5 -39.501
c-4 -13.333 -6.5 -31.333 -7.5 -54s-1.5 -49.667 -1.5 -81c0 -34.667 0.5 -66.334 1.5 -95.001s4.5 -50 10.5 -64c10.667 -27.333 33.334 -41 68.001 -41c16 0 29.333 3.33301 40 10s19.334 15.334 26.001 26.001s11.334 22.667 14.001 36s4 26.666 4 39.999v182
c0 27.333 -7.33301 49.5 -22 66.5s-35 25.5 -61 25.5zM199.999 723h35c-3.33301 -14.667 -6.83301 -29 -10.5 -43l-11.5 -43h17v-77h-69v75z" />
    <glyph glyph-name="Hcircumflex" unicode="&#x124;" horiz-adv-x="420" 
d="M305 0v329h-191v-329h-61v696h61v-313h191v313h62v-696h-62zM210 806l-113 -76l-27 23l123 111h40l116 -109l-26 -24z" />
    <glyph glyph-name="hcircumflex" unicode="&#x125;" horiz-adv-x="364" 
d="M102 440h2.00293c11.333 18.667 26.166 33 44.499 43s38.5 15 60.5 15c20.667 0 38.167 -3.33301 52.5 -10s26.166 -15.667 35.499 -27s16.166 -25 20.499 -41s6.5 -33.333 6.5 -52v-368h-63v350c0 25.333 -5.83301 46 -17.5 62s-31.5 24 -59.5 24
c-26.667 0 -47.167 -8.83301 -61.5 -26.5s-21.5 -39.167 -21.5 -64.5v-345h-61v726h62v-286zM71.0029 806l-113 -76l-27 23l123 111h40l116 -109l-26 -24z" />
    <glyph glyph-name="Hbar" unicode="&#x126;" horiz-adv-x="420" 
d="M305 0v329h-191v-329h-61v551h-47v44h47v101h61v-101h191v101h62v-101h47v-44h-47v-551h-62zM305 383v168h-191v-168h191z" />
    <glyph glyph-name="hbar" unicode="&#x127;" horiz-adv-x="364" 
d="M102 625h158.003v-44h-158v-141h2c11.333 18.667 26.166 33 44.499 43s38.5 15 60.5 15c20.667 0 38.167 -3.33301 52.5 -10s26.166 -15.667 35.499 -27s16.166 -25 20.499 -41s6.5 -33.333 6.5 -52v-368h-63v350c0 25.333 -5.83301 46 -17.5 62s-31.5 24 -59.5 24
c-26.667 0 -47.167 -8.83301 -61.5 -26.5s-21.5 -39.167 -21.5 -64.5v-345h-61v581h-38v44h38v101h62v-101z" />
    <glyph glyph-name="Itilde" unicode="&#x128;" horiz-adv-x="205" 
d="M71 0v696h63v-696h-63zM240 807c-10.667 -22 -23.5 -38.834 -38.5 -50.501s-29.5 -17.5 -43.5 -17.5c-10 0 -19.833 2 -29.5 6s-19.167 8.16699 -28.5 12.5l-27 12.5c-8.66699 4 -17 6 -25 6c-17.333 0 -34 -11.667 -50 -35l-33 20c8 16.667 19.167 31.834 33.5 45.501
s29.833 20.5 46.5 20.5c10 0 19.333 -2 28 -6s17.5 -8.33301 26.5 -13s18.167 -9 27.5 -13s19.333 -6 30 -6c16.667 0 33.667 13 51 39z" />
    <glyph glyph-name="itilde" unicode="&#x129;" horiz-adv-x="235" 
d="M88 0v492h62v-492h-62zM255 644c-10.667 -22 -23.5 -38.834 -38.5 -50.501s-29.5 -17.5 -43.5 -17.5c-10 0 -19.833 2 -29.5 6s-19.167 8.16699 -28.5 12.5l-27 12.5c-8.66699 4 -17 6 -25 6c-17.333 0 -34 -11.667 -50 -35l-33 20c8 16.667 19.167 31.834 33.5 45.501
s29.833 20.5 46.5 20.5c10 0 19.333 -2 28 -6s17.5 -8.33301 26.5 -13s18.167 -9 27.5 -13s19.333 -6 30 -6c16.667 0 33.667 13 51 39z" />
    <glyph glyph-name="Imacron" unicode="&#x12a;" horiz-adv-x="193" 
d="M70 0v696h63v-696h-63zM-10 752v52h223v-52h-223z" />
    <glyph glyph-name="imacron" unicode="&#x12b;" horiz-adv-x="203" 
d="M69 1v492h62v-492h-62zM-10 589v54h223v-54h-223z" />
    <glyph glyph-name="Ibreve" unicode="&#x12c;" horiz-adv-x="232" 
d="M87 0v696h63v-696h-63zM41 860c2.66699 -17.333 10.8301 -33.333 24.4971 -48s30.5 -22 50.5 -22c21.333 0 38.833 7 52.5 21s21.5 30.333 23.5 49h50c-1.33301 -12.667 -4.66602 -25.834 -9.99902 -39.501s-13.166 -26.334 -23.499 -38.001
s-23.166 -21.167 -38.499 -28.5s-33.333 -11 -54 -11c-22 0 -40.833 3.66699 -56.5 11s-28.5 16.833 -38.5 28.5s-17.5 24.334 -22.5 38.001s-7.83301 26.834 -8.5 39.501h51z" />
    <glyph glyph-name="ibreve" unicode="&#x12d;" horiz-adv-x="232" 
d="M85 0v492h62v-492h-62zM41 686c2.66699 -17.333 10.8301 -33.333 24.4971 -48s30.5 -22 50.5 -22c21.333 0 38.833 7 52.5 21s21.5 30.333 23.5 49h50c-1.33301 -12.667 -4.66602 -25.834 -9.99902 -39.501s-13.166 -26.334 -23.499 -38.001
s-23.166 -21.167 -38.499 -28.5s-33.333 -11 -54 -11c-22 0 -40.833 3.66699 -56.5 11s-28.5 16.833 -38.5 28.5s-17.5 24.334 -22.5 38.001s-7.83301 26.834 -8.5 39.501h51z" />
    <glyph glyph-name="Iogonek" unicode="&#x12e;" horiz-adv-x="183" 
d="M36 -91c0 13.333 2.5 27.501 7.5 42.501s13.833 31.167 26.5 48.5h-10v696h63v-696h-11c-10 -14.667 -17.833 -28.834 -23.5 -42.501s-8.5 -26.167 -8.5 -37.5c0 -18 4 -30.5 12 -37.5s18.333 -10.5 31 -10.5c7.33301 0 15.166 1 23.499 3s17.166 5.66699 26.499 11
l14 -39c-9.33301 -6.66699 -20.666 -12.167 -33.999 -16.5s-26.333 -6.5 -39 -6.5c-23.333 0 -42.166 7.83301 -56.499 23.5s-21.5 36.167 -21.5 61.5z" />
    <glyph glyph-name="iogonek" unicode="&#x12f;" horiz-adv-x="163" 
d="M26 -91c0 13.333 2.5 27.501 7.5 42.501s13.833 31.167 26.5 48.5h-11v492h62v-492h-9c-10 -14.667 -17.833 -28.834 -23.5 -42.501s-8.5 -26.167 -8.5 -37.5c0 -18 4 -30.5 12 -37.5s18.333 -10.5 31 -10.5c7.33301 0 15.166 1 23.499 3s17.166 5.66699 26.499 11
l14 -39c-9.33301 -6.66699 -20.666 -12.167 -33.999 -16.5s-26.333 -6.5 -39 -6.5c-23.333 0 -42.166 7.83301 -56.499 23.5s-21.5 36.167 -21.5 61.5zM49 612.001v64h63v-64h-63z" />
    <glyph glyph-name="Idotaccent" unicode="&#x130;" horiz-adv-x="183" 
d="M60 0v696h63v-696h-63zM65 759v64h55v-64h-55z" />
    <glyph glyph-name="dotlessi" unicode="&#x131;" horiz-adv-x="163" 
d="M49 0v492h62v-492h-62z" />
    <glyph glyph-name="IJ" unicode="&#x132;" horiz-adv-x="510" 
d="M60 0v696h63v-696h-63zM452 696l-0.000976562 -532.001c0 -55.333 -13.167 -97.666 -39.5 -126.999s-66.166 -44 -119.499 -44c-22.667 0 -44.5 4 -65.5 12s-37.833 20.667 -50.5 38l42 40c8.66699 -9.33301 20 -17.333 34 -24s27.667 -10 41 -10
c27.333 0 50.333 8.66699 69 26s28 45 28 83v538h61z" />
    <glyph glyph-name="ij" unicode="&#x133;" horiz-adv-x="347" 
d="M49 612v64h63v-64h-63zM49 0v492h62v-492h-62zM240 613v64h63v-64h-63zM302 -71c0 -18 -1.50098 -34.8311 -4.50098 -50.498s-8.5 -29.334 -16.5 -41.001s-19 -20.834 -33 -27.501s-32 -10 -54 -10h-22v56h11c24.667 0 40.334 7.33301 47.001 22s10 35.667 10 63v551h62
v-563z" />
    <glyph glyph-name="Jcircumflex" unicode="&#x134;" horiz-adv-x="333" 
d="M265 697l-0.000976562 -532.001c0 -55.333 -13.167 -97.666 -39.5 -126.999s-66.166 -44 -119.499 -44c-22.667 0 -44.5 4 -65.5 12s-37.833 20.667 -50.5 38l42 40c8.66699 -9.33301 20 -17.333 34 -24s27.667 -10 41 -10c27.333 0 50.333 8.66699 69 26s28 45 28 83
v538h61zM235.999 807.999l-113 -76l-27 23l123 111h40l116 -109l-26 -24z" />
    <glyph glyph-name="jcircumflex" unicode="&#x135;" horiz-adv-x="257" 
d="M99 491l61 -0.000976562v-573c0 -18 -1.83301 -34.5 -5.5 -49.5s-9.83398 -28.167 -18.501 -39.5s-20.167 -20.166 -34.5 -26.499s-31.833 -9.5 -52.5 -9.5h-17v57h7c24.667 0 40.834 7.33301 48.501 22s11.5 35.667 11.5 63v556zM241 551.999l-56.5 47l-56.5 48
l-112 -96l-26 22l61 65l60 66h40l116 -129c-4 -4 -8.33301 -8 -13 -12z" />
    <glyph glyph-name="Kcommaaccent" unicode="&#x136;" horiz-adv-x="406" 
d="M335 0l-139 354l-83 -155v-199h-60v696h60v-382h2l194 382h63l-140 -275l167 -421h-64zM216 -206h-35l11.5 43.5c3.66699 14.333 7.16699 28.833 10.5 43.5h-17v76h69v-75z" />
    <glyph glyph-name="kcommaaccent" unicode="&#x137;" horiz-adv-x="360" 
d="M104 229l33.5 54l46.5 76.5l46 77l33 54.5h69l-114 -186l28 -62l40.5 -90.5l41 -90.5l28.5 -62h-67l-14 31l-19.5 44l-22 50.5l-22 50.5l-19 44l-13.5 31c-4 -6 -9.5 -14.833 -16.5 -26.5l-21.5 -37l-21.5 -37.5c-7 -12 -12.5 -21 -16.5 -27v-123h-61v726h61v-497h1z
M195 -226h-35l11.5 43.5c3.66699 14.333 7.16699 28.833 10.5 43.5h-17v76h69v-75z" />
    <glyph glyph-name="kgreenlandic" unicode="&#x138;" horiz-adv-x="358" 
d="M104 229l33.5 54l46.5 76.5l46.5 77l33.5 54.5h68l-114 -186l16.5 -37l23.5 -53.5l27 -62l27 -62l23.5 -53.5l16.5 -37h-67l-106 251c-4 -6 -9.5 -14.833 -16.5 -26.5l-21.5 -37l-21.5 -37.5c-7 -12 -12.5 -21 -16.5 -27v-123h-61v491h61v-262h1z" />
    <glyph glyph-name="Lacute" unicode="&#x139;" horiz-adv-x="337" 
d="M53 0v696h61v-640h216v-56h-277zM64 751l135 109l40 -47l-152 -91z" />
    <glyph glyph-name="lacute" unicode="&#x13a;" horiz-adv-x="189" 
d="M49 726h60.999v-603c0 -24 3.5 -42.333 10.5 -55s21.833 -19 44.5 -19h12v-56h-15c-18.667 0 -35.167 1.83301 -49.5 5.5s-26.166 10 -35.499 19s-16.333 21 -21 36s-7 34.167 -7 57.5v615zM56.999 771l135 109l40 -47l-152 -91z" />
    <glyph glyph-name="Lcommaaccent" unicode="&#x13b;" horiz-adv-x="337" 
d="M53 0v696h61v-640h216v-56h-277zM186 -226h-35l11.5 43.5c3.66699 14.333 7.16699 28.833 10.5 43.5h-17v76h69v-75z" />
    <glyph glyph-name="lcommaaccent" unicode="&#x13c;" horiz-adv-x="189" 
d="M49 726h60.999v-603c0 -24 3.5 -42.333 10.5 -55s21.833 -19 44.5 -19h12v-56h-15c-18.667 0 -35.167 1.83301 -49.5 5.5s-26.166 10 -35.499 19s-16.333 21 -21 36s-7 34.167 -7 57.5v615zM106.999 -226h-35l11.5 43.5c3.66699 14.333 7.16699 28.833 10.5 43.5h-17v76
h69v-75z" />
    <glyph glyph-name="Lcaron" unicode="&#x13d;" horiz-adv-x="337" 
d="M53 0v696h61v-640h216v-56h-277zM253 533h-35l11.5 43.5c3.66699 14.333 7.16699 28.833 10.5 43.5h-17v76h69v-75z" />
    <glyph glyph-name="lcaron" unicode="&#x13e;" horiz-adv-x="259" 
d="M49 726h60.999v-603c0 -24 3.5 -42.333 10.5 -55s21.833 -19 44.5 -19h12v-56h-15c-18.667 0 -35.167 1.83301 -49.5 5.5s-26.166 10 -35.499 19s-16.333 21 -21 36s-7 34.167 -7 57.5v615zM213.999 563h-35l11.5 43.5c3.66699 14.333 7.16699 28.833 10.5 43.5h-17v76
h69v-75z" />
    <glyph glyph-name="Ldot" unicode="&#x13f;" horiz-adv-x="337" 
d="M53 0v696h61v-640h216v-56h-277zM207 309v64h55v-64h-55z" />
    <glyph glyph-name="ldot" unicode="&#x140;" horiz-adv-x="239" 
d="M172 347v64h55v-64h-55zM49 726h60.999v-603c0 -24 3.5 -42.333 10.5 -55s21.833 -19 44.5 -19h12v-56h-15c-18.667 0 -35.167 1.83301 -49.5 5.5s-26.166 10 -35.499 19s-16.333 21 -21 36s-7 34.167 -7 57.5v615z" />
    <glyph glyph-name="Lslash" unicode="&#x141;" horiz-adv-x="375" 
d="M90 0v240l-66 -44l-24 35l90 60v405h61v-364l107 73l23 -35l-130 -88v-226h216v-56h-277z" />
    <glyph glyph-name="lslash" unicode="&#x142;" horiz-adv-x="272" 
d="M94 281l-70.001 -47l-24 36l94 63v393h61v-351l93 63l24 -35l-117 -80v-200c0 -24 3.5 -42.333 10.5 -55s21.833 -19 44.5 -19h12v-56h-15c-18.667 0 -35.167 1.83301 -49.5 5.5s-26.166 10 -35.499 19s-16.333 21 -21 36s-7 34.167 -7 57.5v170z" />
    <glyph glyph-name="Nacute" unicode="&#x143;" horiz-adv-x="441" 
d="M111 526l-0.000976562 -526h-61v696h58l17.5 -43l26 -62.5l30 -72l30 -72l26 -62.5c7.66699 -18.667 13.834 -33 18.501 -43l70 -174h4v529h61v-696h-58l-17.5 42.5l-26 62l-30 72l-30 71.5l-26.5 61.5c-8 18.333 -14 32.5 -18 42.5l-71 174h-3zM187.999 751l135 109
l40 -47l-152 -91z" />
    <glyph glyph-name="nacute" unicode="&#x144;" horiz-adv-x="362" 
d="M100 440h2.00293c11.333 18.667 26.166 33 44.499 43s38.5 15 60.5 15c20.667 0 38.167 -3.33301 52.5 -10s26.166 -15.667 35.499 -27s16.166 -25 20.499 -41s6.5 -33.333 6.5 -52v-368h-63v350c0 25.333 -5.33301 46 -16 62s-30 24 -58 24
c-27.333 0 -48.5 -9.16699 -63.5 -27.5s-22.5 -40.5 -22.5 -66.5v-342h-61v492h62v-52zM127.003 570l67 159l59 -21l-92 -152z" />
    <glyph glyph-name="Ncommaaccent" unicode="&#x145;" horiz-adv-x="441" 
d="M111 526l-0.000976562 -526h-61v696h58l17.5 -43l26 -62.5l30 -72l30 -72l26 -62.5c7.66699 -18.667 13.834 -33 18.501 -43l70 -174h4v529h61v-696h-58l-17.5 42.5l-26 62l-30 72l-30 71.5l-26.5 61.5c-8 18.333 -14 32.5 -18 42.5l-71 174h-3zM216.999 -200h-35
l11.5 43.5c3.66699 14.333 7.16699 28.833 10.5 43.5h-17v76h69v-75z" />
    <glyph glyph-name="ncommaaccent" unicode="&#x146;" horiz-adv-x="362" 
d="M100 440h2.00293c11.333 18.667 26.166 33 44.499 43s38.5 15 60.5 15c20.667 0 38.167 -3.33301 52.5 -10s26.166 -15.667 35.499 -27s16.166 -25 20.499 -41s6.5 -33.333 6.5 -52v-368h-63v350c0 25.333 -5.33301 46 -16 62s-30 24 -58 24
c-27.333 0 -48.5 -9.16699 -63.5 -27.5s-22.5 -40.5 -22.5 -66.5v-342h-61v492h62v-52zM176.003 -226h-35l11.5 43.5c3.66699 14.333 7.16699 28.833 10.5 43.5h-17v76h69v-75z" />
    <glyph glyph-name="Ncaron" unicode="&#x147;" horiz-adv-x="441" 
d="M111 526l-0.000976562 -526h-61v696h58l17.5 -43l26 -62.5l30 -72l30 -72l26 -62.5c7.66699 -18.667 13.834 -33 18.501 -43l70 -174h4v529h61v-696h-58l-17.5 42.5l-26 62l-30 72l-30 71.5l-26.5 61.5c-8 18.333 -14 32.5 -18 42.5l-71 174h-3zM333.999 864l27 -24
l-117 -109h-39l-123 111l27 22l113 -75z" />
    <glyph glyph-name="ncaron" unicode="&#x148;" horiz-adv-x="362" 
d="M100 440h2.00293c11.333 18.667 26.166 33 44.499 43s38.5 15 60.5 15c20.667 0 38.167 -3.33301 52.5 -10s26.166 -15.667 35.499 -27s16.166 -25 20.499 -41s6.5 -33.333 6.5 -52v-368h-63v350c0 25.333 -5.33301 46 -16 62s-30 24 -58 24
c-27.333 0 -48.5 -9.16699 -63.5 -27.5s-22.5 -40.5 -22.5 -66.5v-342h-61v492h62v-52zM287.003 705l26 -24l-116 -128h-40l-123 130l27 22l113 -95z" />
    <glyph glyph-name="napostrophe" unicode="&#x149;" horiz-adv-x="422" 
d="M160 440h2.00293c11.333 18.667 26.166 33 44.499 43s38.5 15 60.5 15c20.667 0 38.167 -3.33301 52.5 -10s26.166 -15.667 35.499 -27s16.166 -25 20.499 -41s6.5 -33.333 6.5 -52v-368h-63v350c0 25.333 -5.33301 46 -16 62s-30 24 -58 24
c-27.333 0 -48.5 -9.16699 -63.5 -27.5s-22.5 -40.5 -22.5 -66.5v-342h-61v492h62v-52zM44.0029 487h-35l11.5 43.5c3.66699 14.333 7.16699 28.833 10.5 43.5h-17v76h69v-75z" />
    <glyph glyph-name="Eng" unicode="&#x14a;" horiz-adv-x="441" 
d="M110 526v-526.001h-60v696h57l79 -188l78 -187l62 -155c0.666992 0 1.33398 0.166992 2.00098 0.5s1.33398 0.5 2.00098 0.5v529h60v-751c0 -33.333 -7.16699 -58.666 -21.5 -75.999s-34.833 -26 -61.5 -26c-10 0 -19.5 1 -28.5 3s-19.167 5.66699 -30.5 11l16 43
c7.33301 -2.66699 13.166 -4.5 17.499 -5.5s9.16602 -1.5 14.499 -1.5c21.333 0 32 17.333 32 52v65l-9 22l-67 160l-73 176l-66 158h-3z" />
    <glyph glyph-name="eng" unicode="&#x14b;" horiz-adv-x="362" 
d="M100 440h2.00293c11.333 18.667 26.166 33 44.499 43s38.5 15 60.5 15c20.667 0 38.167 -3.33301 52.5 -10s26.166 -15.667 35.499 -27s16.166 -25 20.499 -41s6.5 -33.333 6.5 -52v-423c0 -37.333 -7.5 -63.833 -22.5 -79.5s-35.5 -23.5 -61.5 -23.5
c-10 0 -19.5 1 -28.5 3s-19.167 5.66699 -30.5 11l16 44c7.33301 -2.66699 13 -4.5 17 -5.5s8.66699 -1.5 14 -1.5c22 0 33 17.333 33 52v405c0 25.333 -5.33301 46 -16 62s-30 24 -58 24c-27.333 0 -48.5 -9.16699 -63.5 -27.5s-22.5 -40.5 -22.5 -66.5v-342h-61v492h62
v-52z" />
    <glyph glyph-name="Omacron" unicode="&#x14c;" horiz-adv-x="409" 
d="M363 172c0 -58.667 -13.165 -103.164 -39.498 -133.497s-66.166 -45.5 -119.499 -45.5s-92.833 14.333 -118.5 43s-38.5 68.667 -38.5 120v366c0 24.667 2.66699 48 8 70s14.166 41.167 26.499 57.5s28.666 29.166 48.999 38.499s45.166 14 74.499 14
c30 0 55.167 -4.16699 75.5 -12.5s36.5 -20.333 48.5 -36s20.667 -34.334 26 -56.001s8 -45.834 8 -72.501v-353zM301.002 534.003c0 14.667 -1.66895 28.6689 -5.00195 42.002s-8.66602 25.166 -15.999 35.499s-17.166 18.666 -29.499 24.999s-27.5 9.5 -45.5 9.5
c-19.333 0 -35.333 -4.16699 -48 -12.5s-22.667 -18.833 -30 -31.5s-12.5 -26.5 -15.5 -41.5s-4.5 -29.167 -4.5 -42.5v-363c0 -13.333 1.83301 -26.333 5.5 -39s9.33398 -24 17.001 -34s17.667 -18 30 -24s27.166 -9 44.499 -9c35.333 0 60.333 11.333 75 34s22 50 22 82
v369zM95 752.005v52h223v-52h-223z" />
    <glyph glyph-name="omacron" unicode="&#x14d;" horiz-adv-x="356" 
d="M180 498c37.333 0 66.1689 -7.33105 86.502 -21.998s34.5 -33 42.5 -55c6 -17.333 9.83301 -39.333 11.5 -66s2.5 -53.334 2.5 -80.001v-49c0 -18 -0.333008 -35.833 -1 -53.5s-2 -36.5 -4 -56.5c-2.66699 -24.667 -8.83398 -45 -18.501 -61s-21.334 -28.5 -35.001 -37.5
s-28.5 -15.333 -44.5 -19s-31.667 -5.5 -47 -5.5c-40.667 0 -71 8.83301 -91 26.5s-33.333 39.167 -40 64.5c-2 8 -3.66699 18.167 -5 30.5s-2.33301 25.666 -3 39.999s-1 28.833 -1 43.5v42c0 17.333 0.166992 34.833 0.5 52.5s1.16602 34.5 2.49902 50.5
s2.83301 30.5 4.5 43.5s4.16699 23.5 7.5 31.5c8.66699 24 23.834 43.333 45.501 58s50.5 22 86.5 22zM179.003 443.002c-15.333 0 -29.6709 -3.33301 -43.0039 -10s-23.666 -18.667 -30.999 -36c-4.66699 -12 -7.66699 -30.333 -9 -55s-2 -54 -2 -88v-32
c0 -27.333 0.333008 -51.666 1 -72.999s3 -37.666 7 -48.999c10 -34 35.667 -51 77 -51c19.333 0 35.833 5.66699 49.5 17s22.834 26.666 27.501 45.999c2 12 3.66699 29.667 5 53s2 47.666 2 72.999c0 14 -0.166992 28.667 -0.5 44l-1 44
c-0.333008 14 -1.16602 26.667 -2.49902 38s-3 20 -5 26c-5.33301 17.333 -14.666 30.5 -27.999 39.5s-29 13.5 -47 13.5zM63.998 588.002v54h223v-54h-223z" />
    <glyph glyph-name="Obreve" unicode="&#x14e;" horiz-adv-x="409" 
d="M363 172c0 -58.667 -13.165 -103.164 -39.498 -133.497s-66.166 -45.5 -119.499 -45.5s-92.833 14.333 -118.5 43s-38.5 68.667 -38.5 120v366c0 24.667 2.66699 48 8 70s14.166 41.167 26.499 57.5s28.666 29.166 48.999 38.499s45.166 14 74.499 14
c30 0 55.167 -4.16699 75.5 -12.5s36.5 -20.333 48.5 -36s20.667 -34.334 26 -56.001s8 -45.834 8 -72.501v-353zM301.002 534.003c0 14.667 -1.66895 28.6689 -5.00195 42.002s-8.66602 25.166 -15.999 35.499s-17.166 18.666 -29.499 24.999s-27.5 9.5 -45.5 9.5
c-19.333 0 -35.333 -4.16699 -48 -12.5s-22.667 -18.833 -30 -31.5s-12.5 -26.5 -15.5 -41.5s-4.5 -29.167 -4.5 -42.5v-363c0 -13.333 1.83301 -26.333 5.5 -39s9.33398 -24 17.001 -34s17.667 -18 30 -24s27.166 -9 44.499 -9c35.333 0 60.333 11.333 75 34s22 50 22 82
v369zM132 862.005c2 -17.333 10.002 -33.333 24.002 -48s31 -22 51 -22c21.333 0 38.833 7.16699 52.5 21.5s21.167 30.5 22.5 48.5h51c-1.33301 -12.667 -4.83301 -25.834 -10.5 -39.501s-13.667 -26.334 -24 -38.001s-23 -21.167 -38 -28.5s-32.833 -11 -53.5 -11
c-22.667 0 -41.834 3.66699 -57.501 11s-28.5 16.833 -38.5 28.5s-17.333 24.334 -22 38.001s-7.33398 26.834 -8.00098 39.501h51z" />
    <glyph glyph-name="obreve" unicode="&#x14f;" horiz-adv-x="356" 
d="M180 498c37.333 0 66.1689 -7.33105 86.502 -21.998s34.5 -33 42.5 -55c6 -17.333 9.83301 -39.333 11.5 -66s2.5 -53.334 2.5 -80.001v-49c0 -18 -0.333008 -35.833 -1 -53.5s-2 -36.5 -4 -56.5c-2.66699 -24.667 -8.83398 -45 -18.501 -61s-21.334 -28.5 -35.001 -37.5
s-28.5 -15.333 -44.5 -19s-31.667 -5.5 -47 -5.5c-40.667 0 -71 8.83301 -91 26.5s-33.333 39.167 -40 64.5c-2 8 -3.66699 18.167 -5 30.5s-2.33301 25.666 -3 39.999s-1 28.833 -1 43.5v42c0 17.333 0.166992 34.833 0.5 52.5s1.16602 34.5 2.49902 50.5
s2.83301 30.5 4.5 43.5s4.16699 23.5 7.5 31.5c8.66699 24 23.834 43.333 45.501 58s50.5 22 86.5 22zM179.003 443.002c-15.333 0 -29.6709 -3.33301 -43.0039 -10s-23.666 -18.667 -30.999 -36c-4.66699 -12 -7.66699 -30.333 -9 -55s-2 -54 -2 -88v-32
c0 -27.333 0.333008 -51.666 1 -72.999s3 -37.666 7 -48.999c10 -34 35.667 -51 77 -51c19.333 0 35.833 5.66699 49.5 17s22.834 26.666 27.501 45.999c2 12 3.66699 29.667 5 53s2 47.666 2 72.999c0 14 -0.166992 28.667 -0.5 44l-1 44
c-0.333008 14 -1.16602 26.667 -2.49902 38s-3 20 -5 26c-5.33301 17.333 -14.666 30.5 -27.999 39.5s-29 13.5 -47 13.5zM100.998 680.002c2.66699 -17.333 10.8301 -33.333 24.4971 -48s30.5 -22 50.5 -22c21.333 0 38.833 7 52.5 21s21.5 30.333 23.5 49h50
c-1.33301 -12.667 -4.66602 -25.834 -9.99902 -39.501s-13.166 -26.334 -23.499 -38.001s-23.166 -21.167 -38.499 -28.5s-33.333 -11 -54 -11c-22 0 -40.833 3.66699 -56.5 11s-28.5 16.833 -38.5 28.5s-17.5 24.334 -22.5 38.001s-7.83301 26.834 -8.5 39.501h51z" />
    <glyph glyph-name="Ohungarumlaut" unicode="&#x150;" horiz-adv-x="409" 
d="M363 172c0 -58.667 -13.165 -103.164 -39.498 -133.497s-66.166 -45.5 -119.499 -45.5s-92.833 14.333 -118.5 43s-38.5 68.667 -38.5 120v366c0 24.667 2.66699 48 8 70s14.166 41.167 26.499 57.5s28.666 29.166 48.999 38.499s45.166 14 74.499 14
c30 0 55.167 -4.16699 75.5 -12.5s36.5 -20.333 48.5 -36s20.667 -34.334 26 -56.001s8 -45.834 8 -72.501v-353zM301.002 534.003c0 14.667 -1.66895 28.6689 -5.00195 42.002s-8.66602 25.166 -15.999 35.499s-17.166 18.666 -29.499 24.999s-27.5 9.5 -45.5 9.5
c-19.333 0 -35.333 -4.16699 -48 -12.5s-22.667 -18.833 -30 -31.5s-12.5 -26.5 -15.5 -41.5s-4.5 -29.167 -4.5 -42.5v-363c0 -13.333 1.83301 -26.333 5.5 -39s9.33398 -24 17.001 -34s17.667 -18 30 -24s27.166 -9 44.499 -9c35.333 0 60.333 11.333 75 34s22 50 22 82
v369zM107 751.005l128 109l41 -47l-146 -91zM237 751.005l128 109l41 -47l-146 -91z" />
    <glyph glyph-name="ohungarumlaut" unicode="&#x151;" horiz-adv-x="356" 
d="M180 498c37.333 0 66.1689 -7.33105 86.502 -21.998s34.5 -33 42.5 -55c6 -17.333 9.83301 -39.333 11.5 -66s2.5 -53.334 2.5 -80.001v-49c0 -18 -0.333008 -35.833 -1 -53.5s-2 -36.5 -4 -56.5c-2.66699 -24.667 -8.83398 -45 -18.501 -61s-21.334 -28.5 -35.001 -37.5
s-28.5 -15.333 -44.5 -19s-31.667 -5.5 -47 -5.5c-40.667 0 -71 8.83301 -91 26.5s-33.333 39.167 -40 64.5c-2 8 -3.66699 18.167 -5 30.5s-2.33301 25.666 -3 39.999s-1 28.833 -1 43.5v42c0 17.333 0.166992 34.833 0.5 52.5s1.16602 34.5 2.49902 50.5
s2.83301 30.5 4.5 43.5s4.16699 23.5 7.5 31.5c8.66699 24 23.834 43.333 45.501 58s50.5 22 86.5 22zM179.003 443.002c-15.333 0 -29.6709 -3.33301 -43.0039 -10s-23.666 -18.667 -30.999 -36c-4.66699 -12 -7.66699 -30.333 -9 -55s-2 -54 -2 -88v-32
c0 -27.333 0.333008 -51.666 1 -72.999s3 -37.666 7 -48.999c10 -34 35.667 -51 77 -51c19.333 0 35.833 5.66699 49.5 17s22.834 26.666 27.501 45.999c2 12 3.66699 29.667 5 53s2 47.666 2 72.999c0 14 -0.166992 28.667 -0.5 44l-1 44
c-0.333008 14 -1.16602 26.667 -2.49902 38s-3 20 -5 26c-5.33301 17.333 -14.666 30.5 -27.999 39.5s-29 13.5 -47 13.5zM99.998 570.002l67 159l59 -21l-92 -152zM194.998 570.002l67 159l58 -21l-92 -152z" />
    <glyph glyph-name="OE" unicode="&#x152;" horiz-adv-x="570" 
d="M224 699c15.333 0 28 -0.999023 38 -2.99902h286v-57h-230v-256h201v-56h-201v-272h230v-55h-285c-8.66699 -2 -18.334 -3.66699 -29.001 -5s-21.667 -2 -33 -2c-52.667 0 -92.167 14.167 -118.5 42.5s-39.5 68.166 -39.5 119.499v367c0 24.667 2.83301 48 8.5 70
s14.667 41.167 27 57.5s28.5 29.166 48.5 38.499s44.667 14 74 14c4.66699 0 8.83398 -0.166992 12.501 -0.5s7.16699 -1.16602 10.5 -2.49902zM201 646.001c-19.333 0 -35.168 -4.16699 -47.501 -12.5s-22.166 -18.833 -29.499 -31.5s-12.5 -26.5 -15.5 -41.5
s-4.5 -29.167 -4.5 -42.5v-364c0 -13.333 1.83301 -26.333 5.5 -39s9.33398 -24 17.001 -34s17.5 -18 29.5 -24s26.667 -9 44 -9c23.333 0 42.666 4.66699 57.999 14v571c-14.667 8.66699 -33.667 13 -57 13z" />
    <glyph glyph-name="oe" unicode="&#x153;" horiz-adv-x="578" 
d="M413 498c41.333 0 73.001 -9.99805 95.001 -29.998s35 -48.667 39 -86c0.666992 -6.66699 1.16699 -13.334 1.5 -20.001s0.5 -13.667 0.5 -21v-110h-221c0 -6.66699 0.166992 -13 0.5 -19s0.5 -12.333 0.5 -19l2 -53c0.666992 -18 2.66699 -31.667 6 -41
c5.33301 -15.333 13.833 -27.5 25.5 -36.5s27.5 -13.5 47.5 -13.5c25.333 0 43.833 7.66699 55.5 23s18.834 33.333 21.501 54l60 -14c-5.33301 -36 -19 -64.833 -41 -86.5s-55 -32.5 -99 -32.5c-31.333 0 -55.833 5.5 -73.5 16.5s-30.834 24.167 -39.501 39.5
c-14 -21.333 -32.167 -36 -54.5 -44s-44.5 -12 -66.5 -12c-40.667 0 -70.834 8.83301 -90.501 26.5s-33.167 39.167 -40.5 64.5c-2 8 -3.66699 18.167 -5 30.5s-2.16602 25.666 -2.49902 39.999l-1 43.5c-0.333008 14.667 -0.5 28.667 -0.5 42c0 17.333 0.166992 35 0.5 53
s1.16602 35 2.49902 51s2.83301 30.667 4.5 44s4.16699 24 7.5 32c9.33301 24 24.666 43 45.999 57s50 21 86 21c30 0 54.333 -5.16699 73 -15.5s33 -23.5 43 -39.5h1c10.667 17.333 25.334 30.833 44.001 40.5s42.667 14.5 72 14.5zM179.001 443.002
c-15.333 0 -29.668 -3.33203 -43.001 -9.99902s-23.666 -18.667 -30.999 -36c-4.66699 -12 -7.66699 -30.333 -9 -55s-2 -54 -2 -88v-32c0 -27.333 0.333008 -51.666 1 -72.999s3 -37.666 7 -48.999c5.33301 -16.667 14.166 -29.334 26.499 -38.001s29.166 -13 50.499 -13
c19.333 0 35.833 5.66699 49.5 17s22.834 26.666 27.501 45.999c2 12 3.66699 29.667 5 53s2 47.666 2 72.999c0 14 -0.166992 28.667 -0.5 44l-1 44c-0.333008 14 -1.16602 26.667 -2.49902 38s-3 20 -5 26c-5.33301 17.333 -14.5 30.5 -27.5 39.5s-28.833 13.5 -47.5 13.5
zM339.999 395.003c-4.66699 -10.667 -7.5 -25.5 -8.5 -44.5s-1.83301 -42.167 -2.5 -69.5h158v52v15.5c0 5 -0.333008 10.167 -1 15.5c-1.33301 22 -7.83301 40.333 -19.5 55s-30.5 22 -56.5 22c-14 0 -27.333 -3.33301 -40 -10s-22.667 -18.667 -30 -36z" />
    <glyph glyph-name="Racute" unicode="&#x154;" horiz-adv-x="406" 
d="M196 696c61.333 0 104.999 -16.3311 130.999 -48.998s39 -80.334 39 -143.001c0 -41.333 -7.16699 -77.833 -21.5 -109.5s-40.166 -54.834 -77.499 -69.501l54 -163l54 -162h-63l-102 312h-97v-312h-61v696h144zM112.999 640.002l-0.000976562 -273.001h77
c42.667 0 72.5 11.5 89.5 34.5s25.5 57.167 25.5 102.5c0 20.667 -1.83301 39.334 -5.5 56.001s-10 31 -19 43s-21.167 21.167 -36.5 27.5s-34.666 9.5 -57.999 9.5h-73zM139.998 751.001l135 109l40 -47l-152 -91z" />
    <glyph glyph-name="racute" unicode="&#x155;" horiz-adv-x="246" 
d="M116 430c11.333 26 25.668 44 43.001 54s38.666 15 63.999 15h7.5c3 0 5.5 -0.333008 7.5 -1v-72c-4.66699 0.666992 -9.16699 1.16699 -13.5 1.5s-8.83301 0.5 -13.5 0.5c-30.667 0 -54.5 -9.16699 -71.5 -27.5s-25.5 -46.5 -25.5 -84.5v-316h-62v492h62v-62h2z
M97.002 570l67 159l59 -21l-92 -152z" />
    <glyph glyph-name="Rcommaaccent" unicode="&#x156;" horiz-adv-x="406" 
d="M196 696c61.333 0 104.999 -16.3311 130.999 -48.998s39 -80.334 39 -143.001c0 -41.333 -7.16699 -77.833 -21.5 -109.5s-40.166 -54.834 -77.499 -69.501l54 -163l54 -162h-63l-102 312h-97v-312h-61v696h144zM112.999 640.002l-0.000976562 -273.001h77
c42.667 0 72.5 11.5 89.5 34.5s25.5 57.167 25.5 102.5c0 20.667 -1.83301 39.334 -5.5 56.001s-10 31 -19 43s-21.167 21.167 -36.5 27.5s-34.666 9.5 -57.999 9.5h-73zM199.998 -205.999h-35l11.5 43.5c3.66699 14.333 7.16699 28.833 10.5 43.5h-17v76h69v-75z" />
    <glyph glyph-name="rcommaaccent" unicode="&#x157;" horiz-adv-x="246" 
d="M116 430c11.333 26 25.668 44 43.001 54s38.666 15 63.999 15h7.5c3 0 5.5 -0.333008 7.5 -1v-72c-4.66699 0.666992 -9.16699 1.16699 -13.5 1.5s-8.83301 0.5 -13.5 0.5c-30.667 0 -54.5 -9.16699 -71.5 -27.5s-25.5 -46.5 -25.5 -84.5v-316h-62v492h62v-62h2z
M79.002 -226h-35l11.5 43.5c3.66699 14.333 7.16699 28.833 10.5 43.5h-17v76h69v-75z" />
    <glyph glyph-name="Rcaron" unicode="&#x158;" horiz-adv-x="406" 
d="M196 696c61.333 0 104.999 -16.3311 130.999 -48.998s39 -80.334 39 -143.001c0 -41.333 -7.16699 -77.833 -21.5 -109.5s-40.166 -54.834 -77.499 -69.501l54 -163l54 -162h-63l-102 312h-97v-312h-61v696h144zM112.999 640.002l-0.000976562 -273.001h77
c42.667 0 72.5 11.5 89.5 34.5s25.5 57.167 25.5 102.5c0 20.667 -1.83301 39.334 -5.5 56.001s-10 31 -19 43s-21.167 21.167 -36.5 27.5s-34.666 9.5 -57.999 9.5h-73zM288.998 864.001l27 -24l-117 -109h-39l-123 111l27 22l113 -75z" />
    <glyph glyph-name="rcaron" unicode="&#x159;" horiz-adv-x="246" 
d="M116 430c11.333 26 25.668 44 43.001 54s38.666 15 63.999 15h7.5c3 0 5.5 -0.333008 7.5 -1v-72c-4.66699 0.666992 -9.16699 1.16699 -13.5 1.5s-8.83301 0.5 -13.5 0.5c-30.667 0 -54.5 -9.16699 -71.5 -27.5s-25.5 -46.5 -25.5 -84.5v-316h-62v492h62v-62h2z
M231.002 705l26 -24l-116 -128h-40l-123 130l27 22l113 -95z" />
    <glyph glyph-name="Sacute" unicode="&#x15a;" horiz-adv-x="386" 
d="M354 186c0 -29.333 -2.66602 -55.8301 -7.99902 -79.4971s-14.333 -43.834 -27 -60.501s-29.334 -29.667 -50.001 -39s-46 -14 -76 -14c-28 0 -52 4 -72 12s-36.5 18.833 -49.5 32.5s-22.667 29.834 -29 48.501s-9.5 39 -9.5 61l62 13c0 -14 1.66699 -27.5 5 -40.5
s8.83301 -24.5 16.5 -34.5s17.667 -18 30 -24s27.833 -9 46.5 -9c22.667 0 40.5 3.66699 53.5 11s22.833 17 29.5 29s11 26 13 42s3 33 3 51c0 22 -1 40.167 -3 54.5s-6.66699 26.666 -14 36.999s-17.833 19.833 -31.5 28.5s-32.167 18 -55.5 28
c-33.333 14.667 -59.833 29 -79.5 43s-34.667 28.5 -45 43.5s-17.166 31 -20.499 48s-5 35.5 -5 55.5c0 26 3.16699 50 9.5 72s16.166 40.833 29.499 56.5s30 28 50 37s43.667 13.5 71 13.5c30 0 55 -4.5 75 -13.5s36 -20.833 48 -35.5s20.5 -30.834 25.5 -48.501
s7.5 -34.834 7.5 -51.501l-62 -15c0 31.333 -7.16699 56.833 -21.5 76.5s-39.5 29.5 -75.5 29.5c-20 0 -36.167 -3.83301 -48.5 -11.5s-22 -17.334 -29 -29.001s-11.667 -24.5 -14 -38.5s-3.5 -27.667 -3.5 -41c0 -15.333 1.33301 -29 4 -41s8.16699 -23.333 16.5 -34
s20.5 -21 36.5 -31s37.667 -20.667 65 -32c30 -12 53.667 -24.5 71 -37.5s30.5 -27.333 39.5 -43s14.833 -33.167 17.5 -52.5s4 -41.666 4 -66.999zM130.001 751.003l135 109l40 -47l-152 -91z" />
    <glyph glyph-name="sacute" unicode="&#x15b;" horiz-adv-x="331" 
d="M90 133c-0.666992 -25.333 5.66895 -45.665 19.002 -60.998s32 -22.666 56 -21.999c29.333 0 49.5 7 60.5 21s16.5 34.667 16.5 62c0 12.667 -1 23.667 -3 33s-6 17.666 -12 24.999s-14.333 14 -25 20s-24.667 12.333 -42 19c-26 10 -47.167 20.167 -63.5 30.5
s-29 21.166 -38 32.499s-15.167 23.333 -18.5 36s-5 26 -5 40c0 38 11 69.167 33 93.5s56 36.5 102 36.5s80 -11.5 102 -34.5s33 -55.167 33 -96.5l-64 -9c1.33301 28 -4.83398 48.833 -18.501 62.5s-31.5 20.5 -53.5 20.5c-14.667 0 -26.834 -2.16699 -36.501 -6.5
s-17.167 -10 -22.5 -17s-9.16602 -14.833 -11.499 -23.5s-3.5 -17.334 -3.5 -26.001c0 -9.33301 1.16699 -17.833 3.5 -25.5s7 -15 14 -22s16.667 -13.833 29 -20.5s28.5 -13.334 48.5 -20.001c24.667 -9.33301 44.5 -19 59.5 -29s26.333 -21 34 -33s12.667 -25 15 -39
s3.5 -29.333 3.5 -46c0 -41.333 -10.333 -75.166 -31 -101.499s-55.334 -39.5 -104.001 -39.5c-90.667 0 -137 43.333 -139 130zM138.003 570.001l67 159l59 -21l-92 -152z" />
    <glyph glyph-name="Scircumflex" unicode="&#x15c;" horiz-adv-x="386" 
d="M354 186c0 -29.333 -2.66602 -55.8301 -7.99902 -79.4971s-14.333 -43.834 -27 -60.501s-29.334 -29.667 -50.001 -39s-46 -14 -76 -14c-28 0 -52 4 -72 12s-36.5 18.833 -49.5 32.5s-22.667 29.834 -29 48.501s-9.5 39 -9.5 61l62 13c0 -14 1.66699 -27.5 5 -40.5
s8.83301 -24.5 16.5 -34.5s17.667 -18 30 -24s27.833 -9 46.5 -9c22.667 0 40.5 3.66699 53.5 11s22.833 17 29.5 29s11 26 13 42s3 33 3 51c0 22 -1 40.167 -3 54.5s-6.66699 26.666 -14 36.999s-17.833 19.833 -31.5 28.5s-32.167 18 -55.5 28
c-33.333 14.667 -59.833 29 -79.5 43s-34.667 28.5 -45 43.5s-17.166 31 -20.499 48s-5 35.5 -5 55.5c0 26 3.16699 50 9.5 72s16.166 40.833 29.499 56.5s30 28 50 37s43.667 13.5 71 13.5c30 0 55 -4.5 75 -13.5s36 -20.833 48 -35.5s20.5 -30.834 25.5 -48.501
s7.5 -34.834 7.5 -51.501l-62 -15c0 31.333 -7.16699 56.833 -21.5 76.5s-39.5 29.5 -75.5 29.5c-20 0 -36.167 -3.83301 -48.5 -11.5s-22 -17.334 -29 -29.001s-11.667 -24.5 -14 -38.5s-3.5 -27.667 -3.5 -41c0 -15.333 1.33301 -29 4 -41s8.16699 -23.333 16.5 -34
s20.5 -21 36.5 -31s37.667 -20.667 65 -32c30 -12 53.667 -24.5 71 -37.5s30.5 -27.333 39.5 -43s14.833 -33.167 17.5 -52.5s4 -41.666 4 -66.999zM195.001 806.003l-113 -76l-27 23l123 111h40l116 -109l-26 -24z" />
    <glyph glyph-name="scircumflex" unicode="&#x15d;" horiz-adv-x="331" 
d="M90 133c-0.666992 -25.333 5.66895 -45.665 19.002 -60.998s32 -22.666 56 -21.999c29.333 0 49.5 7 60.5 21s16.5 34.667 16.5 62c0 12.667 -1 23.667 -3 33s-6 17.666 -12 24.999s-14.333 14 -25 20s-24.667 12.333 -42 19c-26 10 -47.167 20.167 -63.5 30.5
s-29 21.166 -38 32.499s-15.167 23.333 -18.5 36s-5 26 -5 40c0 38 11 69.167 33 93.5s56 36.5 102 36.5s80 -11.5 102 -34.5s33 -55.167 33 -96.5l-64 -9c1.33301 28 -4.83398 48.833 -18.501 62.5s-31.5 20.5 -53.5 20.5c-14.667 0 -26.834 -2.16699 -36.501 -6.5
s-17.167 -10 -22.5 -17s-9.16602 -14.833 -11.499 -23.5s-3.5 -17.334 -3.5 -26.001c0 -9.33301 1.16699 -17.833 3.5 -25.5s7 -15 14 -22s16.667 -13.833 29 -20.5s28.5 -13.334 48.5 -20.001c24.667 -9.33301 44.5 -19 59.5 -29s26.333 -21 34 -33s12.667 -25 15 -39
s3.5 -29.333 3.5 -46c0 -41.333 -10.333 -75.166 -31 -101.499s-55.334 -39.5 -104.001 -39.5c-90.667 0 -137 43.333 -139 130zM173.003 647.001l-113 -95l-27 22l123 131h39l117 -129l-27 -24z" />
    <glyph glyph-name="Scedilla" unicode="&#x15e;" horiz-adv-x="386" 
d="M354 186c0 -56 -10.667 -101.165 -32 -135.498s-59 -53.166 -113 -56.499l-13 -53c15.333 -1.33301 28 -4.5 38 -9.5s18 -11 24 -18s10.167 -14.667 12.5 -23s3.5 -15.833 3.5 -22.5c0 -8 -1.5 -16.333 -4.5 -25s-7.66699 -16.5 -14 -23.5s-14.5 -12.833 -24.5 -17.5
s-22.333 -7 -37 -7c-7.33301 0 -18.5 0.833008 -33.5 2.5s-29.5 6.16699 -43.5 13.5l11 30c11.333 -5.33301 21.833 -8.66602 31.5 -9.99902s18.5 -2 26.5 -2c12 0 22.167 3.16699 30.5 9.5s12.5 15.833 12.5 28.5c0 13.333 -4.5 23.833 -13.5 31.5s-23.5 11.167 -43.5 10.5
l-16 13l20 72c-50 3.33301 -86.167 19.166 -108.5 47.499s-33.833 63.5 -34.5 105.5l62 13c0 -14 1.66699 -27.5 5 -40.5s8.83301 -24.5 16.5 -34.5s17.667 -18 30 -24s27.833 -9 46.5 -9c22.667 0 40.5 3.66699 53.5 11s22.833 17 29.5 29s11 26 13 42s3 33 3 51
c0 22 -1 40.167 -3 54.5s-6.66699 26.666 -14 36.999s-17.833 19.833 -31.5 28.5s-32.167 18 -55.5 28c-33.333 14.667 -59.833 29 -79.5 43s-34.667 28.5 -45 43.5s-17.166 31 -20.499 48s-5 35.5 -5 55.5c0 26 3.16699 50 9.5 72s16.166 40.833 29.499 56.5s30 28 50 37
s43.667 13.5 71 13.5c30 0 55 -4.5 75 -13.5s36 -20.833 48 -35.5s20.5 -30.834 25.5 -48.501s7.5 -34.834 7.5 -51.501l-62 -15c0 31.333 -7.16699 56.833 -21.5 76.5s-39.5 29.5 -75.5 29.5c-20 0 -36.167 -3.83301 -48.5 -11.5s-22 -17.334 -29 -29.001
s-11.667 -24.5 -14 -38.5s-3.5 -27.667 -3.5 -41c0 -15.333 1.33301 -29 4 -41s8.16699 -23.333 16.5 -34s20.5 -21 36.5 -31s37.667 -20.667 65 -32c30 -12 53.667 -24.5 71 -37.5s30.5 -27.333 39.5 -43s14.833 -33.167 17.5 -52.5s4 -41.666 4 -66.999z" />
    <glyph glyph-name="scedilla" unicode="&#x15f;" horiz-adv-x="331" 
d="M90 133c-0.666992 -25.333 5.66699 -45.665 19 -60.998s32 -22.666 56 -21.999c29.333 0 49.5 7 60.5 21s16.5 34.667 16.5 62c0 12.667 -1 23.667 -3 33s-6 17.666 -12 24.999s-14.333 14 -25 20s-24.667 12.333 -42 19c-26 10 -47.167 20.167 -63.5 30.5
s-29 21.166 -38 32.499s-15.167 23.333 -18.5 36s-5 26 -5 40c0 38 11 69.167 33 93.5s56 36.5 102 36.5s80 -11.5 102 -34.5s33 -55.167 33 -96.5l-64 -9c1.33301 28 -4.83398 48.833 -18.501 62.5s-31.5 20.5 -53.5 20.5c-14.667 0 -26.834 -2.16699 -36.501 -6.5
s-17.167 -10 -22.5 -17s-9.16602 -14.833 -11.499 -23.5s-3.5 -17.334 -3.5 -26.001c0 -9.33301 1.16699 -17.833 3.5 -25.5s7 -15 14 -22s16.667 -13.833 29 -20.5s28.5 -13.334 48.5 -20.001c24.667 -9.33301 44.5 -19 59.5 -29s26.333 -21 34 -33s12.667 -25 15 -39
s3.5 -29.333 3.5 -46c0 -40 -9.16699 -72.5 -27.5 -97.5s-49.166 -39.167 -92.499 -42.5l-13 -53c15.333 -1.33301 28 -4.5 38 -9.5s18 -11 24 -18s10.167 -14.667 12.5 -23s3.5 -15.833 3.5 -22.5c0 -8 -1.5 -16.333 -4.5 -25s-7.66699 -16.5 -14 -23.5
s-14.5 -12.833 -24.5 -17.5s-22.333 -7 -37 -7c-7.33301 0 -18.5 0.833008 -33.5 2.5s-29.5 6.16699 -43.5 13.5l11 30c11.333 -5.33301 21.833 -8.66602 31.5 -9.99902s18.5 -2 26.5 -2c12 0 22.167 3.16699 30.5 9.5s12.5 15.833 12.5 28.5
c0 13.333 -4.5 23.833 -13.5 31.5s-23.5 11.167 -43.5 10.5l-16 13l20 72c-78.667 6 -119 49 -121 129z" />
    <glyph glyph-name="Scaron" unicode="&#x160;" horiz-adv-x="386" 
d="M354 186c0 -29.333 -2.66602 -55.8301 -7.99902 -79.4971s-14.333 -43.834 -27 -60.501s-29.334 -29.667 -50.001 -39s-46 -14 -76 -14c-28 0 -52 4 -72 12s-36.5 18.833 -49.5 32.5s-22.667 29.834 -29 48.501s-9.5 39 -9.5 61l62 13c0 -14 1.66699 -27.5 5 -40.5
s8.83301 -24.5 16.5 -34.5s17.667 -18 30 -24s27.833 -9 46.5 -9c22.667 0 40.5 3.66699 53.5 11s22.833 17 29.5 29s11 26 13 42s3 33 3 51c0 22 -1 40.167 -3 54.5s-6.66699 26.666 -14 36.999s-17.833 19.833 -31.5 28.5s-32.167 18 -55.5 28
c-33.333 14.667 -59.833 29 -79.5 43s-34.667 28.5 -45 43.5s-17.166 31 -20.499 48s-5 35.5 -5 55.5c0 26 3.16699 50 9.5 72s16.166 40.833 29.499 56.5s30 28 50 37s43.667 13.5 71 13.5c30 0 55 -4.5 75 -13.5s36 -20.833 48 -35.5s20.5 -30.834 25.5 -48.501
s7.5 -34.834 7.5 -51.501l-62 -15c0 31.333 -7.16699 56.833 -21.5 76.5s-39.5 29.5 -75.5 29.5c-20 0 -36.167 -3.83301 -48.5 -11.5s-22 -17.334 -29 -29.001s-11.667 -24.5 -14 -38.5s-3.5 -27.667 -3.5 -41c0 -15.333 1.33301 -29 4 -41s8.16699 -23.333 16.5 -34
s20.5 -21 36.5 -31s37.667 -20.667 65 -32c30 -12 53.667 -24.5 71 -37.5s30.5 -27.333 39.5 -43s14.833 -33.167 17.5 -52.5s4 -41.666 4 -66.999zM304.001 864.003l27 -24l-117 -109h-39l-123 111l27 22l113 -75z" />
    <glyph glyph-name="scaron" unicode="&#x161;" horiz-adv-x="331" 
d="M90 133c-0.666992 -25.333 5.66895 -45.665 19.002 -60.998s32 -22.666 56 -21.999c29.333 0 49.5 7 60.5 21s16.5 34.667 16.5 62c0 12.667 -1 23.667 -3 33s-6 17.666 -12 24.999s-14.333 14 -25 20s-24.667 12.333 -42 19c-26 10 -47.167 20.167 -63.5 30.5
s-29 21.166 -38 32.499s-15.167 23.333 -18.5 36s-5 26 -5 40c0 38 11 69.167 33 93.5s56 36.5 102 36.5s80 -11.5 102 -34.5s33 -55.167 33 -96.5l-64 -9c1.33301 28 -4.83398 48.833 -18.501 62.5s-31.5 20.5 -53.5 20.5c-14.667 0 -26.834 -2.16699 -36.501 -6.5
s-17.167 -10 -22.5 -17s-9.16602 -14.833 -11.499 -23.5s-3.5 -17.334 -3.5 -26.001c0 -9.33301 1.16699 -17.833 3.5 -25.5s7 -15 14 -22s16.667 -13.833 29 -20.5s28.5 -13.334 48.5 -20.001c24.667 -9.33301 44.5 -19 59.5 -29s26.333 -21 34 -33s12.667 -25 15 -39
s3.5 -29.333 3.5 -46c0 -41.333 -10.333 -75.166 -31 -101.499s-55.334 -39.5 -104.001 -39.5c-90.667 0 -137 43.333 -139 130zM288.003 705.001l26 -24l-116 -128h-40l-123 130l27 22l113 -95z" />
    <glyph glyph-name="Tcommaaccent" unicode="&#x162;" horiz-adv-x="320" 
d="M191 640v-640h-63v640h-125v56h313v-56h-125zM157 -226h-35l11.5 43.5c3.66699 14.333 7.16699 28.833 10.5 43.5h-17v76h69v-75z" />
    <glyph glyph-name="tcommaaccent" unicode="&#x163;" horiz-adv-x="225" 
d="M130 492h69v-49h-69v-318c0 -24.667 4.66699 -42.167 14 -52.5s24 -15.5 44 -15.5h13v-57h-30c-38 0 -64.667 10.667 -80 32s-23 47.333 -23 78v333h-54v49h55v127h61v-127zM110 -226h-35l11.5 43.5c3.66699 14.333 7.16699 28.833 10.5 43.5h-17v76h69v-75z" />
    <glyph glyph-name="Tcaron" unicode="&#x164;" horiz-adv-x="320" 
d="M191 640v-640h-63v640h-125v56h313v-56h-125zM273 864l27 -24l-117 -109h-39l-123 111l27 22l113 -75z" />
    <glyph glyph-name="tcaron" unicode="&#x165;" horiz-adv-x="266" 
d="M130 492h69v-49h-69v-318c0 -24.667 4.66699 -42.167 14 -52.5s24 -15.5 44 -15.5h13v-57h-30c-38 0 -64.667 10.667 -80 32s-23 47.333 -23 78v333h-54v49h55v127h61v-127zM221 550h-35l11.5 43.5c3.66699 14.333 7.16699 28.833 10.5 43.5h-17v76h69v-75z" />
    <glyph glyph-name="Tbar" unicode="&#x166;" horiz-adv-x="320" 
d="M191 640v-229h102v-44h-102v-367h-63v367h-100v44h100v229h-125v56h313v-56h-125z" />
    <glyph glyph-name="tbar" unicode="&#x167;" horiz-adv-x="225" 
d="M130 492h69v-49h-69v-137h60v-41h-60v-140c0 -24.667 4.66699 -42.167 14 -52.5s24 -15.5 44 -15.5h13v-57h-30c-38 0 -64.667 10.667 -80 32s-23 47.333 -23 78v155h-54v41h54v137h-54v49h55v127h61v-127z" />
    <glyph glyph-name="Utilde" unicode="&#x168;" horiz-adv-x="407" 
d="M361 695v-523c0 -58.667 -13 -103.167 -39 -133.5s-65.667 -45.5 -119 -45.5c-52.667 0 -92.167 14.333 -118.5 43s-39.5 68.667 -39.5 120v539h61v-540c0 -13.333 1.83301 -26.333 5.5 -39s9.33398 -24 17.001 -34s17.667 -18 30 -24s27.166 -9 44.499 -9
c35.333 0 60.333 11.333 75 34s22 50 22 82v530h61zM341 814c-10.667 -22 -23.5 -38.834 -38.5 -50.501s-29.5 -17.5 -43.5 -17.5c-10 0 -19.833 2 -29.5 6s-19.167 8.16699 -28.5 12.5l-27 12.5c-8.66699 4 -17 6 -25 6c-17.333 0 -34 -11.667 -50 -35l-33 20
c8 16.667 19.167 31.834 33.5 45.501s29.833 20.5 46.5 20.5c10 0 19.333 -2 28 -6s17.5 -8.33301 26.5 -13s18.167 -9 27.5 -13s19.333 -6 30 -6c16.667 0 33.667 13 51 39z" />
    <glyph glyph-name="utilde" unicode="&#x169;" horiz-adv-x="364" 
d="M261 52l-3.00195 -0.000976562c-11.333 -18.667 -26 -32.834 -44 -42.501s-38 -14.5 -60 -14.5c-20.667 0 -38.167 3.16699 -52.5 9.5s-26.166 15.333 -35.499 27s-16.166 25.334 -20.499 41.001s-6.5 32.834 -6.5 51.501v369h63v-351c0 -28 5.5 -49.667 16.5 -65
s30.5 -23 58.5 -23c25.333 0 45.833 9.16699 61.5 27.5s23.5 40.5 23.5 66.5v345h61v-492h-62v51zM318.998 643.999c-10.667 -22 -23.5 -38.834 -38.5 -50.501s-29.5 -17.5 -43.5 -17.5c-10 0 -19.833 2 -29.5 6s-19.167 8.16699 -28.5 12.5l-27 12.5
c-8.66699 4 -17 6 -25 6c-17.333 0 -34 -11.667 -50 -35l-33 20c8 16.667 19.167 31.834 33.5 45.501s29.833 20.5 46.5 20.5c10 0 19.333 -2 28 -6s17.5 -8.33301 26.5 -13s18.167 -9 27.5 -13s19.333 -6 30 -6c16.667 0 33.667 13 51 39z" />
    <glyph glyph-name="Umacron" unicode="&#x16a;" horiz-adv-x="407" 
d="M361 695v-523c0 -58.667 -13 -103.167 -39 -133.5s-65.667 -45.5 -119 -45.5c-52.667 0 -92.167 14.333 -118.5 43s-39.5 68.667 -39.5 120v539h61v-540c0 -13.333 1.83301 -26.333 5.5 -39s9.33398 -24 17.001 -34s17.667 -18 30 -24s27.166 -9 44.499 -9
c35.333 0 60.333 11.333 75 34s22 50 22 82v530h61zM94 752v52h223v-52h-223z" />
    <glyph glyph-name="umacron" unicode="&#x16b;" horiz-adv-x="364" 
d="M261 52l-3.00195 -0.000976562c-11.333 -18.667 -26 -32.834 -44 -42.501s-38 -14.5 -60 -14.5c-20.667 0 -38.167 3.16699 -52.5 9.5s-26.166 15.333 -35.499 27s-16.166 25.334 -20.499 41.001s-6.5 32.834 -6.5 51.501v369h63v-351c0 -28 5.5 -49.667 16.5 -65
s30.5 -23 58.5 -23c25.333 0 45.833 9.16699 61.5 27.5s23.5 40.5 23.5 66.5v345h61v-492h-62v51zM72.998 587.999v54h223v-54h-223z" />
    <glyph glyph-name="Ubreve" unicode="&#x16c;" horiz-adv-x="407" 
d="M361 695v-523c0 -58.667 -13 -103.167 -39 -133.5s-65.667 -45.5 -119 -45.5c-52.667 0 -92.167 14.333 -118.5 43s-39.5 68.667 -39.5 120v539h61v-540c0 -13.333 1.83301 -26.333 5.5 -39s9.33398 -24 17.001 -34s17.667 -18 30 -24s27.166 -9 44.499 -9
c35.333 0 60.333 11.333 75 34s22 50 22 82v530h61zM131 862c2 -17.333 10.002 -33.333 24.002 -48s31 -22 51 -22c21.333 0 38.833 7.16699 52.5 21.5s21.167 30.5 22.5 48.5h51c-1.33301 -12.667 -4.83301 -25.834 -10.5 -39.501s-13.667 -26.334 -24 -38.001
s-23 -21.167 -38 -28.5s-32.833 -11 -53.5 -11c-22.667 0 -41.834 3.66699 -57.501 11s-28.5 16.833 -38.5 28.5s-17.333 24.334 -22 38.001s-7.33398 26.834 -8.00098 39.501h51z" />
    <glyph glyph-name="ubreve" unicode="&#x16d;" horiz-adv-x="364" 
d="M261 52l-3.00195 -0.000976562c-11.333 -18.667 -26 -32.834 -44 -42.501s-38 -14.5 -60 -14.5c-20.667 0 -38.167 3.16699 -52.5 9.5s-26.166 15.333 -35.499 27s-16.166 25.334 -20.499 41.001s-6.5 32.834 -6.5 51.501v369h63v-351c0 -28 5.5 -49.667 16.5 -65
s30.5 -23 58.5 -23c25.333 0 45.833 9.16699 61.5 27.5s23.5 40.5 23.5 66.5v345h61v-492h-62v51zM107.998 679.999c2.66699 -17.333 10.8301 -33.333 24.4971 -48s30.5 -22 50.5 -22c21.333 0 38.833 7 52.5 21s21.5 30.333 23.5 49h50
c-1.33301 -12.667 -4.66602 -25.834 -9.99902 -39.501s-13.166 -26.334 -23.499 -38.001s-23.166 -21.167 -38.499 -28.5s-33.333 -11 -54 -11c-22 0 -40.833 3.66699 -56.5 11s-28.5 16.833 -38.5 28.5s-17.5 24.334 -22.5 38.001s-7.83301 26.834 -8.5 39.501h51z" />
    <glyph glyph-name="Uring" unicode="&#x16e;" horiz-adv-x="407" 
d="M361 695v-523c0 -58.667 -13 -103.167 -39 -133.5s-65.667 -45.5 -119 -45.5c-52.667 0 -92.167 14.333 -118.5 43s-39.5 68.667 -39.5 120v539h61v-540c0 -13.333 1.83301 -26.333 5.5 -39s9.33398 -24 17.001 -34s17.667 -18 30 -24s27.166 -9 44.499 -9
c35.333 0 60.333 11.333 75 34s22 50 22 82v530h61zM206 708c-24 0 -44.333 8.33301 -61 25s-25 37 -25 61s8.33301 44.333 25 61s37 25 61 25c23.333 0 43.333 -8.33301 60 -25s25 -37 25 -61s-8.33301 -44.333 -25 -61s-36.667 -25 -60 -25zM206 844c-14 0 -26 -5 -36 -15
s-15 -22 -15 -36s5 -26 15 -36s22 -15 36 -15c13.333 0 25 5 35 15s15 22 15 36s-5 26 -15 36s-21.667 15 -35 15z" />
    <glyph glyph-name="uring" unicode="&#x16f;" horiz-adv-x="364" 
d="M261 52l-3.00195 -0.000976562c-11.333 -18.667 -26 -32.834 -44 -42.501s-38 -14.5 -60 -14.5c-20.667 0 -38.167 3.16699 -52.5 9.5s-26.166 15.333 -35.499 27s-16.166 25.334 -20.499 41.001s-6.5 32.834 -6.5 51.501v369h63v-351c0 -28 5.5 -49.667 16.5 -65
s30.5 -23 58.5 -23c25.333 0 45.833 9.16699 61.5 27.5s23.5 40.5 23.5 66.5v345h61v-492h-62v51zM187.998 545.999c-24 0 -44.333 8.33301 -61 25s-25 37 -25 61s8.33301 44.333 25 61s37 25 61 25c23.333 0 43.333 -8.33301 60 -25s25 -37 25 -61
s-8.33301 -44.333 -25 -61s-36.667 -25 -60 -25zM187.998 681.999c-14 0 -26 -5 -36 -15s-15 -22 -15 -36s5 -26 15 -36s22 -15 36 -15c13.333 0 25 5 35 15s15 22 15 36s-5 26 -15 36s-21.667 15 -35 15z" />
    <glyph glyph-name="Uhungarumlaut" unicode="&#x170;" horiz-adv-x="407" 
d="M361 695v-523c0 -58.667 -13 -103.167 -39 -133.5s-65.667 -45.5 -119 -45.5c-52.667 0 -92.167 14.333 -118.5 43s-39.5 68.667 -39.5 120v539h61v-540c0 -13.333 1.83301 -26.333 5.5 -39s9.33398 -24 17.001 -34s17.667 -18 30 -24s27.166 -9 44.499 -9
c35.333 0 60.333 11.333 75 34s22 50 22 82v530h61zM100 751l128 109l41 -47l-146 -91zM230 751l128 109l41 -47l-146 -91z" />
    <glyph glyph-name="uhungarumlaut" unicode="&#x171;" horiz-adv-x="364" 
d="M261 52l-3.00195 -0.000976562c-11.333 -18.667 -26 -32.834 -44 -42.501s-38 -14.5 -60 -14.5c-20.667 0 -38.167 3.16699 -52.5 9.5s-26.166 15.333 -35.499 27s-16.166 25.334 -20.499 41.001s-6.5 32.834 -6.5 51.501v369h63v-351c0 -28 5.5 -49.667 16.5 -65
s30.5 -23 58.5 -23c25.333 0 45.833 9.16699 61.5 27.5s23.5 40.5 23.5 66.5v345h61v-492h-62v51zM102.998 569.999l67 159l59 -21l-92 -152zM197.998 569.999l67 159l58 -21l-92 -152z" />
    <glyph glyph-name="Uogonek" unicode="&#x172;" horiz-adv-x="407" 
d="M158 -91c0 12 2.16699 24.999 6.5 38.999s11.833 29.333 22.5 46c-48 2.66699 -83.667 18.167 -107 46.5s-35 66.833 -35 115.5v539h61v-540c0 -13.333 1.83301 -26.333 5.5 -39s9.33398 -24 17.001 -34s17.667 -18 30 -24s27.166 -9 44.499 -9
c35.333 0 60.333 11.333 75 34s22 50 22 82v530h61v-523c0 -53.333 -10.833 -94.833 -32.5 -124.5s-54.5 -47.167 -98.5 -52.5c-8.66699 -14 -15.5 -27.167 -20.5 -39.5s-7.5 -24.166 -7.5 -35.499c0 -18 4 -30.5 12 -37.5s18.333 -10.5 31 -10.5
c7.33301 0 15.166 1 23.499 3s17.166 5.66699 26.499 11l14 -39c-9.33301 -6.66699 -20.666 -12.167 -33.999 -16.5s-26.333 -6.5 -39 -6.5c-23.333 0 -42.166 7.83301 -56.499 23.5s-21.5 36.167 -21.5 61.5z" />
    <glyph glyph-name="uogonek" unicode="&#x173;" horiz-adv-x="364" 
d="M261 52l-3.00195 -0.000976562c-11.333 -18.667 -26 -32.834 -44 -42.501s-38 -14.5 -60 -14.5c-20.667 0 -38.167 3.16699 -52.5 9.5s-26.166 15.333 -35.499 27s-16.166 25.334 -20.499 41.001s-6.5 32.834 -6.5 51.501v369h63v-351c0 -28 5.5 -49.667 16.5 -65
s30.5 -23 58.5 -23c25.333 0 45.833 9.16699 61.5 27.5s23.5 40.5 23.5 66.5v345h61v-492h-18c-10 -15.333 -18 -29.833 -24 -43.5s-9 -26.167 -9 -37.5c0 -18 4 -30.5 12 -37.5s18.333 -10.5 31 -10.5c7.33301 0 15.166 1 23.499 3s17.166 5.66699 26.499 11l14 -39
c-9.33301 -6.66699 -20.666 -12.167 -33.999 -16.5s-26.333 -6.5 -39 -6.5c-23.333 0 -42.166 7.83301 -56.499 23.5s-21.5 36.167 -21.5 61.5c0 13.333 2.5 27.5 7.5 42.5s13.833 31.5 26.5 49.5h-1v51z" />
    <glyph glyph-name="Wcircumflex" unicode="&#x174;" horiz-adv-x="581" 
d="M454 -1h-63l-68 368l-32 186h-3l-31 -189l-68 -365h-62l-109 697h63l51 -347l28 -227h3l35 225l64 349h58l62 -349l37 -225h3l27 226l51 348h63zM291 806l-113 -76l-27 23l123 111h40l116 -109l-26 -24z" />
    <glyph glyph-name="wcircumflex" unicode="&#x175;" horiz-adv-x="538" 
d="M267 373l-46 -214l-36 -159h-62l-113 491h64l15.5 -75l20.5 -99l13.5 -64.5l12.5 -61.5l11 -54l8 -41h3c4.66699 25.333 11.167 58.5 19.5 99.5l25.5 124.5l36 171h63l33 -163l23.5 -117.5l23.5 -116.5h3l36 182l10 50l12 59l12 58l10 48h64l-57 -245.5l-56 -245.5h-63
l-34 148l-25 112.5l-24 112.5h-3zM271 647l-113 -95l-27 22l123 131h39l117 -129l-27 -24z" />
    <glyph glyph-name="Ycircumflex" unicode="&#x176;" horiz-adv-x="363" 
d="M182 375l44 140l60 181h64l-17 -48.5l-24.5 -71l-28.5 -82l-28.5 -81.5l-24 -71c-7 -21.333 -12.5 -37.333 -16.5 -48v-295h-61v295c-4 10.667 -9.5 26.667 -16.5 48l-24 71l-28.5 81.5l-28.5 82l-24.5 71l-17 48.5h64l60 -183l9 -28l13 -41l13 -41l9 -28h3zM182 806
l-113 -76l-27 23l123 111h40l116 -109l-26 -24z" />
    <glyph glyph-name="ycircumflex" unicode="&#x177;" horiz-adv-x="326" 
d="M167 92l22.002 100.5l22 100.5l48 198h62l-148 -577c-4 -14.667 -8.83301 -28.667 -14.5 -42s-12.834 -25 -21.501 -35s-19.334 -18 -32.001 -24s-28 -9 -46 -9h-23v53h16c20 0 35 7 45 21s18.333 36 25 66l14 55l-131 492h65c9.33301 -36 18 -71.833 26 -107.5
l25 -107.5l11 -46.5l12 -51l11.5 -48.5c3.66699 -15.333 6.5 -28 8.5 -38h3zM169.002 647l-113 -95l-27 22l123 131h39l117 -129l-27 -24z" />
    <glyph glyph-name="Ydieresis" unicode="&#x178;" horiz-adv-x="363" 
d="M182 375l44 140l60 181h64l-17 -48.5l-24.5 -71l-28.5 -82l-28.5 -81.5l-24 -71c-7 -21.333 -12.5 -37.333 -16.5 -48v-295h-61v295c-4 10.667 -9.5 26.667 -16.5 48l-24 71l-28.5 81.5l-28.5 82l-24.5 71l-17 48.5h64l60 -183l9 -28l13 -41l13 -41l9 -28h3zM79 749v63
h56v-63h-56zM229 749v63h55v-63h-55z" />
    <glyph glyph-name="Zacute" unicode="&#x179;" horiz-adv-x="313" 
d="M296 640l-218 -584h212v-56h-274v56l218 584h-204v56h266v-56zM126 751l135 109l40 -47l-152 -91z" />
    <glyph glyph-name="zacute" unicode="&#x17a;" horiz-adv-x="294" 
d="M275 437l-190 -380h188v-57h-254v57l189 380h-173v54h240v-54zM134 570l67 159l59 -21l-92 -152z" />
    <glyph glyph-name="Zdotaccent" unicode="&#x17b;" horiz-adv-x="313" 
d="M296 640l-218 -584h212v-56h-274v56l218 584h-204v56h266v-56zM145 766v64h55v-64h-55z" />
    <glyph glyph-name="zdotaccent" unicode="&#x17c;" horiz-adv-x="294" 
d="M275 437l-190 -380h188v-57h-254v57l189 380h-173v54h240v-54zM136 596v64h55v-64h-55z" />
    <glyph glyph-name="Zcaron" unicode="&#x17d;" horiz-adv-x="313" 
d="M296 640l-218 -584h212v-56h-274v56l218 584h-204v56h266v-56zM277 864l27 -24l-117 -109h-39l-123 111l27 22l113 -75z" />
    <glyph glyph-name="zcaron" unicode="&#x17e;" horiz-adv-x="294" 
d="M275 437l-190 -380h188v-57h-254v57l189 380h-173v54h240v-54zM270 705l26 -24l-116 -128h-40l-123 130l27 22l113 -95z" />
    <glyph glyph-name="florin" unicode="&#x192;" horiz-adv-x="367" 
d="M90 412l79.001 0.00195312l14 109c2.66699 24 6.83398 46.667 12.501 68s13.667 40 24 56s23.833 28.667 40.5 38s37 14 61 14c9.33301 0 18.833 -0.833008 28.5 -2.5s18.5 -4.16699 26.5 -7.5l-13 -54c-6.66699 3.33301 -14 5.66602 -22 6.99902s-15.667 2 -23 2
c-45.333 0 -72.333 -39.667 -81 -119l-14 -111h87v-47h-93l-31 -266c-7.33301 -63.333 -20.666 -110.833 -39.999 -142.5s-50 -47.5 -92 -47.5c-9.33301 0 -19.5 1 -30.5 3s-21.167 5 -30.5 9c2.66699 9.33301 5.16699 17.666 7.5 24.999s5.16602 15 8.49902 23
c13.333 -4.66699 26.666 -7 39.999 -7c24.667 0 43.167 10.5 55.5 31.5s21.166 55.5 26.499 103.5l31 268h-72v47z" />
    <glyph glyph-name="Ohorn" unicode="&#x1a0;" horiz-adv-x="432" 
d="M363 172c0 -58.667 -13.165 -103.167 -39.498 -133.5s-66.166 -45.5 -119.499 -45.5s-92.833 14.333 -118.5 43s-38.5 68.667 -38.5 120v366c0 24.667 2.66699 48 8 70s14.166 41.167 26.499 57.5s28.666 29.166 48.999 38.499s45.166 14 74.499 14
c34 0 61.833 -5.5 83.5 -16.5s38.167 -26.167 49.5 -45.5c19.333 2.66699 32.5 11 39.5 25s10.5 35 10.5 63v46h55v-44c0 -44 -6.66699 -77.167 -20 -99.5s-35.333 -36.166 -66 -41.499c4 -20 6 -41.333 6 -64v-353zM301.002 534c0 14.667 -1.66895 28.6689 -5.00195 42.002
s-8.66602 25.166 -15.999 35.499s-17.166 18.666 -29.499 24.999s-27.5 9.5 -45.5 9.5c-19.333 0 -35.333 -4.16699 -48 -12.5s-22.667 -18.833 -30 -31.5s-12.5 -26.5 -15.5 -41.5s-4.5 -29.167 -4.5 -42.5v-363c0 -13.333 1.83301 -26.333 5.5 -39s9.33398 -24 17.001 -34
s17.667 -18 30 -24s27.166 -9 44.499 -9c35.333 0 60.333 11.333 75 34s22 50 22 82v369z" />
    <glyph glyph-name="ohorn" unicode="&#x1a1;" horiz-adv-x="395" 
d="M180 498c30 0 54.335 -4.83398 73.002 -14.501s33 -22.167 43 -37.5c19.333 2.66699 32.5 11.167 39.5 25.5s10.5 35.5 10.5 63.5v46h54v-45c0 -43.333 -6.5 -76.166 -19.5 -98.499s-34.833 -36.166 -65.5 -41.499c3.33301 -17.333 5.5 -36.5 6.5 -57.5
s1.5 -42.167 1.5 -63.5v-49c0 -18 -0.333008 -35.833 -1 -53.5s-2 -36.5 -4 -56.5c-2.66699 -24.667 -8.83398 -45 -18.501 -61s-21.334 -28.5 -35.001 -37.5s-28.5 -15.333 -44.5 -19s-31.667 -5.5 -47 -5.5c-40.667 0 -71 8.83301 -91 26.5s-33.333 39.167 -40 64.5
c-2 8 -3.66699 18.167 -5 30.5s-2.33301 25.666 -3 39.999s-1 28.833 -1 43.5v42c0 17.333 0.166992 34.833 0.5 52.5s1.16602 34.5 2.49902 50.5s2.83301 30.5 4.5 43.5s4.16699 23.5 7.5 31.5c8.66699 24 23.834 43.333 45.501 58s50.5 22 86.5 22zM179.002 442.999
c-15.333 0 -29.6709 -3.33301 -43.0039 -10s-23.666 -18.667 -30.999 -36c-4.66699 -12 -7.66699 -30.333 -9 -55s-2 -54 -2 -88v-32c0 -27.333 0.333008 -51.666 1 -72.999s3 -37.666 7 -48.999c10 -34 35.667 -51 77 -51c19.333 0 35.833 5.66699 49.5 17
s22.834 26.666 27.501 45.999c2 12 3.66699 29.667 5 53s2 47.666 2 72.999c0 14 -0.166992 28.667 -0.5 44l-1 44c-0.333008 14 -1.16602 26.667 -2.49902 38s-3 20 -5 26c-5.33301 17.333 -14.666 30.5 -27.999 39.5s-29 13.5 -47 13.5z" />
    <glyph glyph-name="Uhorn" unicode="&#x1af;" horiz-adv-x="450" 
d="M361 695v-55.999c20.667 2 34.834 10 42.501 24s11.5 35.667 11.5 65v46h54v-44c0 -48.667 -8.33301 -84.334 -25 -107.001s-44.334 -34.667 -83.001 -36v-415c0 -58.667 -13 -103.167 -39 -133.5s-65.667 -45.5 -119 -45.5c-52.667 0 -92.167 14.333 -118.5 43
s-39.5 68.667 -39.5 120v539h61v-540c0 -13.333 1.83301 -26.333 5.5 -39s9.33398 -24 17.001 -34s17.667 -18 30 -24s27.166 -9 44.499 -9c35.333 0 60.333 11.333 75 34s22 50 22 82v530h61z" />
    <glyph glyph-name="uhorn" unicode="&#x1b0;" horiz-adv-x="426" 
d="M261 52h-3.00293c-11.333 -18.667 -26 -32.834 -44 -42.501s-38 -14.5 -60 -14.5c-20.667 0 -38.167 3.16699 -52.5 9.5s-26.166 15.333 -35.499 27s-16.166 25.334 -20.499 41.001s-6.5 32.834 -6.5 51.501v369h63v-351c0 -28 5.5 -49.667 16.5 -65s30.5 -23 58.5 -23
c25.333 0 45.833 9.16699 61.5 27.5s23.5 40.5 23.5 66.5v345h61v-47c20.667 2 34.834 10.167 42.501 24.5s11.5 35.833 11.5 64.5v46h55v-44c0 -48.667 -8.33301 -84.334 -25 -107.001s-44.667 -34.667 -84 -36v-393h-62v51z" />
    <glyph glyph-name="AEacute" unicode="&#x1fc;" horiz-adv-x="624" 
d="M310 186h-173l-71 -186h-62l270 696h327v-57h-229v-255h200v-57h-200v-270h229v-57h-291v186zM158 244h152v395h-2zM377 751l135 109l40 -47l-152 -91z" />
    <glyph glyph-name="aeacute" unicode="&#x1fd;" horiz-adv-x="559" 
d="M389 -7c-30 0 -54.832 5.66699 -74.499 17s-34.834 26 -45.501 44c-10 -13.333 -20.333 -24 -31 -32s-21.167 -14 -31.5 -18s-20.166 -6.66699 -29.499 -8s-18 -2 -26 -2c-25.333 0 -46.166 4 -62.499 12s-29.333 18.667 -39 32s-16.5 28.333 -20.5 45s-6 34 -6 52
c0 18.667 2.33301 37.167 7 55.5s12.334 35 23.001 50s24.667 27.167 42 36.5s38.666 14 63.999 14h87v73c0 23.333 -5.83301 42 -17.5 56s-31.834 21 -60.501 21c-18 0 -33.833 -4.66699 -47.5 -14s-22.834 -22.666 -27.501 -39.999l-58 18c8 28.667 24.167 51.5 48.5 68.5
s53.5 25.5 87.5 25.5c30 0 53.667 -4.33301 71 -13s30 -20.667 38 -36c24.667 32.667 63 49 115 49c46 0 80.5 -12.5 103.5 -37.5s34.5 -60.5 34.5 -106.5v-117h-222v-29.5c0 -12.333 0.166992 -25 0.5 -38s0.833008 -24.833 1.5 -35.5s1.66699 -18 3 -22
c3.33301 -18.667 11.5 -33.834 24.5 -45.501s30.5 -17.5 52.5 -17.5c24.667 0 43.167 7.66699 55.5 23s19.5 33.333 21.5 54l61 -14c-5.33301 -36 -19 -65 -41 -87s-55.667 -33 -101 -33zM246.001 239h-72c-25.333 0 -46.833 -7.66699 -64.5 -23s-26.5 -41.333 -26.5 -78
c0 -23.333 6.33301 -43.333 19 -60s33.667 -25 63 -25c24 0 43.5 7.5 58.5 22.5s22.5 36.167 22.5 63.5v100zM471.001 290v53.999c0 27.333 -5.83301 50.333 -17.5 69s-32.5 28 -62.5 28c-39.333 0 -63.666 -20 -72.999 -60c-1.33301 -3.33301 -2.33301 -8.5 -3 -15.5
s-1.33398 -14.833 -2.00098 -23.5s-1.16699 -17.667 -1.5 -27s-0.5 -17.666 -0.5 -24.999h160zM268.001 569.999l67 159l59 -21l-92 -152z" />
    <glyph glyph-name="Oslashacute" unicode="&#x1fe;" horiz-adv-x="409" 
d="M363 172c0 -58.667 -13.166 -103.167 -39.499 -133.5s-66.166 -45.5 -119.499 -45.5c-50.667 0 -89.334 13.333 -116.001 40l-19 -44l-33 18l27 63c-10.667 23.333 -16 52 -16 86v366c0 24.667 2.66699 48 8 70s14.166 41.167 26.499 57.5s28.666 29.166 48.999 38.499
s45.166 14 74.499 14c26.667 0 49.334 -3.33301 68.001 -10s34.334 -16.334 47.001 -29.001l19 43l36 -17l-29 -66c6 -13.333 10.333 -28.166 13 -44.499s4 -34.166 4 -53.499v-353zM107.001 170l183.002 423c-6.66699 15.333 -16.834 28 -30.501 38s-31.834 15 -54.501 15
c-19.333 0 -35.333 -4.16699 -48 -12.5s-22.667 -18.833 -30 -31.5s-12.5 -26.5 -15.5 -41.5s-4.5 -29.167 -4.5 -42.5v-348zM301.003 519l-183.001 -418c7.33301 -15.333 17.833 -27.833 31.5 -37.5s31.834 -14.5 54.501 -14.5c35.333 0 60.333 11.333 75 34s22 50 22 82
v354zM164.002 751l135 109l41 -47l-153 -91z" />
    <glyph glyph-name="oslashacute" unicode="&#x1ff;" horiz-adv-x="356" 
d="M180 498c20.667 0 38.668 -2.49805 54.001 -7.49805s28.333 -11.833 39 -20.5l17 32l29 -16l-22 -42c4.66699 -6.66699 8.66699 -14.334 12 -23.001c6 -17.333 9.83301 -39.333 11.5 -66s2.5 -53.334 2.5 -80.001v-49c0 -18 -0.333008 -35.833 -1 -53.5
s-2 -36.5 -4 -56.5c-2.66699 -24.667 -8.83398 -45 -18.501 -61s-21.334 -28.5 -35.001 -37.5s-28.5 -15.333 -44.5 -19s-31.667 -5.5 -47 -5.5c-21.333 0 -39.666 2.5 -54.999 7.5s-28.333 12.167 -39 21.5c-3.33301 -5.33301 -6.33301 -10.666 -9 -15.999l-8 -16l-26 15
l21 42c-6.66699 10.667 -11.667 23 -15 37c-2 8 -3.66699 18.167 -5 30.5s-2.33301 25.666 -3 39.999s-1 28.833 -1 43.5v42c0 17.333 0.166992 34.833 0.5 52.5s1.16602 34.5 2.49902 50.5s2.83301 30.5 4.5 43.5s4.16699 23.5 7.5 31.5
c8.66699 24 23.834 43.333 45.501 58s50.5 22 86.5 22zM110.001 81.002c13.333 -21.333 36.332 -31.998 68.999 -31.998c19.333 0 35.833 5.66699 49.5 17s22.834 26.666 27.501 45.999c2 12 3.66699 29.667 5 53s2 47.666 2 72.999c0 22 -0.333008 45 -1 69
s-2 44.333 -4 61zM179 443.004c-15.333 0 -29.668 -3.33203 -43.001 -9.99902s-23.666 -18.667 -30.999 -36c-4.66699 -12 -7.66699 -30.333 -9 -55s-2 -54 -2 -88v-32v-54c0 -16.667 0.666992 -31.334 2 -44.001l147 288c-14.667 20.667 -36 31 -64 31zM175.998 556.005
l-16.5 6c-5.66699 2 -11.167 4.33301 -16.5 7l33.5 79.5l33.5 79.5c10 -3.33301 19.833 -6.83301 29.5 -10.5l28.5 -10.5z" />
    <glyph glyph-name="Scommaaccent" unicode="&#x218;" horiz-adv-x="386" 
d="M354 186c0 -29.333 -2.66602 -55.8301 -7.99902 -79.4971s-14.333 -43.834 -27 -60.501s-29.334 -29.667 -50.001 -39s-46 -14 -76 -14c-28 0 -52 4 -72 12s-36.5 18.833 -49.5 32.5s-22.667 29.834 -29 48.501s-9.5 39 -9.5 61l62 13c0 -14 1.66699 -27.5 5 -40.5
s8.83301 -24.5 16.5 -34.5s17.667 -18 30 -24s27.833 -9 46.5 -9c22.667 0 40.5 3.66699 53.5 11s22.833 17 29.5 29s11 26 13 42s3 33 3 51c0 22 -1 40.167 -3 54.5s-6.66699 26.666 -14 36.999s-17.833 19.833 -31.5 28.5s-32.167 18 -55.5 28
c-33.333 14.667 -59.833 29 -79.5 43s-34.667 28.5 -45 43.5s-17.166 31 -20.499 48s-5 35.5 -5 55.5c0 26 3.16699 50 9.5 72s16.166 40.833 29.499 56.5s30 28 50 37s43.667 13.5 71 13.5c30 0 55 -4.5 75 -13.5s36 -20.833 48 -35.5s20.5 -30.834 25.5 -48.501
s7.5 -34.834 7.5 -51.501l-62 -15c0 31.333 -7.16699 56.833 -21.5 76.5s-39.5 29.5 -75.5 29.5c-20 0 -36.167 -3.83301 -48.5 -11.5s-22 -17.334 -29 -29.001s-11.667 -24.5 -14 -38.5s-3.5 -27.667 -3.5 -41c0 -15.333 1.33301 -29 4 -41s8.16699 -23.333 16.5 -34
s20.5 -21 36.5 -31s37.667 -20.667 65 -32c30 -12 53.667 -24.5 71 -37.5s30.5 -27.333 39.5 -43s14.833 -33.167 17.5 -52.5s4 -41.666 4 -66.999zM190.001 -225.997h-35l11.5 43.5c3.66699 14.333 7.16699 28.833 10.5 43.5h-17v76h69v-75z" />
    <glyph glyph-name="scommaaccent" unicode="&#x219;" horiz-adv-x="331" 
d="M90 133c-0.666992 -25.333 5.66895 -45.665 19.002 -60.998s32 -22.666 56 -21.999c29.333 0 49.5 7 60.5 21s16.5 34.667 16.5 62c0 12.667 -1 23.667 -3 33s-6 17.666 -12 24.999s-14.333 14 -25 20s-24.667 12.333 -42 19c-26 10 -47.167 20.167 -63.5 30.5
s-29 21.166 -38 32.499s-15.167 23.333 -18.5 36s-5 26 -5 40c0 38 11 69.167 33 93.5s56 36.5 102 36.5s80 -11.5 102 -34.5s33 -55.167 33 -96.5l-64 -9c1.33301 28 -4.83398 48.833 -18.501 62.5s-31.5 20.5 -53.5 20.5c-14.667 0 -26.834 -2.16699 -36.501 -6.5
s-17.167 -10 -22.5 -17s-9.16602 -14.833 -11.499 -23.5s-3.5 -17.334 -3.5 -26.001c0 -9.33301 1.16699 -17.833 3.5 -25.5s7 -15 14 -22s16.667 -13.833 29 -20.5s28.5 -13.334 48.5 -20.001c24.667 -9.33301 44.5 -19 59.5 -29s26.333 -21 34 -33s12.667 -25 15 -39
s3.5 -29.333 3.5 -46c0 -41.333 -10.333 -75.166 -31 -101.499s-55.334 -39.5 -104.001 -39.5c-90.667 0 -137 43.333 -139 130zM165.003 -225.999h-35l11.5 43.5c3.66699 14.333 7.16699 28.833 10.5 43.5h-17v76h69v-75z" />
    <glyph glyph-name="schwa" unicode="&#x259;" horiz-adv-x="350" 
d="M168 -6c-40 0 -71.166 9.83105 -93.499 29.498s-35.5 47.5 -39.5 83.5c-0.666992 7.33301 -1.16699 14.666 -1.5 21.999s-0.5 14.666 -0.5 21.999v110h220c0 6.66699 -0.166992 13 -0.5 19s-0.5 12.333 -0.5 19c0 17.333 -0.5 35 -1.5 53s-3.16699 31.667 -6.5 41
c-10.667 33.333 -34.667 50 -72 50c-25.333 0 -44 -7.5 -56 -22.5s-18.667 -34.833 -20 -59.5l-62 12c3.33301 40.667 16.833 71.834 40.5 93.501s57.167 32.5 100.5 32.5c20.667 0 38.5 -2.66699 53.5 -8s27.667 -12.166 38 -20.499s18.5 -18 24.5 -29
s10.667 -22.167 14 -33.5c2 -8 3.66699 -18.167 5 -30.5s2.16602 -25.666 2.49902 -39.999l1 -44c0.333008 -15 0.5 -28.833 0.5 -41.5c0 -17.333 -0.166992 -34.666 -0.5 -51.999s-1.16602 -34 -2.49902 -50s-3 -30.5 -5 -43.5s-4.33301 -23.833 -7 -32.5
c-9.33301 -24.667 -24.333 -44.167 -45 -58.5s-49.334 -21.5 -86.001 -21.5zM242.001 96.998c4 10.667 6.49805 25.5 7.49805 44.5s1.83301 42.167 2.5 69.5h-158v-52c0 -14 0.833008 -27.5 2.5 -40.5s5.33398 -24.5 11.001 -34.5s13.5 -18 23.5 -24s23.333 -9 40 -9
c14.667 0 28.334 3.33301 41.001 10s22.667 18.667 30 36z" />
    <glyph glyph-name="primemod" unicode="&#x2b9;" horiz-adv-x="184" 
d="M212 670l-131 -257l-42 13l97 264z" />
    <glyph glyph-name="circumflex" unicode="&#x2c6;" horiz-adv-x="353" 
d="M176 647l-113 -95l-27 22l123 131h39l117 -129l-27 -24z" />
    <glyph glyph-name="caron" unicode="&#x2c7;" horiz-adv-x="352" 
d="M292 705l26 -24l-116 -128h-40l-123 130l27 22l113 -95z" />
    <glyph glyph-name="breve" unicode="&#x2d8;" horiz-adv-x="352" 
d="M102 680c2.66699 -17.333 10.8301 -33.333 24.4971 -48s30.5 -22 50.5 -22c21.333 0 38.833 7 52.5 21s21.5 30.333 23.5 49h50c-1.33301 -12.667 -4.66602 -25.834 -9.99902 -39.501s-13.166 -26.334 -23.499 -38.001s-23.166 -21.167 -38.499 -28.5
s-33.333 -11 -54 -11c-22 0 -40.833 3.66699 -56.5 11s-28.5 16.833 -38.5 28.5s-17.5 24.334 -22.5 38.001s-7.83301 26.834 -8.5 39.501h51z" />
    <glyph glyph-name="dotaccent" unicode="&#x2d9;" horiz-adv-x="352" 
d="M159 596v64h55v-64h-55z" />
    <glyph glyph-name="ring" unicode="&#x2da;" horiz-adv-x="352" 
d="M186 546c-24 0 -44.333 8.33301 -61 25s-25 37 -25 61s8.33301 44.333 25 61s37 25 61 25c23.333 0 43.333 -8.33301 60 -25s25 -37 25 -61s-8.33301 -44.333 -25 -61s-36.667 -25 -60 -25zM186 682c-14 0 -26 -5 -36 -15s-15 -22 -15 -36s5 -26 15 -36s22 -15 36 -15
c13.333 0 25 5 35 15s15 22 15 36s-5 26 -15 36s-21.667 15 -35 15z" />
    <glyph glyph-name="ogonek" unicode="&#x2db;" horiz-adv-x="375" 
d="M259 -92c0 13.333 2.66797 27.667 8.00098 43s14.666 32.333 27.999 51h40l1 -2c-10 -15.333 -18 -29.833 -24 -43.5s-9 -26.167 -9 -37.5c0 -18 4 -30.5 12 -37.5s18.333 -10.5 31 -10.5c7.33301 0 15.166 1 23.499 3s17.166 5.66699 26.499 11l14 -39
c-9.33301 -6.66699 -20.666 -12.167 -33.999 -16.5s-26.333 -6.5 -39 -6.5c-23.333 0 -42.166 7.83301 -56.499 23.5s-21.5 36.167 -21.5 61.5z" />
    <glyph glyph-name="tilde" unicode="&#x2dc;" horiz-adv-x="362" 
d="M318 644c-10.667 -22 -23.5 -38.834 -38.5 -50.501s-29.5 -17.5 -43.5 -17.5c-10 0 -19.833 2 -29.5 6s-19.167 8.16699 -28.5 12.5l-27 12.5c-8.66699 4 -17 6 -25 6c-17.333 0 -34 -11.667 -50 -35l-33 20c8 16.667 19.167 31.834 33.5 45.501s29.833 20.5 46.5 20.5
c10 0 19.333 -2 28 -6s17.5 -8.33301 26.5 -13s18.167 -9 27.5 -13s19.333 -6 30 -6c16.667 0 33.667 13 51 39z" />
    <glyph glyph-name="hungarumlaut" unicode="&#x2dd;" horiz-adv-x="352" 
d="M101 570l67 159l59 -21l-92 -152zM196 570l67 159l58 -21l-92 -152z" />
    <glyph glyph-name="tonos" unicode="&#x384;" horiz-adv-x="350" 
d="M141 570l67 159l59 -21l-92 -152z" />
    <glyph glyph-name="dieresistonos" unicode="&#x385;" horiz-adv-x="353" 
d="M247 587v64h55v-64h-55zM51 587v64h56v-64h-56zM127 570l68 159l59 -21l-92 -152z" />
    <glyph glyph-name="Alphatonos" unicode="&#x386;" horiz-adv-x="386" 
d="M316 0l-37 168h-173l-36 -168h-58l150 696h62l153 -696h-61zM191 594l-33 -168l-42 -200h152l-42 202l-32 166h-3zM-49 557l67 159l59 -21l-92 -152z" />
    <glyph glyph-name="anoteleia" unicode="&#x387;" horiz-adv-x="164" 
d="M47 303v74h70v-74h-70z" />
    <glyph glyph-name="Epsilontonos" unicode="&#x388;" horiz-adv-x="361" 
d="M53 0v696h291v-57h-230v-255h201v-57h-201v-271h230v-56h-291zM-108 557l67 159l59 -21l-92 -152z" />
    <glyph glyph-name="Etatonos" unicode="&#x389;" horiz-adv-x="420" 
d="M305 0v329h-191v-329h-61v696h61v-313h191v313h62v-696h-62zM-104 557l67 159l59 -21l-92 -152z" />
    <glyph glyph-name="Iotatonos" unicode="&#x38a;" horiz-adv-x="183" 
d="M60 0v696h63v-696h-63zM-100 557l67 159l59 -21l-92 -152z" />
    <glyph glyph-name="Omicrontonos" unicode="&#x38c;" horiz-adv-x="409" 
d="M363 172c0 -58.667 -13.165 -103.164 -39.498 -133.497s-66.166 -45.5 -119.499 -45.5s-92.833 14.333 -118.5 43s-38.5 68.667 -38.5 120v366c0 24.667 2.66699 48 8 70s14.166 41.167 26.499 57.5s28.666 29.166 48.999 38.499s45.166 14 74.499 14
c30 0 55.167 -4.16699 75.5 -12.5s36.5 -20.333 48.5 -36s20.667 -34.334 26 -56.001s8 -45.834 8 -72.501v-353zM301.002 534.003c0 14.667 -1.66895 28.6689 -5.00195 42.002s-8.66602 25.166 -15.999 35.499s-17.166 18.666 -29.499 24.999s-27.5 9.5 -45.5 9.5
c-19.333 0 -35.333 -4.16699 -48 -12.5s-22.667 -18.833 -30 -31.5s-12.5 -26.5 -15.5 -41.5s-4.5 -29.167 -4.5 -42.5v-363c0 -13.333 1.83301 -26.333 5.5 -39s9.33398 -24 17.001 -34s17.667 -18 30 -24s27.166 -9 44.499 -9c35.333 0 60.333 11.333 75 34s22 50 22 82
v369zM-89 557.005l67 159l59 -21l-92 -152z" />
    <glyph glyph-name="Upsilontonos" unicode="&#x38e;" horiz-adv-x="363" 
d="M182 375l44 140l60 181h64l-17 -48.5l-24.5 -71l-28.5 -82l-28.5 -81.5l-24 -71c-7 -21.333 -12.5 -37.333 -16.5 -48v-295h-61v295c-4 10.667 -9.5 26.667 -16.5 48l-24 71l-28.5 81.5l-28.5 82l-24.5 71l-17 48.5h64l60 -183l9 -28l13 -41l13 -41l9 -28h3zM-128 557
l67 159l59 -21l-92 -152z" />
    <glyph glyph-name="Omegatonos" unicode="&#x38f;" horiz-adv-x="408" 
d="M320 58l50 0.00195312v-58h-126v69c17.333 7.33301 31.166 18.333 41.499 33s15.5 33.667 15.5 57v376c0 14.667 -1.83301 28.667 -5.5 42s-9.5 25.166 -17.5 35.499s-18.167 18.5 -30.5 24.5s-27.166 9 -44.499 9c-23.333 0 -41.333 -4.83301 -54 -14.5
s-22.334 -21.667 -29.001 -36s-10.667 -30.166 -12 -47.499s-2 -33.666 -2 -48.999v-341c0 -23.333 5.16699 -42.333 15.5 -57s23.833 -25.334 40.5 -32.001v-69h-125v58h51v2c-13.333 10 -23.833 24.167 -31.5 42.5s-11.5 41.5 -11.5 69.5v333c0 28 2.5 54 7.5 78
s13.5 44.833 25.5 62.5s28.167 31.5 48.5 41.5s45.833 15 76.5 15c32 0 58.167 -4.33301 78.5 -13s36.5 -21.334 48.5 -38.001s20.167 -36.834 24.5 -60.501s6.5 -50.5 6.5 -80.5v-336c0 -22 -3.16699 -43.833 -9.5 -65.5s-17.166 -38.167 -32.499 -49.5zM-91 557.002
l67 159l59 -21l-92 -152z" />
    <glyph glyph-name="iotadieresistonos" unicode="&#x390;" horiz-adv-x="178" 
d="M140 -3c-3.33301 -0.666992 -6.33398 -1 -9.00098 -1h-8c-27.333 0 -46.166 6.33301 -56.499 19s-15.5 34.334 -15.5 65.001v411h61v-399c0 -15.333 2.16699 -25.333 6.5 -30s11.833 -7.33398 22.5 -8.00098zM165.999 587v64h55v-64h-55zM-30.001 587v64h56v-64h-56z
M45.999 570l68 159l59 -21l-92 -152z" />
    <glyph glyph-name="Alpha" unicode="&#x391;" horiz-adv-x="386" 
d="M316 0l-37 168h-173l-36 -168h-58l150 696h62l153 -696h-61zM191 594l-33 -168l-42 -200h152l-42 202l-32 166h-3z" />
    </font>
</defs>
</svg>
